<?xml version="1.0" encoding="utf-8"?>
<!-- Generator: Adobe Illustrator 16.0.0, SVG Export Plug-In . SVG Version: 6.00 Build 0)  -->
<!DOCTYPE svg PUBLIC "-//W3C//DTD SVG 1.1//EN" "http://www.w3.org/Graphics/SVG/1.1/DTD/svg11.dtd">
<svg version="1.1" xmlns="http://www.w3.org/2000/svg" xmlns:xlink="http://www.w3.org/1999/xlink" x="0px" y="0px"
	 width="127.559px" height="127.559px" viewBox="0 0 127.559 127.559" enable-background="new 0 0 127.559 127.559"
	 xml:space="preserve">
<g id="Layer_2" display="none">
	<rect display="inline" fill="#2E3192" width="127.559" height="127.559"/>
</g>
<g id="Layer_1">
	<g>
		<g>
			<defs>
				<rect id="SVGID_1_" x="15.554" y="39.557" width="0" height="0"/>
			</defs>
			<clipPath id="SVGID_2_">
				<use xlink:href="#SVGID_1_"  overflow="visible"/>
			</clipPath>
			<g clip-path="url(#SVGID_2_)">
				<defs>
					<rect id="SVGID_3_" x="15.554" y="39.557" width="0" height="0"/>
				</defs>
				<clipPath id="SVGID_4_">
					<use xlink:href="#SVGID_3_"  overflow="visible"/>
				</clipPath>
			</g>
			<g clip-path="url(#SVGID_2_)">
				<defs>
					<rect id="SVGID_5_" x="15.554" y="39.557" width="0" height="0"/>
				</defs>
				<clipPath id="SVGID_6_">
					<use xlink:href="#SVGID_5_"  overflow="visible"/>
				</clipPath>
			</g>
			<g clip-path="url(#SVGID_2_)">
				<defs>
					<rect id="SVGID_7_" x="15.554" y="39.557" width="0" height="0"/>
				</defs>
				<clipPath id="SVGID_8_">
					<use xlink:href="#SVGID_7_"  overflow="visible"/>
				</clipPath>
				<path clip-path="url(#SVGID_8_)" fill="#FFFFFF" d="M15.554,39.557L15.554,39.557L15.554,39.557L15.554,39.557L15.554,39.557
					L15.554,39.557L15.554,39.557L15.554,39.557L15.554,39.557L15.554,39.557L15.554,39.557L15.554,39.557L15.554,39.557
					L15.554,39.557L15.554,39.557L15.554,39.557L15.554,39.557L15.554,39.557L15.554,39.557L15.554,39.557 M15.554,39.557
					L15.554,39.557L15.554,39.557L15.554,39.557L15.554,39.557L15.554,39.557L15.554,39.557L15.554,39.557L15.554,39.557
					L15.554,39.557L15.554,39.557 M15.554,39.557L15.554,39.557L15.554,39.557L15.554,39.557L15.554,39.557L15.554,39.557
					L15.554,39.557L15.554,39.557L15.554,39.557L15.554,39.557L15.554,39.557 M15.554,39.557L15.554,39.557L15.554,39.557
					L15.554,39.557L15.554,39.557 M15.554,39.557L15.554,39.557L15.554,39.557L15.554,39.557L15.554,39.557L15.554,39.557
					L15.554,39.557L15.554,39.557L15.554,39.557L15.554,39.557L15.554,39.557L15.554,39.557L15.554,39.557L15.554,39.557
					L15.554,39.557L15.554,39.557L15.554,39.557L15.554,39.557L15.554,39.557L15.554,39.557L15.554,39.557L15.554,39.557
					L15.554,39.557 M15.554,39.557L15.554,39.557L15.554,39.557 M15.554,39.557L15.554,39.557L15.554,39.557L15.554,39.557
					 M15.554,39.557L15.554,39.557L15.554,39.557L15.554,39.557 M15.554,39.557L15.554,39.557L15.554,39.557L15.554,39.557
					L15.554,39.557L15.554,39.557L15.554,39.557L15.554,39.557L15.554,39.557L15.554,39.557L15.554,39.557L15.554,39.557
					L15.554,39.557L15.554,39.557L15.554,39.557L15.554,39.557L15.554,39.557L15.554,39.557L15.554,39.557L15.554,39.557
					L15.554,39.557L15.554,39.557 M15.554,39.557L15.554,39.557L15.554,39.557L15.554,39.557L15.554,39.557L15.554,39.557
					L15.554,39.557L15.554,39.557L15.554,39.557L15.554,39.557L15.554,39.557L15.554,39.557L15.554,39.557L15.554,39.557
					L15.554,39.557L15.554,39.557L15.554,39.557L15.554,39.557L15.554,39.557L15.554,39.557L15.554,39.557L15.554,39.557
					L15.554,39.557L15.554,39.557L15.554,39.557L15.554,39.557L15.554,39.557"/>
			</g>
		</g>
	</g>
	<g>
		<g>
			<defs>
				<rect id="SVGID_9_" y="4.004" width="127.559" height="120.387"/>
			</defs>
			<clipPath id="SVGID_10_">
				<use xlink:href="#SVGID_9_"  overflow="visible"/>
			</clipPath>
			<g clip-path="url(#SVGID_10_)">
				<path fill="#FFFFFF" d="M15.334,91.059c-0.104-0.139-0.19-0.173-0.305-0.308c-0.234-0.301-0.443-0.629-0.694-0.912
					c-0.196-0.233-0.292-0.554-0.488-0.786c-0.147-0.194-0.327-0.396-0.386-0.646c-0.059-0.301,0.224-0.619,0.525-0.702
					c0.212-0.055,0.215,0.096,0.308,0.24c0.325,0.563,0.718,1.078,0.985,1.683c0.15,0.319,0.278,0.648,0.37,0.984
					c0.028,0.1,0.189,0.68,0.109,0.731C15.612,91.441,15.399,91.153,15.334,91.059z M15.079,89.7
					c-0.349-0.41-0.418-0.974-0.787-1.373c0.142,0.184,0.227,0.457,0.336,0.657C14.751,89.229,14.878,89.482,15.079,89.7z"/>
			</g>
			<g clip-path="url(#SVGID_10_)">
				<path fill="#FFFFFF" d="M19.915,102.018c-0.106,0.091-0.203,0.12-0.341,0.136c-0.619,0.052-1.409,0.061-1.911-0.369
					c-0.198-0.168-0.296-0.381-0.333-0.61c-0.001-0.055-0.018-0.794,0.019-0.822c0.007,0.009,0.015,0.018,0.02,0.043
					c0.004-0.031-0.001-0.057-0.008-0.064c-0.007,0.046-0.026-0.124-0.031-0.148c-0.001-0.113,0.021-0.214,0.05-0.308
					c0.043-0.186,0.067-0.359,0.083-0.542c0.001-0.072,0.178-0.867,0.295-0.854c0.017,0.003-0.018,0.071,0.015,0.075l0.057-0.226
					l-0.02,0.015c-0.043,0.002,0.414-1.169,0.455-1.283c0.078-0.199,0.146-0.448,0.289-0.623c0.021-0.029,0.056-0.042,0.087-0.021
					c0.031-0.037,0.037-0.084,0.027-0.134l0.199-0.4c-0.339,0.119-0.62,0.309-0.966,0.42c-0.5,0.18-0.968,0.38-1.437,0.577
					l-0.577,0.251c-0.146,0.063-0.336,0.216-0.5,0.236c-0.346,0.055-0.221-0.492-0.153-0.685c0.159-0.541,0.74-0.694,1.225-0.892
					c0.424-0.182,0.853-0.337,1.296-0.475c0.353-0.103,0.656-0.266,0.99-0.409c0.876-0.327,1.787-0.592,2.678-0.901
					c0.798-0.255,1.6-0.526,2.435-0.737c0.151-0.055,0.327-0.097,0.51-0.132l0.21-0.054c0.002-0.016,0.014-0.038,0.023-0.046
					c0.312-0.042,0.484,0.373,0.486,0.613c0.028,0.476-0.397,0.36-0.749,0.445c-0.123,0.033-0.175,0.099-0.31,0.154
					c-0.241,0.092-0.519,0.137-0.759,0.214c-0.344,0.094-0.68,0.197-1.026,0.308l-0.555,0.148c-0.201,0.048-0.355,0.117-0.53,0.216
					c-0.335,0.159-0.739,0.198-1.09,0.34c0.715,0.176,1.4,0.315,2.128,0.396c0.755,0.06,1.475,0.203,2.244,0.224
					c0.729,0.01,1.62,0.068,2.3-0.185c0.116-0.042,0.207-0.151,0.289,0.002c0.105,0.222-0.148,0.647-0.298,0.813l-0.019,0.015
					c-0.354,0.356-0.816,0.382-1.331,0.359c-0.362-0.021-0.71-0.022-1.086-0.06c-0.184-0.022-0.316,0.017-0.496,0.019
					c-0.178,0.003-0.384-0.046-0.558-0.076c-0.356-0.067-0.726-0.096-1.082-0.163c-0.239-0.053-0.47-0.04-0.71-0.077
					c-0.681-0.115-1.398-0.331-2.029-0.623c-0.179,0.442-0.349,0.877-0.463,1.345c0.055-0.153,0.145-0.447,0.232-0.652
					c-0.163,0.573-0.45,1.805-0.486,1.943c-0.037,0.396-0.064,0.786-0.118,1.181c-0.037,0.268-0.101,0.611-0.083,0.855l0.021-0.086
					c0.019-0.014,0.127,0.432,0.138,0.481c0.044,0.11,0.089,0.219,0.171,0.301c0.217,0.21,0.644,0.326,0.931,0.329
					C19.935,101.82,20.141,101.796,19.915,102.018z M19.466,94.977c-0.931,0.352-1.893,0.684-2.794,1.07
					c0.358-0.132,0.745-0.23,1.119-0.36c0.483-0.183,0.937-0.4,1.396-0.593c0.009-0.007,0.019-0.013,0.036-0.011L19.466,94.977z
					 M18.835,97.92c-0.043,0.131-0.063,0.273-0.089,0.406l0.075-0.296L18.835,97.92z M19.222,96.646l-0.018,0.069L19.222,96.646z
					 M19.281,96.516l-0.048,0.106C19.258,96.563,19.272,96.522,19.281,96.516z"/>
			</g>
			<g clip-path="url(#SVGID_10_)">
				<path fill="#FFFFFF" d="M24.736,102.731c-0.017-0.017-0.158-0.09-0.141-0.09c-0.117-0.049-0.093-0.042-0.228-0.027
					c-0.169,0.029-0.338,0.074-0.499,0.111c-0.066,0-0.818,0.123-0.85,0.044c0,0,0.151-0.014,0.152-0.029l-0.532,0.03
					c0.051,0.002,0.076,0.01,0.067,0.018c-0.195,0.086-0.639-0.024-0.857-0.06c-0.234-0.035-0.495-0.112-0.695-0.258
					c-0.182-0.145-0.33-0.354-0.411-0.577c-0.241-0.704,0.153-1.612,0.94-1.831c0.415-0.112,0.822-0.297,1.294-0.354
					c0.261-0.02,0.531-0.031,0.791,0.028c0.117,0.019,0.235,0.052,0.352,0.101c0.092,0.025,0.225,0.139,0.3,0.147
					c0.084,0.018,0.356-0.137,0.458-0.168c0.102-0.029,0.211-0.053,0.313-0.067c0.287-0.043,0.6-0.062,0.875,0.014
					c0.444,0.125,0.563,0.549,0.556,0.946c0,0,0.047,0.224-0.012,0.263l0.001-0.063l-0.035,0.095l0,0.016
					c0.044-0.087,0.015,0.127,0.015,0.127c-0.027,0.103-0.079,0.198-0.14,0.285c-0.094,0.133-0.231,0.242-0.367,0.336
					c-0.35,0.256-0.766,0.464-1.164,0.658c0.291,0.202,0.599,0.389,0.891,0.576c0.075,0.043,0.176,0.06,0.157,0.155
					c-0.01,0.021-0.009,0.006-0.009,0.006C25.882,103.687,24.844,102.805,24.736,102.731z M23.932,101.995
					c-0.313-0.401-0.598-0.986-0.262-1.466c-0.126,0.006-0.448,0.081-0.829,0.194l0.127-0.022c-0.103,0.063-2.402,0.665-1.612,1.241
					l0.008,0.008C22.056,102.414,23.195,102.216,23.932,101.995z M26.253,100.624c0.099-0.404-0.591-0.351-0.886-0.315
					c-0.009-0.008-0.018,0-0.018,0l-0.024,0.007l0.008-0.008c-0.026,0.008-0.042,0.007-0.034,0.017
					c-0.102,0.013-0.202,0.012-0.346,0.05c0.017,0.001,0.261-0.052,0.245-0.021c-0.026,0.071-0.458,0.169-0.534,0.191
					c-0.186,0.077-0.364,0.161-0.527,0.277c-0.162,0.117-0.341,0.249-0.327,0.457c0.006,0.12,0.096,0.239,0.179,0.336
					c0.042,0.057,0.132,0.178,0.199,0.21c0.1,0.064,0.049,0.064,0.176,0.025c0.338-0.073,0.704-0.314,1.002-0.476
					C25.62,101.219,26.156,100.948,26.253,100.624z M25.367,100.309h-0.018C25.349,100.309,25.358,100.316,25.367,100.309z"/>
			</g>
			<g clip-path="url(#SVGID_10_)">
				<path fill="#FFFFFF" d="M27.992,106.242c-0.602,0.19-1.417,0.133-1.984-0.124c-0.069-0.028-0.259-0.198-0.343-0.193
					c-0.094-0.003-0.36,0.271-0.431,0.331c-0.137,0.097-0.273,0.192-0.418,0.282c-0.582,0.356-1.206,0.813-1.877,0.992
					c-0.587,0.157-1.253,0.042-1.395-0.609c-0.126-0.566,0.406-1.144,0.792-1.51c0.93-0.905,2.122-1.447,3.212-2.116
					c1.025-0.632,2.165-1.081,3.315-1.507c0.632-0.24,1.299-0.469,1.971-0.632c0.481-0.111,1.347-0.383,1.8-0.086
					c0.895,0.587-0.437,1.534-0.966,1.783c-1.013,0.466-2.146,0.786-3.251,0.995c-0.666,0.123-1.343,0.224-2.028,0.315
					c-0.209,0.022-0.427,0.053-0.645,0.066c-0.176,0.021-0.225,0.039-0.397,0.122c-0.162,0.091-0.315,0.172-0.46,0.262
					c-0.601,0.325-1.183,0.666-1.755,1.047c-0.385,0.264-0.895,0.575-1.126,0.982l-0.013-0.056l0.001,0.016
					c-0.212,0.883,1.439,0.17,1.781,0.004c0.49-0.225,0.951-0.485,1.384-0.801c0.096-0.069,0.258-0.161,0.318-0.261
					c0.076-0.116,0.08-0.291,0.155-0.408c0.127-0.223,0.33-0.443,0.554-0.601c0.234-0.151,0.554-0.173,0.487,0.189
					c-0.039,0.146-0.13,0.28-0.214,0.405c-0.069,0.093-0.27,0.241-0.304,0.347c-0.055,0.162,0.223,0.271,0.377,0.311
					c0.58,0.192,1.256,0.108,1.852,0.029c0.091-0.014,0.977-0.256,0.853,0.016l-0.008,0.009
					C29.035,106.206,28.331,106.148,27.992,106.242z M22.174,106.201c0.273-0.297,0.768-0.576,0.952-0.707
					c0.215-0.165,0.458-0.325,0.692-0.461c-0.146,0.075-0.292,0.164-0.438,0.253C22.967,105.512,22.465,105.8,22.174,106.201z
					 M26.573,103.723c1.122-0.137,2.236-0.354,3.3-0.688c0.305-0.091,2.661-1.003,2.406-1.376c-0.086-0.129-0.35-0.048-0.483-0.024
					c-0.516,0.098-1.009,0.289-1.501,0.465c-0.995,0.359-1.967,0.798-2.93,1.244c0.017-0.001-0.024,0.026-0.179,0.092l0.008-0.009
					c-0.008,0.009-0.024,0.01-0.032,0.018L26.573,103.723z M27.365,103.344l-0.089,0.045
					C27.308,103.372,27.357,103.353,27.365,103.344z"/>
			</g>
			<g clip-path="url(#SVGID_10_)">
				<path fill="#FFFFFF" d="M31.472,108.601c-0.584,0.235-1.401,0.238-1.987,0.025c-0.073-0.022-0.276-0.179-0.359-0.167
					c-0.093,0.005-0.336,0.296-0.402,0.362c-0.127,0.107-0.256,0.214-0.393,0.313c-0.549,0.398-1.134,0.899-1.787,1.128
					c-0.572,0.202-1.247,0.138-1.442-0.502c-0.173-0.554,0.309-1.169,0.662-1.565c0.851-0.972,1.993-1.6,3.024-2.348
					c0.968-0.708,2.067-1.242,3.177-1.752c0.611-0.287,1.255-0.563,1.911-0.777c0.47-0.146,1.311-0.483,1.788-0.221
					c0.941,0.518-0.306,1.562-0.813,1.851c-0.97,0.539-2.072,0.944-3.158,1.235c-0.653,0.173-1.319,0.323-1.995,0.468
					c-0.207,0.037-0.421,0.083-0.637,0.113c-0.173,0.032-0.221,0.056-0.385,0.151c-0.154,0.102-0.301,0.194-0.438,0.295
					c-0.571,0.37-1.123,0.753-1.661,1.175c-0.361,0.293-0.842,0.642-1.039,1.064l-0.018-0.056l0.002,0.017
					c-0.138,0.896,1.449,0.061,1.776-0.131c0.47-0.259,0.908-0.555,1.313-0.9c0.089-0.077,0.244-0.18,0.295-0.284
					c0.065-0.121,0.055-0.296,0.121-0.418c0.108-0.232,0.292-0.468,0.502-0.642c0.22-0.168,0.537-0.213,0.501,0.153
					c-0.026,0.148-0.107,0.289-0.18,0.42c-0.062,0.097-0.248,0.26-0.273,0.368c-0.042,0.167,0.244,0.255,0.402,0.28
					c0.594,0.148,1.262,0.014,1.847-0.108c0.09-0.021,0.953-0.328,0.852-0.049l-0.006,0.01
					C32.509,108.485,31.802,108.482,31.472,108.601z M25.67,108.997c0.248-0.315,0.717-0.632,0.889-0.776
					c0.202-0.181,0.428-0.358,0.651-0.511c-0.139,0.084-0.277,0.184-0.414,0.284C26.402,108.25,25.925,108.574,25.67,108.997z
					 M29.847,106.195c1.105-0.221,2.199-0.521,3.232-0.933c0.296-0.114,2.567-1.199,2.281-1.552
					c-0.095-0.123-0.352-0.022-0.483,0.012c-0.507,0.136-0.981,0.363-1.458,0.577c-0.961,0.433-1.894,0.942-2.815,1.459
					c0.016-0.003-0.021,0.027-0.171,0.104l0.008-0.009c-0.008,0.009-0.024,0.012-0.031,0.021L29.847,106.195z M30.604,105.759
					l-0.086,0.052C30.548,105.79,30.596,105.768,30.604,105.759z"/>
			</g>
			<g clip-path="url(#SVGID_10_)">
				<path fill="#FFFFFF" d="M34.153,109.707c-0.331,0.132-0.646,0.26-0.992,0.371c-0.375,0.133-0.902,0.385-1.303,0.247
					c-0.087-0.039-0.401-0.365-0.353-0.416l0.02,0.012c-0.054-0.087-0.032,0.048-0.094-0.111c-0.051-0.11-0.053-0.232-0.054-0.354
					c-0.014-0.209-0.07-0.416,0.006-0.61c0.023-0.053,0.236-0.406,0.316-0.356c0.02,0.012-0.033,0.047-0.023,0.053l0.147-0.151
					c-0.023,0.014-0.03,0.022-0.056,0.02c-0.034-0.033,0.615-0.588,0.673-0.632c0.216-0.149,0.412-0.352,0.69-0.343
					c0.214-0.002,0.391,0.132,0.529,0.324c0.061,0.077,0.225,0.313,0.161,0.407c-0.039,0.056-0.095,0.034-0.144,0.045
					c0.016-0.005,0.036,0.009,0.046,0.015c0.017,0.037-0.27,0.145-0.283,0.122c-0.019-0.012,0.043-0.042,0.073-0.063
					c-0.39,0.177-0.777,0.409-1.124,0.666c0.135-0.092,0.747-0.468,0.771-0.44c0.023,0.027-1.442,0.739-1.213,1.106
					c0.107,0.174,0.54,0.103,0.708,0.086c0.287-0.026,0.669-0.048,0.92-0.121c-0.034,0.006-0.053-0.006-0.084-0.025
					c-0.007-0.07,0.919-0.388,1.048-0.39c0.103-0.004,0.269,0.043,0.205,0.179C34.66,109.549,34.337,109.646,34.153,109.707z
					 M32.085,109.207l-0.072,0.063l0.059-0.045l0.006-0.009C32.102,109.203,32.102,109.203,32.085,109.207z M33.814,106.956
					c0.009-0.034,0.179-0.346,0.257-0.232c0.02-0.028,0.237-0.096,0.092-0.01c0.167-0.058,0.338-0.141,0.505-0.239l-0.236,0.096
					c0.207-0.114,0.586-0.378,0.641-0.438c0.007-0.01,0.045-0.107,0.078-0.114c-0.159-0.203,0.069-0.226,0.205-0.236
					c-0.02-0.011-0.03-0.018-0.027-0.043c-0.015-0.062,0.125-0.017,0.161-0.008c0.179,0.028,0.34,0.167,0.424,0.312
					c0.065,0.134,0.068,0.337,0.03,0.474c-0.044,0.147-0.242,0.228-0.383,0.249c-0.066,0.013-0.156-0.002-0.231,0.006
					c-0.105,0.029-0.153,0.119-0.248,0.156c-0.063,0.028-0.137,0.011-0.198,0.039c-0.06,0.005-0.079,0.032-0.068,0.079
					c-0.053-0.007-0.096-0.006-0.145,0.004c-0.204,0.09-0.322,0.139-0.5,0.15c0.156,0.002,0.265-0.013,0.449-0.074
					c0.144-0.045,0.279-0.056,0.432-0.031c-0.171,0.043-0.275,0.154-0.447,0.156c-0.165-0.008,0.035-0.072-0.173-0.038
					c0,0,0.066,0.026,0.024,0.027c-0.142,0.021-0.316,0.088-0.468,0.062c-0.073-0.017-0.138-0.003-0.189-0.075
					c-0.044-0.079,0.012-0.1,0.011-0.14C33.809,107.087,33.808,106.966,33.814,106.956z M34.081,106.73
					c0.01,0.006,0.003,0.015,0.003,0.015c0.017-0.002,0.017-0.002,0.023-0.011C34.091,106.736,34.091,106.736,34.081,106.73z
					 M34.41,106.583c-0.046,0.025-0.079,0.032-0.079,0.032L34.41,106.583z"/>
			</g>
			<g clip-path="url(#SVGID_10_)">
				<path fill="#FFFFFF" d="M37.961,111.206l-0.562,0.229l-0.971,0.386c-0.25,0.098-0.526,0.169-0.776,0.267
					c-0.274,0.113-0.531,0.246-0.819,0.338c-0.298,0.086-0.633,0.166-0.959,0.159c-0.228-0.006-0.399-0.086-0.557-0.234
					c-0.229-0.213-0.372-0.495-0.432-0.786c-0.016-0.086-0.038-0.162-0.002-0.247c0.025-0.063,0.056-0.137,0.097-0.205
					c0.06-0.124,0.154-0.189,0.245-0.296c0.098-0.116,0.23-0.199,0.327-0.315c0.103-0.126,0.221-0.231,0.318-0.347
					c0.081-0.112,0.136-0.251,0.237-0.352c0.068-0.067,0.177-0.111,0.26-0.183c-0.066,0.042-0.153,0.072-0.192,0.115
					c-0.078,0.063-0.146,0.13-0.218,0.182c-0.078,0.062-0.129,0.124-0.207,0.186c-0.095,0.066-0.183,0.122-0.251,0.215
					c-0.064,0.082-0.106,0.175-0.17,0.257c-0.073,0.078-0.135,0.136-0.188,0.224c-0.018,0.028-0.033,0.1-0.044,0.118
					c-0.023,0.039-0.074,0.077-0.103,0.126c-0.053,0.088-0.085,0.188-0.134,0.29c-0.001-0.362,0.195-0.62,0.422-0.886
					c0.229-0.265,0.44-0.526,0.683-0.771c0.482-0.505,1.103-0.923,1.771-1.172c0.563-0.228,1.169-0.304,1.669,0.094
					c0.184,0.15,0.359,0.36,0.394,0.598c0.033,0.264-0.118,0.492-0.319,0.669c-0.364,0.31-0.888,0.43-1.362,0.511
					c-0.199,0.036-0.408,0.065-0.617,0.07c-0.14,0.004-0.276-0.019-0.414-0.039l-0.212-0.037c-0.084-0.019-0.088-0.034-0.155,0.008
					c-0.11,0.069-0.138,0.185-0.217,0.271c-0.097,0.116-0.199,0.217-0.306,0.327c-0.193,0.206-0.458,0.466-0.542,0.742
					c-0.186,0.561,1.147,0.253,1.385,0.2c0.157-0.032,0.308-0.08,0.454-0.117c0.088-0.032,0.179-0.048,0.256-0.083
					c0,0,0.049-0.039,0.062-0.06c0.236-0.117,0.508-0.206,0.769-0.298c0.309-0.106,0.604-0.232,0.916-0.363
					c0.17-0.077,0.605-0.322,0.611,0.03l-0.006,0.01c0.006,0.015,0.006,0.015,0.011,0.006
					C38.109,111.143,38.049,111.176,37.961,111.206z M35.158,110.016c0.432,0.012,0.867-0.052,1.265-0.189l0.304-0.121
					c0.061-0.031,0.13-0.034,0.186-0.08c0.04-0.043,0.043-0.094,0.088-0.147l0.165-0.183c0.069-0.093,0.18-0.369,0.007-0.423
					c-0.084-0.02-0.209,0.03-0.28,0.057l-0.328,0.135c-0.399,0.188-0.713,0.458-1.056,0.688c0,0-0.006,0.011-0.028,0.024
					C35.371,109.846,35.276,109.937,35.158,110.016z"/>
			</g>
			<g clip-path="url(#SVGID_10_)">
				<path fill="#FFFFFF" d="M44.208,113.914c-0.175-0.04-0.264-0.012-0.443-0.041c-0.388-0.082-0.774-0.198-1.159-0.255
					c-0.31-0.053-0.606-0.233-0.917-0.286c-0.246-0.055-0.523-0.095-0.742-0.248c-0.254-0.188-0.264-0.603-0.096-0.854
					c0.122-0.172,0.229-0.062,0.4-0.012c0.636,0.222,1.293,0.364,1.915,0.653c0.336,0.146,0.663,0.314,0.966,0.509
					c0.092,0.057,0.618,0.394,0.594,0.481C44.684,114.028,44.323,113.944,44.208,113.914z M43.067,113.052
					c-0.549-0.093-0.995-0.472-1.552-0.543c0.235,0.05,0.492,0.204,0.713,0.284C42.491,112.901,42.764,113.013,43.067,113.052z"/>
			</g>
			<g clip-path="url(#SVGID_10_)">
				<path fill="#FFFFFF" d="M58.495,111.408c-0.219,0.003-0.494-0.075-0.707-0.048c-0.012-0.002-0.061,0.057-0.099,0.061
					c-0.051,0.013-0.113,0.013-0.161,0.015c-0.16,0.002-0.316-0.006-0.46-0.011l-0.869-0.033c-0.203-0.019-0.528-0.141-0.677,0.036
					c-0.033,0.041-0.037,0.108-0.06,0.161c-0.076,0.123-0.196,0.225-0.293,0.332l-0.629,0.748c-0.307,0.342-0.551,0.729-0.826,1.089
					c-0.156,0.21-0.347,0.414-0.472,0.642c-0.088,0.177-0.165,0.358-0.29,0.54c-0.58,0.804-1.228,1.583-1.778,2.414
					c-0.397,0.588-1.208,1.829-2.136,1.564c-0.515-0.147-0.869-0.574-1.017-1.063c-0.113-0.367-0.152-0.904-0.08-1.28
					c0.017-0.076,0.035-0.211,0.105-0.254c0.185-0.125,0.313,0.177,0.37,0.302c0.197,0.431,0.342,0.931,0.671,1.306
					c0.158,0.17,0.201,0.189,0.38,0.041c0.367-0.283,0.668-0.706,0.9-1.098c0.59-0.95,1.234-1.879,1.879-2.809
					c0.631-0.93,1.244-1.878,1.975-2.755c-0.206-0.006-0.408-0.022-0.612-0.041c-0.155-0.007-0.273,0.026-0.431,0.029
					c-0.26,0.018-0.528-0.035-0.792-0.053c-0.298-0.024-0.596-0.049-0.872-0.185c-0.262-0.133-0.633-0.597-0.182-0.714
					c0.143-0.039,0.345-0.022,0.464-0.011c0.58,0.022,1.148,0.033,1.715,0.11c0.238,0.023,0.442,0.041,0.673,0.041
					c0.124-0.011,0.245-0.009,0.365,0.004c0.105,0.009,0.3,0.07,0.405,0.033c0.171-0.057,0.21-0.232,0.312-0.305
					c0.188-0.136,0.533-0.044,0.719,0.05c0.195,0.107,0.222,0.205,0.335,0.354c0.055,0.08-0.045,0.037,0.053,0.091
					c0.067,0.024,0.165,0.021,0.227,0.022c0.14,0.027,0.282,0.044,0.424,0.061c0.564,0.089,1.126,0.188,1.679,0.333
					c0.055,0.021,0.123,0.047,0.181,0.058c0.026-0.006,0.053-0.069,0.109-0.047c0.054,0.022,0.083,0.063,0.082,0.12
					C59.056,111.462,58.628,111.411,58.495,111.408z M55.213,111.505c-0.337,0.313-0.839,0.764-1.101,1.125
					c-0.311,0.409-1.098,1.598-1.456,2.112c0.326-0.43,1.171-1.548,1.412-1.811C54.461,112.48,54.798,111.95,55.213,111.505z"/>
			</g>
			<g clip-path="url(#SVGID_10_)">
				<path fill="#FFFFFF" d="M59.694,116.417c0.048-0.008-0.341,0.587-0.395,0.638c-0.208,0.252-0.427,0.501-0.645,0.739
					c-0.398,0.458-0.781,0.997-1.277,1.366c-0.181,0.128-0.308,0.194-0.532,0.161c-0.272-0.038-0.437-0.167-0.596-0.352
					c-0.031-0.038-0.322-0.326-0.279-0.401l0.061,0.108c-0.03-0.06-0.046-0.118-0.064-0.188l-0.004,0.044
					c-0.04,0.03-0.09-0.382-0.085-0.426c0.007-0.169,0.062-0.333,0.116-0.498c0.112-0.26,0.226-0.52,0.326-0.78
					c0.114-0.272,0.297-0.524,0.469-0.779c0.029-0.042,0.302-0.456,0.35-0.45c-0.001,0.011-0.06,0.105-0.05,0.119l0.22-0.362
					l-0.04,0.029l0.431-0.749c-0.476,0.293-0.87,0.717-1.258,1.085c-0.187,0.175-0.366,0.393-0.586,0.53
					c-0.077,0.049-0.097,0.013-0.164,0.074c-0.053,0.051-0.097,0.126-0.141,0.188c-0.319,0.399-0.705,0.745-1.035,1.13l-0.253,0.337
					c-0.029,0.054-0.033,0.088-0.087,0.138c-0.171,0.143-0.438,0.059-0.551-0.11c-0.093-0.122-0.088-0.28-0.073-0.415
					c0.006-0.495,0.184-1.009,0.332-1.48c0.318-1.031,0.707-2.056,1.187-3.035c0.42-0.874,0.996-1.642,1.552-2.445
					c0.001-0.011,0.087-0.241,0.15-0.269c-0.013,0.01-0.107,0.204-0.107,0.204l0.171-0.243c0,0-0.012,0-0.022-0.013
					c0.022-0.201,0.317-0.479,0.453-0.633c0.195-0.241,0.399-0.47,0.616-0.697c0.381-0.402,0.753-0.852,1.24-1.132
					c0.255-0.144,0.557-0.271,0.861-0.22c0.154,0.016,0.302,0.087,0.398,0.198c0.042,0.049,0.217,0.416,0.14,0.454
					c0,0-0.04-0.173-0.052-0.175c0.05,0.186,0.04,0.389,0.009,0.566c0.014-0.021,0.015-0.032,0.027-0.031
					c0.059,0.006-0.316,1.009-0.349,1.095c-0.162,0.38-0.37,0.744-0.589,1.095c-0.49,0.742-1.068,1.533-1.746,2.145
					c-0.132,0.111-0.296,0.186-0.414,0.275c-0.131,0.111-0.231,0.261-0.366,0.382c-0.345,0.305-0.711,0.585-1.086,0.842
					c-0.222,0.159-0.303,0.253-0.425,0.489c-0.109,0.227-0.207,0.454-0.314,0.67c-0.204,0.431-0.395,0.864-0.576,1.31
					c0.233-0.271,0.478-0.529,0.734-0.786c-0.172,0.152-0.293,0.265-0.293,0.265c-0.021-0.014,1.661-1.588,1.833-1.728
					c0.395-0.324,1.131-1.03,1.585-0.375c0.258,0.376-0.013,0.767-0.228,1.085c-0.376,0.585-0.834,1.262-1.093,1.869
					c0.012-0.011,0.091-0.172,0.124-0.146c0.063,0.073-0.208,0.578-0.243,0.677c-0.021,0.077-0.143,0.426-0.055,0.492
					c0.143,0.115,0.449-0.161,0.565-0.238c0.469-0.35,0.909-0.747,1.347-1.134c0.161-0.153,0.323-0.317,0.506-0.458
					c0.039-0.028,0.134-0.134,0.193-0.128C59.642,116.343,59.766,116.412,59.694,116.417z M55.828,113.932
					c-0.019,0.055-0.085,0.229-0.062,0.231c-0.034-0.014,0.57-1.141,0.63-1.248c0.121-0.225,0.285-0.412,0.396-0.649
					c0.123-0.249,0.266-0.46,0.423-0.682c0.188-0.298,1.936-2.781,1.848-2.847c-0.022-0.013-1.387,1.919-1.519,2.133
					c-0.288,0.445-0.646,0.863-0.89,1.336c-0.277,0.56-0.637,1.101-0.811,1.694L55.828,113.932z M55.828,113.932
					c0,0,0.013-0.009,0.014-0.021C55.84,113.923,55.829,113.921,55.828,113.932z M59.41,108.727
					c-0.497,0.597-0.94,1.252-1.383,1.886c-0.399,0.583-0.837,1.183-1.189,1.77c0.042-0.052,0.083-0.104,0.107-0.113
					c0,0-0.321,0.635-0.364,0.699l-0.453,0.847c0.947-0.764,1.787-1.643,2.502-2.588c-0.278,0.346-0.568,0.69-0.866,0.999
					l-0.542,0.579l-0.236,0.18l0.106-0.092c0.134-0.121,0.254-0.245,0.376-0.368c0.231-0.249,0.463-0.508,0.685-0.768
					c0.455-0.544,0.876-1.102,1.229-1.699c0.178-0.31,0.357-0.631,0.49-0.969c0.067-0.163,0.273-0.618,0.121-0.769
					c-0.15-0.148-0.432,0.229-0.542,0.354c0.014-0.01-0.001,0.011-0.016,0.032l0.002-0.011c-0.002,0.011-0.014,0.01-0.014,0.01
					l0,0.011C59.422,108.729,59.41,108.727,59.41,108.727z M56.841,113.105c-0.039,0.031-0.067,0.072-0.094,0.094
					C56.775,113.167,56.802,113.137,56.841,113.105z M59.436,108.707l-0.012-0.001l0,0.011L59.436,108.707z"/>
			</g>
			<g clip-path="url(#SVGID_10_)">
				<defs>
					<rect id="SVGID_11_" y="4.004" width="127.559" height="120.387"/>
				</defs>
				<clipPath id="SVGID_12_">
					<use xlink:href="#SVGID_11_"  overflow="visible"/>
				</clipPath>
				<g clip-path="url(#SVGID_12_)">
					<path fill="#FFFFFF" d="M63.489,116.59l-0.379,0.455l-0.658,0.775c-0.17,0.199-0.376,0.386-0.547,0.586
						c-0.183,0.222-0.342,0.455-0.549,0.665c-0.22,0.21-0.473,0.43-0.762,0.571c-0.205,0.098-0.395,0.104-0.608,0.045
						c-0.308-0.084-0.578-0.269-0.775-0.498c-0.058-0.067-0.116-0.125-0.127-0.215c-0.01-0.067-0.021-0.146-0.019-0.226
						c-0.009-0.136,0.041-0.235,0.066-0.368c0.028-0.147,0.101-0.28,0.127-0.426c0.027-0.158,0.079-0.302,0.105-0.447
						c0.014-0.135-0.006-0.282,0.032-0.415c0.025-0.091,0.098-0.179,0.136-0.279c-0.037,0.066-0.098,0.133-0.111,0.188
						c-0.038,0.091-0.063,0.18-0.1,0.257c-0.038,0.089-0.051,0.169-0.088,0.257c-0.05,0.101-0.099,0.19-0.113,0.302
						c-0.015,0.101-0.004,0.203-0.019,0.304c-0.025,0.1-0.051,0.179-0.053,0.279c-0.001,0.034,0.022,0.102,0.021,0.125
						c-0.001,0.044-0.026,0.101-0.027,0.156c-0.002,0.101,0.02,0.203,0.029,0.315c-0.184-0.318-0.142-0.632-0.076-0.969
						c0.066-0.336,0.12-0.661,0.21-0.985c0.168-0.66,0.501-1.306,0.964-1.825c0.378-0.454,0.873-0.796,1.514-0.67
						c0.237,0.049,0.498,0.154,0.647,0.348c0.163,0.217,0.146,0.486,0.058,0.731c-0.164,0.436-0.564,0.776-0.939,1.063
						c-0.157,0.121-0.326,0.242-0.507,0.34c-0.121,0.065-0.252,0.107-0.384,0.151l-0.204,0.063c-0.084,0.02-0.096,0.009-0.133,0.075
						c-0.062,0.111-0.028,0.225-0.054,0.338c-0.026,0.146-0.065,0.278-0.104,0.425c-0.064,0.268-0.167,0.614-0.101,0.896
						c0.119,0.575,1.137-0.294,1.318-0.448c0.122-0.1,0.231-0.21,0.34-0.31c0.061-0.066,0.134-0.121,0.183-0.188
						c0,0,0.024-0.056,0.025-0.078c0.146-0.21,0.342-0.409,0.524-0.608c0.219-0.231,0.415-0.477,0.623-0.731
						c0.11-0.144,0.368-0.556,0.552-0.249v0.012c0.012,0.012,0.012,0.012,0.012,0C63.586,116.469,63.55,116.524,63.489,116.59z
						 M60.423,116.806c0.385-0.184,0.735-0.436,1.016-0.734l0.207-0.244c0.038-0.056,0.097-0.088,0.123-0.155
						c0.013-0.056-0.01-0.101,0.003-0.167l0.052-0.235c0.014-0.112-0.028-0.406-0.208-0.375c-0.083,0.02-0.169,0.12-0.218,0.176
						l-0.219,0.266c-0.258,0.345-0.396,0.724-0.582,1.08c0,0,0,0.011-0.013,0.033C60.523,116.561,60.485,116.685,60.423,116.806z"/>
				</g>
				<g clip-path="url(#SVGID_12_)">
					<path fill="#FFFFFF" d="M67.345,116.316l-0.344,0.478l-0.599,0.818c-0.153,0.211-0.346,0.41-0.502,0.621
						c-0.165,0.233-0.306,0.478-0.496,0.701c-0.202,0.224-0.439,0.461-0.717,0.62c-0.196,0.111-0.386,0.132-0.603,0.087
						c-0.313-0.063-0.597-0.229-0.812-0.442c-0.063-0.065-0.126-0.118-0.143-0.208c-0.015-0.066-0.031-0.145-0.036-0.223
						c-0.02-0.135,0.022-0.237,0.038-0.372c0.016-0.147,0.081-0.286,0.096-0.435c0.015-0.156,0.054-0.306,0.07-0.452
						c0.004-0.135-0.028-0.28,0-0.417c0.019-0.091,0.085-0.184,0.116-0.288c-0.032,0.07-0.088,0.141-0.097,0.197
						c-0.031,0.091-0.049,0.182-0.081,0.262c-0.032,0.093-0.038,0.172-0.069,0.263c-0.042,0.103-0.084,0.197-0.09,0.309
						c-0.006,0.103,0.012,0.203,0.006,0.303c-0.018,0.104-0.038,0.183-0.032,0.284c0.002,0.034,0.029,0.1,0.03,0.123
						c0.003,0.044-0.018,0.101-0.014,0.157c0.006,0.102,0.035,0.201,0.053,0.313c-0.208-0.305-0.19-0.62-0.149-0.96
						c0.04-0.341,0.069-0.668,0.135-0.997c0.117-0.67,0.402-1.337,0.824-1.888c0.342-0.479,0.81-0.851,1.458-0.771
						c0.241,0.033,0.508,0.121,0.674,0.304c0.178,0.206,0.181,0.475,0.111,0.726c-0.13,0.446-0.502,0.814-0.855,1.124
						c-0.146,0.132-0.306,0.264-0.479,0.374c-0.114,0.072-0.243,0.123-0.371,0.175l-0.198,0.078
						c-0.082,0.026-0.095,0.016-0.126,0.084c-0.053,0.116-0.012,0.227-0.03,0.34c-0.015,0.147-0.043,0.284-0.07,0.431
						c-0.045,0.272-0.121,0.626-0.034,0.902c0.163,0.565,1.113-0.371,1.282-0.537c0.112-0.106,0.214-0.224,0.315-0.33
						c0.055-0.07,0.124-0.131,0.167-0.2c0,0,0.021-0.058,0.02-0.079c0.131-0.222,0.31-0.432,0.477-0.643
						c0.2-0.247,0.377-0.504,0.565-0.771c0.099-0.151,0.325-0.578,0.531-0.286l0.001,0.011c0.013,0.012,0.013,0.012,0.013,0
						C67.432,116.189,67.399,116.246,67.345,116.316z M64.304,116.738c0.37-0.21,0.699-0.485,0.955-0.802l0.189-0.257
						c0.032-0.059,0.09-0.095,0.109-0.163c0.009-0.057-0.017-0.1-0.009-0.169l0.034-0.237c0.006-0.114-0.059-0.402-0.234-0.36
						c-0.082,0.027-0.161,0.132-0.204,0.191l-0.199,0.279c-0.23,0.36-0.339,0.749-0.498,1.117c0,0,0.001,0.011-0.01,0.033
						C64.385,116.487,64.355,116.611,64.304,116.738z"/>
				</g>
			</g>
			<g clip-path="url(#SVGID_10_)">
				<path fill="#FFFFFF" d="M74.162,115.299c-0.169,0.058-0.229,0.124-0.396,0.19c-0.374,0.127-0.767,0.227-1.124,0.375
					c-0.292,0.111-0.644,0.109-0.936,0.222c-0.238,0.079-0.495,0.186-0.766,0.169c-0.322-0.031-0.565-0.374-0.568-0.672
					c0.005-0.209,0.158-0.168,0.332-0.212c0.663-0.138,1.297-0.35,1.987-0.423c0.365-0.048,0.737-0.071,1.104-0.061
					c0.109,0.002,0.746,0.02,0.775,0.106C74.63,115.153,74.278,115.267,74.162,115.299z M72.71,115.15
					c-0.517,0.201-1.106,0.107-1.617,0.329c0.227-0.077,0.53-0.077,0.764-0.122C72.139,115.316,72.434,115.272,72.71,115.15z"/>
			</g>
			<g clip-path="url(#SVGID_10_)">
				<path fill="#FFFFFF" d="M88.853,114.718c0.119,0.146-0.094,0.563-0.16,0.701c-0.119,0.22-0.292,0.413-0.498,0.557
					c-0.424,0.32-0.861,0.302-1.336,0.055c-0.987-0.518-1.298-1.48-1.43-2.453c0,0-0.083-0.212-0.054-0.26
					c0.005,0.009,0.036,0.107,0.043,0.152l-0.029-0.208c0.005,0.01-0.007,0.015-0.018,0.021c-0.089-0.111-0.071-0.412-0.078-0.544
					l0.003-0.613c0.008-0.357-0.004-0.695-0.025-1.055c-0.035-0.389,0.017-0.79,0.033-1.175c0.011-0.064,0.014-0.655,0.062-0.661
					c0,0,0.014,0.14,0.028,0.147c-0.004-0.208-0.018-0.409-0.036-0.621l-0.011,0.175c-0.071-0.131,0.023-0.573-0.229-0.531
					c-0.206,0.034-0.356,0.413-0.43,0.565c-0.3,0.624-0.456,1.274-0.603,1.946c-0.074,0.323-0.124,0.638-0.255,0.948
					c-0.086,0.182-0.07,0.444-0.115,0.658c-0.061,0.38-0.098,0.748-0.152,1.114c-0.033,0.271-0.124,0.553-0.104,0.825
					c0.022,0.334,0.02,0.641-0.456,0.479c-0.463-0.166-0.644-0.559-0.734-0.987c-0.292-1.263-0.153-2.666,0.019-3.936
					c0.076-0.545,0.095-1.127,0.064-1.678c-0.005-0.097,0.013-0.285-0.089-0.282c-0.128,0.003-0.302,0.307-0.354,0.39
					c-0.342,0.555-0.509,1.186-0.68,1.805c-0.166,0.632-0.29,1.27-0.409,1.917c-0.132,0.676-0.237,1.355-0.343,2.036
					c-0.046,0.325-0.118,0.647-0.102,0.97c-0.003,0.309,0.022,0.617,0.035,0.93c0.009,0.19,0.072,0.471,0.028,0.661
					c-0.058,0.243-0.346,0.349-0.598,0.279c-0.22-0.058-0.354-0.235-0.432-0.437c-0.227-0.58-0.242-1.297-0.248-1.906
					c-0.005-0.609,0.01-1.203-0.022-1.813c-0.074-1.244,0.066-2.525-0.125-3.767l0.048,0.101l-0.109-0.408
					c-0.069-0.266-0.192-0.508-0.487-0.303c-0.212,0.159-0.333,0.405-0.419,0.646c-0.214,0.554-0.278,1.18-0.245,1.765
					c0.005,0.121,0.046,0.299,0.063,0.366c0.026,0.087,0.093,0.146,0.048,0.249c-0.084,0.155-0.263,0.132-0.401,0.053
					c-0.288-0.176-0.444-0.577-0.497-0.888c-0.035-0.278,0.07-0.529,0.076-0.8c0-0.087-0.049-0.164-0.021-0.273l0.044-0.188
					c0.064-0.173,0.132-0.336,0.213-0.502c0.161-0.299,0.368-0.556,0.645-0.776c0.302-0.246,0.675-0.422,1.075-0.255
					c0.255,0.104,0.5,0.384,0.658,0.59c0.222,0.289,0.296,0.736,0.334,1.075c0.038,0.34,0.081,0.688,0.107,1.033
					c0.034,0.328,0.042,0.656,0.064,0.989c0.016,0.264,0.07,0.498,0.098,0.756c0.188-1.067,0.404-2.184,0.803-3.213
					c0.195-0.509,0.514-2.058,1.431-1.609c0.42,0.208,0.739,0.652,0.749,1.102c0.007,0.413-0.125,0.834-0.134,1.242
					c-0.007,1.092-0.1,2.194,0.034,3.289c0.104-0.8,0.216-1.605,0.398-2.4c-0.045,0.188-0.11,0.387-0.139,0.582
					c0.066-0.369,0.127-0.689,0.148-0.757c0.156-0.652,0.339-1.301,0.645-1.914c0.158-0.335,0.385-0.745,0.769-0.9
					c0.442-0.192,0.902,0.074,1.153,0.426c0.584,0.825,0.319,1.925,0.282,2.833c0.001-0.05,0.021-0.094,0.043-0.103
					c0.011-0.004,0.032,0.781,0.028,0.857c0,0.342,0.011,0.68,0.007,1.012c0.017,0.631,0.035,1.271,0.158,1.882
					c0.058,0.295,0.144,0.798,0.537,0.835c0.376,0.029,0.856-0.227,1.115-0.454C88.431,114.987,88.745,114.565,88.853,114.718z
					 M79.253,112.94c-0.015-0.543-0.015-1.083,0.014-1.619c0.028-0.563-0.029-1.114-0.119-1.652c0.021,0.187,0.02,0.383,0.02,0.555
					c0.003,0.402,0.047,0.812,0.05,1.216C79.212,111.942,79.23,112.437,79.253,112.94z M83.222,112.662c0,0,0.104-0.568,0.191-1.117
					C83.372,111.855,83.261,112.66,83.222,112.662z M83.42,111.505l-0.007,0.04C83.419,111.53,83.425,111.515,83.42,111.505z
					 M83.44,111.436l-0.004-0.011l-0.017,0.08L83.44,111.436z M83.921,109.588l0.002-0.023l0.006-0.016
					c0.004,0.011-0.006,0.016-0.006,0.016l0.006-0.016l0.012-0.028l0.006-0.017l0.008-0.039l-0.012,0.028
					c-0.007,0.016-0.025,0.061-0.027,0.11l-0.006-0.011l-0.008,0.04L83.921,109.588z M83.942,109.493l-0.007,0.016
					C83.946,109.504,83.942,109.493,83.942,109.493z M83.954,109.465l0.221-0.568C84.091,109.079,84.021,109.268,83.954,109.465z
					 M85.563,113.729c-0.032-0.354-0.032-0.721-0.025-1.078c0.014-0.422,0.044-0.925-0.049-1.326
					c0.005-0.076-0.008-0.107-0.046-0.104c-0.054,0.169,0.03,0.465,0.035,0.646c0.003,0.231,0.003,0.464-0.01,0.689
					C85.449,112.969,85.517,113.345,85.563,113.729z M85.593,114.023c-0.013,0.055-0.006,0.075,0.033,0.072
					C85.629,114.045,85.619,114.025,85.593,114.023z"/>
			</g>
			<g clip-path="url(#SVGID_10_)">
				<path fill="#FFFFFF" d="M91.546,108.008l-0.064,0.575l-0.122,0.987c-0.032,0.253-0.103,0.516-0.135,0.771
					c-0.031,0.28-0.034,0.558-0.091,0.839c-0.068,0.287-0.16,0.601-0.325,0.864c-0.117,0.187-0.275,0.288-0.489,0.343
					c-0.309,0.084-0.642,0.063-0.937-0.031c-0.089-0.029-0.17-0.048-0.229-0.119c-0.046-0.053-0.101-0.114-0.144-0.182
					c-0.083-0.11-0.097-0.219-0.15-0.348c-0.06-0.135-0.071-0.286-0.132-0.423c-0.065-0.146-0.103-0.296-0.164-0.431
					c-0.063-0.122-0.162-0.236-0.205-0.369c-0.028-0.089-0.018-0.199-0.041-0.305c0.006,0.076-0.008,0.163,0.013,0.216
					c0.018,0.095,0.046,0.183,0.06,0.269c0.018,0.094,0.051,0.168,0.069,0.262c0.014,0.109,0.022,0.211,0.073,0.313
					c0.045,0.093,0.11,0.173,0.155,0.266c0.035,0.099,0.058,0.178,0.112,0.264c0.02,0.029,0.075,0.075,0.088,0.094
					c0.024,0.039,0.035,0.099,0.065,0.148c0.056,0.086,0.131,0.16,0.202,0.252c-0.334-0.177-0.475-0.465-0.608-0.783
					c-0.134-0.317-0.271-0.619-0.376-0.938c-0.229-0.645-0.31-1.361-0.21-2.032c0.065-0.575,0.294-1.11,0.906-1.327
					c0.229-0.076,0.508-0.118,0.745-0.028c0.259,0.101,0.396,0.338,0.46,0.59c0.106,0.451-0.04,0.941-0.196,1.371
					c-0.065,0.182-0.142,0.368-0.241,0.541c-0.064,0.116-0.151,0.219-0.239,0.321l-0.137,0.156c-0.059,0.06-0.076,0.055-0.069,0.13
					c0.011,0.126,0.102,0.205,0.143,0.313c0.06,0.137,0.104,0.271,0.151,0.412c0.096,0.261,0.205,0.605,0.419,0.813
					c0.425,0.428,0.798-0.819,0.864-1.043c0.049-0.144,0.078-0.293,0.115-0.431c0.014-0.087,0.045-0.169,0.048-0.25
					c0,0-0.009-0.061-0.021-0.079c0.007-0.253,0.059-0.519,0.103-0.778c0.054-0.308,0.083-0.611,0.115-0.932
					c0.013-0.178,0-0.656,0.328-0.489l0.007,0.011c0.017,0.005,0.017,0.005,0.01-0.006
					C91.562,107.856,91.562,107.922,91.546,108.008z M89.071,109.727c0.222-0.349,0.377-0.738,0.446-1.131l0.038-0.311
					c0.001-0.065,0.033-0.124,0.016-0.194c-0.02-0.052-0.064-0.08-0.092-0.145l-0.087-0.225c-0.052-0.103-0.251-0.329-0.386-0.213
					c-0.06,0.06-0.076,0.188-0.087,0.257l-0.035,0.337c-0.025,0.42,0.07,0.811,0.114,1.205c0,0,0.006,0.01,0.009,0.035
					C89.017,109.469,89.054,109.593,89.071,109.727z"/>
			</g>
			<g clip-path="url(#SVGID_10_)">
				<path fill="#FFFFFF" d="M95.539,105.678c0.031,0.312,0.001,0.638-0.037,0.953c-0.064,0.474-0.115,1.215-0.549,1.552
					c-0.198,0.162-0.497,0.212-0.752,0.108c-0.468-0.208-0.589-0.791-0.707-1.196c-0.035,0.454-0.062,0.9-0.08,1.357
					c-0.005,0.129-0.204,1.33-0.391,1.277c-0.007-0.01,0.051-0.105,0.035-0.108c-0.055,0.121-0.126,0.238-0.232,0.311
					c0.016,0.002,0.036-0.011,0.055-0.023c0.068,0.051-0.288,0.141-0.331,0.143c-0.176-0.021-0.336-0.133-0.462-0.241
					c-0.271-0.258-0.446-0.584-0.583-0.918c-0.146-0.345-0.284-0.681-0.364-1.056c-0.044-0.19,0.017-0.342-0.014-0.517
					c-0.068-0.3-0.154-0.685-0.068-0.992c0.063-0.264,0.393-0.447,0.665-0.438c0.271,0.011,0.224,0.14,0.243,0.319
					c-0.001-0.041,0.004-0.071,0.017-0.093c0.02-0.015,0.128,0.592,0.073,0.614c0,0-0.041-0.11-0.054-0.185
					c0.034,0.295,0.086,0.592,0.146,0.884c-0.002-0.042,0.011-0.063,0.029-0.077c-0.025,0.005,0.273,1.09,0.301,1.183
					c0.065,0.164,0.196,0.683,0.395,0.424c0.225-0.265,0.219-0.813,0.246-1.123c0.043-0.403,0.036-0.799,0.029-1.21
					c-0.017-0.446-0.149-1.118,0.441-1.327c0.526-0.177,0.531,0.485,0.591,0.834c0.006-0.032,0.004-0.072,0.02-0.07
					c0.107,0.023,0.179,0.502,0.22,0.612c0.072,0.214,0.149,0.467,0.286,0.664c0.156,0.227,0.176,0.115,0.247-0.099
					c0.142-0.469,0.175-0.963,0.239-1.436c0.005-0.032,0.081-0.817,0.242-0.664C95.528,105.242,95.526,105.548,95.539,105.678z
					 M92.286,108.013c0.082,0.319,0.158,0.822,0.418,1.048C92.622,108.991,92.424,108.461,92.286,108.013z M93.505,107.033
					c-0.015,0.038-0.003,0.071,0.024,0.108C93.519,107.107,93.507,107.072,93.505,107.033z M93.909,105.581
					c0.078,0.295,0.01,0.783,0.261,0.96c0.008,0.008,0.015,0.018,0.012,0.033c0.003-0.016,0.007-0.032-0.001-0.041
					c-0.007-0.065-0.052-0.146-0.075-0.214C94.028,106.083,93.985,105.836,93.909,105.581z"/>
			</g>
			<g clip-path="url(#SVGID_10_)">
				<path fill="#FFFFFF" d="M99.609,101.94l-0.029,0.069c-0.025,0.007-0.043,0.021-0.037,0.046c0.051,0.003,0.066,0.021,0.072,0.061
					c0.011,0.216-0.154,0.412-0.169,0.618c-0.007,0.112,0.016,0.152,0.007,0.278c-0.003,0.049-0.047,0.086-0.059,0.126
					c-0.033,0.101-0.061,0.258-0.058,0.362c0.004,0.294-0.01,0.62,0.037,0.941c0.069,0.569,0.146,2.063-0.856,1.906
					c-0.56-0.089-0.228-0.499-0.205-0.815c0.017-0.254-0.017-0.511,0.01-0.772c0.013-0.055-0.015-0.406-0.026-0.471l-0.014-0.065
					c0.001,0.104-0.07-0.076-0.078-0.084c-0.045-0.082-0.055-0.21-0.08-0.308c-0.04-0.161-0.088-0.331-0.188-0.474
					c-0.07-0.092-0.216-0.283-0.356-0.213c-0.036,0.03-0.256,0.407-0.256,0.407c-0.017-0.001,0.013-0.071-0.012-0.08
					c-0.023,0.095-0.037,0.164-0.042,0.26c0.001-0.016,0.01-0.022,0.019-0.03c-0.04,0.094,0.055,1.301,0.073,1.406
					c0.05,0.258,0.15,0.519,0.149,0.773c-0.011,0.038-0.021,0.062-0.046,0.069c-0.014,0.055,0.009,0.096,0.058,0.13
					c0.028,0.098,0.055,0.195,0.092,0.284c0.059,0.219,0.236,0.478,0.272,0.687c0.05,0.257-0.201,0.378-0.449,0.402
					c-0.128,0.016-0.262-0.007-0.376-0.047c0,0-0.172-0.082-0.162-0.09c-0.05-0.019-0.092-0.029-0.14-0.064
					c0.057,0.044,0.088,0.078,0.08,0.069c-0.217,0.074-0.695-0.592-0.788-0.709c-0.38-0.478-0.699-0.99-0.992-1.525
					c-0.513-0.892-0.93-1.848-1.285-2.809c-0.307-0.839-0.618-1.687-0.813-2.559c-0.127-0.492-0.22-1.001-0.244-1.504
					c-0.013-0.423-0.009-0.996,0.375-1.3c0.755-0.566,1.652,0.396,1.993,0.966c0,0,0.175,0.169,0.161,0.24
					c0.001-0.016-0.131-0.191-0.131-0.191l0.136,0.248c0.001-0.017,0.01-0.024,0.025-0.021c0.138,0.095,0.21,0.41,0.259,0.547
					c0.063,0.204,0.117,0.397,0.152,0.607c0.087,0.348,0.138,0.709,0.215,1.064c0.083,0.395,0.09,0.793,0.072,1.183
					c0.002,0.088-0.035,1.001-0.137,1.011c0,0,0.011-0.158,0.003-0.167c-0.03,0.189-0.053,0.388-0.09,0.585
					c0.02-0.047,0.03-0.087,0.03-0.087c0.043,0.234-0.218,0.48-0.165,0.707c0.057,0.282,0.32,0.617,0.472,0.865
					c0.31,0.537,0.646,1.065,0.998,1.581l-0.021-0.057l0.09,0.165c-0.108-0.389-0.156-0.799-0.18-1.197
					c-0.003,0.165-0.008,0.364,0.004,0.564c-0.05-0.393-0.073-0.793-0.063-1.19c0.015-0.46,0.011-1.026,0.219-1.467
					c0.077-0.155,0.171-0.293,0.345-0.362c0.442-0.188,0.81,0.12,1.08,0.376c-0.024-0.025-0.048-0.051-0.054-0.091
					c0.012-0.039,0.436,0.417,0.467,0.467c0.108-0.36,0.215-0.704,0.283-1.074c0.037-0.165-0.015-0.527,0.227-0.472l0.009-0.007
					l0.009,0.007C99.632,101.759,99.602,101.845,99.609,101.94z M94.022,102.613c-0.311-0.774-0.584-1.581-0.756-2.411
					c-0.115-0.548-0.23-1.081-0.285-1.633c-0.041-0.402-0.07-0.842,0.147-1.201c-0.227,0.367-0.234,0.854-0.2,1.229
					c0.037,0.566,0.145,1.091,0.285,1.634C93.419,101.047,93.704,101.845,94.022,102.613z M93.469,97.339
					c0.012-0.038,0.058-0.107,0.083-0.098c-0.041-0.011-0.043,0.65-0.039,0.826l-0.071-0.3c0.026,0.472,0.155,0.918,0.296,1.356
					c-0.007-0.041-0.005-0.072,0.006-0.096c-0.018,0.119,0.66,1.832,0.715,1.994c0.259,0.669,0.544,1.331,0.854,1.972
					c0.119-0.639,0.205-1.278,0.173-1.925c-0.025-0.503-0.072-1.048-0.107-1.527c-0.017-0.24-0.197-0.569-0.3-0.8
					c-0.123-0.301-0.288-0.598-0.498-0.857c-0.133-0.158-0.758-0.897-1.044-0.661C93.5,97.254,93.474,97.292,93.469,97.339z
					 M94.096,100.173c0.17,0.472,0.357,0.945,0.544,1.419L94.096,100.173z M95.122,102.688l-0.096-0.188l0.205,0.44l0.008,0.009
					c-0.001,0.016,0.008,0.024,0.016,0.033c0.014,0.017,0.014,0.033,0.021,0.041l0.007,0.023l0.016,0.018
					C95.313,102.979,95.167,102.77,95.122,102.688z M95.284,103.032l-0.001,0.015l0.016,0.018
					C95.291,103.057,95.292,103.04,95.284,103.032z M96.95,104.462c0,0,0.009-0.006,0.001-0.016L96.95,104.462z M96.979,105.531
					l0.087,0.452C97.018,105.844,96.994,105.684,96.979,105.531z M98.019,103.261c0.189,0.323,0.306,0.84,0.321,0.991
					c0.037,0.33,0.065,0.649,0.086,0.978c0.001,0.222,0.029,0.424-0.023,0.587c0.113-0.304,0.109-0.734,0.08-1.053
					C98.405,104.273,98.31,103.692,98.019,103.261z"/>
			</g>
			<g clip-path="url(#SVGID_10_)">
				<path fill="#FFFFFF" d="M102.211,99.1l0.098,0.571l0.158,0.981c0.041,0.254,0.048,0.523,0.087,0.778
					c0.049,0.276,0.123,0.545,0.147,0.83c0.015,0.294,0.014,0.619-0.071,0.917c-0.063,0.208-0.186,0.345-0.376,0.453
					c-0.275,0.156-0.602,0.218-0.913,0.202c-0.092-0.006-0.177-0.004-0.254-0.058c-0.061-0.039-0.128-0.086-0.189-0.14
					c-0.111-0.085-0.155-0.188-0.242-0.297c-0.097-0.116-0.15-0.26-0.245-0.377c-0.104-0.124-0.184-0.258-0.279-0.375
					c-0.096-0.102-0.224-0.186-0.302-0.303c-0.052-0.079-0.071-0.19-0.126-0.284c0.028,0.071,0.039,0.158,0.074,0.205
					c0.044,0.086,0.096,0.164,0.131,0.244c0.046,0.086,0.098,0.148,0.142,0.235c0.044,0.102,0.08,0.196,0.158,0.282
					c0.068,0.078,0.155,0.14,0.224,0.218c0.062,0.087,0.105,0.157,0.183,0.227c0.024,0.024,0.094,0.054,0.111,0.069
					c0.035,0.031,0.061,0.086,0.104,0.125c0.077,0.07,0.171,0.123,0.265,0.193c-0.372-0.087-0.589-0.329-0.807-0.604
					c-0.217-0.272-0.433-0.53-0.624-0.813c-0.402-0.564-0.679-1.233-0.772-1.908c-0.098-0.57-0.027-1.144,0.504-1.505
					c0.199-0.132,0.457-0.24,0.71-0.214c0.278,0.033,0.477,0.229,0.609,0.457c0.229,0.408,0.223,0.917,0.193,1.371
					c-0.012,0.19-0.034,0.389-0.078,0.581c-0.031,0.127-0.087,0.249-0.143,0.369l-0.089,0.184c-0.04,0.073-0.058,0.073-0.03,0.144
					c0.045,0.119,0.156,0.172,0.226,0.266c0.096,0.117,0.173,0.236,0.262,0.36c0.165,0.228,0.366,0.533,0.631,0.679
					c0.529,0.306,0.54-0.99,0.543-1.222c0.004-0.149-0.008-0.3-0.011-0.443c-0.011-0.087-0.004-0.175-0.023-0.254
					c0,0-0.027-0.056-0.044-0.071c-0.064-0.244-0.088-0.515-0.119-0.776c-0.034-0.31-0.092-0.61-0.149-0.927
					c-0.038-0.174-0.184-0.632,0.181-0.553l0.008,0.008c0.018,0,0.018,0,0.009-0.009C102.183,98.95,102.2,99.014,102.211,99.1z
					 M100.305,101.375c0.115-0.393,0.157-0.807,0.113-1.203l-0.049-0.309c-0.02-0.063-0.004-0.127-0.04-0.19
					c-0.034-0.047-0.084-0.063-0.129-0.116l-0.146-0.195c-0.079-0.086-0.335-0.255-0.433-0.11c-0.041,0.073-0.021,0.199-0.011,0.271
					l0.059,0.332c0.095,0.411,0.296,0.765,0.449,1.135c0,0,0.008,0.008,0.017,0.032C100.181,101.14,100.25,101.249,100.305,101.375z
					"/>
			</g>
			<g clip-path="url(#SVGID_10_)">
				<path fill="#FFFFFF" d="M104.959,95.892c0.157,0.208,0.244,0.463,0.339,0.71c0.216,0.604,0.49,1.191,0.684,1.82
					c0.208,0.683,0.403,1.399,0.471,2.12c0.048,0.603-0.091,1.278-0.842,1.381c-0.676,0.088-1.321-0.409-1.788-0.813
					c-0.485-0.433-0.871-0.946-1.271-1.444c-0.011-0.023-0.239-0.185-0.266-0.278c0.011,0.023,0.074,0.073,0.122,0.123
					c-0.049-0.066-0.099-0.134-0.141-0.21l-0.022,0.027c-0.207-0.115-0.388-0.459-0.517-0.646c-0.159-0.225-0.321-0.465-0.473-0.697
					c-0.283-0.437-0.55-0.875-0.841-1.304c-0.298-0.418-0.525-0.884-0.743-1.343c-0.107-0.212-0.208-0.435-0.3-0.665
					c-0.024-0.063-0.255-0.559-0.207-0.596l0.096,0.19l-0.266-0.67l0.001,0.016c-0.036-0.1-0.121-0.269-0.138-0.354l-0.112-0.421
					c-0.052-0.243-0.146-0.562-0.036-0.811c0.201-0.483,0.897-0.47,1.302-0.244l0.017-0.002l0.047,0.036
					c0.606,0.381,0.999,1.206,1.275,1.812c0.175,0.367,0.406,0.793,0.457,1.194c0.048,0.283,0.164,0.504,0.271,0.788
					c0.276,0.766,0.529,1.556,0.706,2.346c0.046,0.196,0.076,0.319,0.204,0.492c0.132,0.188,0.27,0.366,0.416,0.552
					c0.139,0.194,0.284,0.38,0.433,0.566c0.067,0.081,0.258,0.358,0.283,0.364c0.088,0.111,0.193,0.221,0.297,0.315l-0.217-0.283
					c0.111,0.014,0.328,0.297,0.403,0.369c0.123,0.123,0.263,0.245,0.41,0.36c0.176,0.135,0.571,0.441,0.797,0.252
					c0.293-0.269,0.095-0.943,0.028-1.241c-0.143-0.706-0.393-1.392-0.635-2.072c-0.123-0.356-0.253-0.703-0.392-1.057
					c-0.084-0.224-0.247-0.479-0.279-0.709C104.487,95.497,104.843,95.744,104.959,95.892z M99.761,94.899
					c0.002,0.016,0.02,0.029,0.029,0.037c-0.204-0.476-0.357-0.972-0.587-1.454c0.09,0.215,0.103,0.486,0.203,0.708
					C99.515,94.435,99.625,94.664,99.761,94.899z M102.093,97.177c-0.54-1.489-1.06-3.109-1.956-4.455
					c0.314,0.49,0.551,1.034,0.783,1.548c0.125,0.301,0.258,0.591,0.374,0.899c0.071,0.184,0.148,0.505,0.25,0.671
					c-0.179-0.255-0.275-0.677-0.391-0.969l-0.403-0.921c-0.262-0.55-0.533-1.283-1.035-1.698l-0.009-0.008
					c-0.474-0.394-0.261,0.425-0.212,0.563c0.205,0.563,0.505,1.086,0.797,1.602C100.833,95.364,101.5,96.3,102.093,97.177z
					 M102.712,99.5c-0.03,0.033,0.125,0.227,0.315,0.417l-0.01-0.008c0.27,0.31,0.58,0.608,0.897,0.881l-0.271-0.253l0.027,0.021
					c-0.065-0.05-0.105-0.11-0.162-0.168c-0.231-0.267-0.573-0.545-0.741-0.849c0,0-0.01-0.008-0.021-0.031
					C102.745,99.495,102.718,99.475,102.712,99.5z"/>
			</g>
			<g clip-path="url(#SVGID_10_)">
				<path fill="#FFFFFF" d="M107.16,92.618c0.34,0.168,0.256,0.796,0.259,1.087c0.01,0.401,0.009,0.797-0.042,1.202
					c-0.016,0.099-0.059,0.235-0.053,0.348c0.013,0.159,0.017,0.135,0.187,0.219c0.197,0.088,0.387,0.184,0.573,0.305
					c0.28,0.171,0.533,0.378,0.729,0.643c0.444,0.619,0.509,1.319,0.021,1.944c-0.422,0.556-1.177,0.952-1.734,0.409
					c0.013,0.021,0.159,0.158,0.143,0.161c-0.089,0.039-0.255-0.166-0.29-0.217c-0.281-0.348-0.347-0.829-0.368-1.254
					c-0.014-0.24-0.023-0.48-0.017-0.708c0.011-0.171,0.095-0.525-0.028-0.633c-0.116-0.117-0.497-0.189-0.672-0.248
					c-0.212-0.085-0.456-0.148-0.665-0.259c-0.134-0.073-0.186-0.162-0.323-0.211c-0.19-0.057-0.371-0.106-0.544-0.206
					s-0.34-0.208-0.456-0.365c-0.18-0.229-0.358-1.069,0.069-1.16c-0.049-0.031,0.225-0.029,0.291-0.001
					c0.039,0.026,0.374,0.3,0.323,0.349c0,0-0.074-0.075-0.137-0.13c0.103,0.137,0.176,0.293,0.317,0.398
					c0.113,0.103,0.279,0.171,0.411,0.229c-0.021-0.013-0.04-0.024-0.036-0.051c-0.007,0.009,0.576,0.24,1.05,0.427
					c-0.313-0.108-0.686-0.23-0.899-0.314c0.484,0.208,0.973,0.391,1.462,0.573c-0.004-0.017-0.017-0.038-0.071-0.061
					c0.035,0.01,0.062,0.014,0.072,0.021c0.082-0.549,0.155-1.063,0.18-1.606c0.004-0.243-0.063-0.547-0.021-0.78
					c0.028-0.118,0.102-0.179,0.26-0.117L107.16,92.618z M106.316,94.951c0.127,0.042,0.239,0.088,0.313,0.123
					C106.558,95.055,106.437,95.004,106.316,94.951z M108.063,98.134l0.083-0.331c0.016-0.002,0.015,0.12,0.024,0.127
					c0.012-0.156-0.008-0.307-0.055-0.46l0.005,0.072c-0.023-0.125-0.286-0.558-0.319-0.592c-0.186-0.22-0.421-0.372-0.662-0.517
					c0.005,0.031-0.005,0.065-0.009,0.09l-0.012-0.104l-0.012,0.156c0.02-0.068,0.038,0.203,0.038,0.243l-0.009,0.405
					c0.002,0.275-0.001,0.574,0.093,0.84c0.067,0.168,0.292,0.67,0.546,0.481C107.919,98.448,107.998,98.281,108.063,98.134z
					 M107.682,95.598c0.018,0.014,0.038,0.025,0.055,0.022C107.727,95.614,107.699,95.611,107.682,95.598z M108.761,96.77
					c0.203,0.531,0.094,1.155-0.21,1.628c0.174-0.257,0.294-0.519,0.362-0.829C108.972,97.251,108.9,97.012,108.761,96.77z"/>
			</g>
			<g clip-path="url(#SVGID_10_)">
				<path fill="#FFFFFF" d="M110.526,87.045c-0.057,0.161-0.036,0.247-0.082,0.412c-0.121,0.357-0.279,0.71-0.373,1.067
					c-0.084,0.287-0.302,0.549-0.385,0.837c-0.079,0.226-0.147,0.482-0.327,0.674c-0.223,0.222-0.659,0.194-0.91,0.015
					c-0.17-0.131-0.043-0.222,0.024-0.377c0.291-0.581,0.5-1.184,0.86-1.742c0.184-0.304,0.391-0.597,0.624-0.863
					c0.068-0.081,0.471-0.546,0.561-0.514C110.69,86.607,110.57,86.939,110.526,87.045z M109.516,88.039
					c-0.147,0.508-0.587,0.893-0.713,1.411c0.073-0.217,0.258-0.444,0.364-0.646C109.305,88.568,109.446,88.321,109.516,88.039z"/>
			</g>
			<g clip-path="url(#SVGID_10_)">
				<path fill="#FFFFFF" d="M43.258,18.91c-0.169,0.083-0.219,0.165-0.383,0.261c-0.37,0.192-0.764,0.354-1.113,0.566
					c-0.286,0.163-0.656,0.215-0.942,0.38c-0.235,0.119-0.487,0.271-0.774,0.293c-0.343,0.019-0.658-0.305-0.712-0.617
					c-0.032-0.218,0.137-0.199,0.31-0.273c0.672-0.247,1.301-0.567,2.01-0.751c0.376-0.105,0.762-0.188,1.147-0.234
					c0.116-0.015,0.785-0.096,0.832-0.01C43.722,18.684,43.373,18.857,43.258,18.91z M41.709,18.978
					c-0.506,0.292-1.142,0.284-1.639,0.597c0.224-0.117,0.542-0.163,0.779-0.245C41.138,19.241,41.439,19.148,41.709,18.978z"/>
			</g>
			<g clip-path="url(#SVGID_10_)">
				<path fill="#FFFFFF" d="M49.028,15.629c0.225,0.761,0.198,1.547,0.26,2.28c0.005-0.037,0.009-0.075,0.029-0.103
					c0.044-0.034,0.063,0.219,0.065,0.23c0.188-0.649,0.501-1.261,0.69-1.91c0.288-0.95,0.782-1.844,1.225-2.74
					c0.385-0.75,0.773-1.488,1.26-2.186c0.213-0.312,0.489-0.576,0.721-0.867c0.061-0.074,0.016-0.102,0.119-0.158
					c0.185-0.098,0.488,0.096,0.584,0.235c0.256,0.388-0.552,0.699-0.723,0.917c-0.08,0.102-0.071,0.197-0.149,0.31
					c-0.074,0.126-0.192,0.235-0.279,0.363c-0.206,0.286-0.428,0.563-0.604,0.867c-0.614,1.053-1.121,2.12-1.591,3.23
					c-0.101,0.24-0.251,0.49-0.309,0.746c-0.036,0.129-0.048,0.303-0.092,0.446c-0.233,0.683-0.493,1.358-0.696,2.059
					c-0.136,0.48-0.083,1.055-0.304,1.503c-0.132,0.271-1.16,0.699-1.259,0.207c-0.036-0.163,0.085-0.42,0.113-0.585
					c0.044-0.375,0.023-0.75,0.003-1.124c-0.027-0.349-0.073-0.718-0.048-1.065c0.01-0.124,0.032-0.203,0.018-0.321
					c0,0-0.074-0.267-0.052-0.284c0.003,0.012,0.018,0.021,0.021,0.033c-0.006-0.023,0.002-0.048-0.006-0.083
					c-0.013,0.112-0.081-0.131-0.083-0.142c-0.037-0.104-0.036-0.213-0.061-0.319c-0.031-0.25-0.059-0.488-0.14-0.728
					c-0.042-0.126-0.373-1.183-0.254-1.23c0.021-0.017,0.031,0.078,0.055,0.074c-0.036-0.103-0.063-0.22-0.086-0.324
					c-0.007,0.025-0.001,0.049-0.012,0.063c0.004-0.038-0.416-1.259-0.449-1.35c-0.066-0.23-0.167-0.442-0.254-0.656
					c-0.051-0.113-0.105-0.235-0.144-0.35c-0.034-0.091-0.018-0.192-0.034-0.262c-0.019-0.082-0.094-0.128-0.093-0.238
					c-0.005-0.195,0.194-0.394,0.319-0.529c0.168-0.168,0.381-0.371,0.625-0.432c0.192-0.063,0.213,0.03,0.28,0.151
					c-0.003-0.012,0.004-0.038,0.011-0.063c0.035-0.019,0.245,0.451,0.198,0.473c-0.021,0.017-0.044-0.028-0.068-0.072
					c0.152,0.385,0.295,0.784,0.41,1.175c-0.088-0.325-0.163-0.602-0.163-0.602s0.115,0.392,0.256,0.9l0.029,0.128l-0.003-0.011
					l0.006,0.023l-0.003-0.012l0.006,0.024l-0.003-0.012c0.005,0.023,0.018,0.021,0.022,0.044c-0.002-0.011-0.017-0.021-0.02-0.032
					c0.005,0.023,0.007,0.034,0.025,0.055c0.016,0.07,0.032,0.14,0.06,0.208c0,0-0.012,0.002-0.015-0.01l0.208,0.74
					c-0.003-0.011-0.021-0.032-0.023-0.044c0.002,0.012,0.021,0.033,0.023,0.044L49.028,15.629z M48.248,17.144
					c-0.077-0.51-0.211-1.044-0.341-1.555c0.244,1.013,0.385,2.034,0.469,3.081c0.03,0.421,0.037,0.848,0.044,1.273
					c-0.001,0.111-0.014,0.223-0.02,0.31c0.039-0.228,0.062-0.464,0.068-0.722c0.012-0.797-0.111-1.565-0.212-2.352L48.248,17.144z"
					/>
			</g>
			<g clip-path="url(#SVGID_10_)">
				<path fill="#FFFFFF" d="M54.748,16.791c-0.165,0.326-0.318,0.638-0.51,0.956c-0.198,0.354-0.429,0.906-0.851,1.064
					c-0.098,0.026-0.591-0.023-0.591-0.097l0.025-0.003c-0.108-0.033,0.009,0.06-0.158-0.026c-0.125-0.055-0.216-0.149-0.308-0.246
					c-0.167-0.157-0.366-0.286-0.45-0.49c-0.022-0.058-0.116-0.479-0.016-0.493c0.024-0.003,0.009,0.059,0.021,0.057l0.003-0.218
					c-0.008,0.026-0.007,0.038-0.03,0.052c-0.051-0.004,0.05-0.876,0.064-0.951c0.06-0.262,0.064-0.552,0.291-0.731
					c0.168-0.144,0.41-0.155,0.662-0.095c0.105,0.021,0.413,0.099,0.431,0.217c0.012,0.07-0.048,0.091-0.08,0.132
					c0.01-0.015,0.035-0.018,0.047-0.02c0.042,0.019-0.106,0.293-0.132,0.286c-0.025,0.003,0.002-0.062,0.009-0.099
					c-0.178,0.4-0.311,0.843-0.394,1.277c0.038-0.163,0.243-0.869,0.282-0.862c0.04,0.005-0.593,1.547-0.137,1.686
					c0.216,0.066,0.505-0.277,0.626-0.403c0.208-0.212,0.497-0.482,0.639-0.708c-0.021,0.027-0.046,0.031-0.083,0.036
					c-0.059-0.051,0.439-0.921,0.541-1.007c0.078-0.072,0.245-0.144,0.295,0.005C55.03,16.328,54.848,16.618,54.748,16.791z
					 M52.424,14.831c-0.018-0.034-0.115-0.395,0.032-0.356c-0.006-0.035,0.115-0.233,0.065-0.069
					c0.089-0.158,0.163-0.337,0.222-0.528l-0.115,0.235c0.078-0.229,0.182-0.692,0.182-0.775c-0.003-0.012-0.045-0.115-0.023-0.142
					c-0.278-0.057-0.113-0.226-0.015-0.324c-0.024,0.004-0.037,0.006-0.053-0.016c-0.058-0.04,0.086-0.098,0.122-0.115
					c0.164-0.095,0.394-0.093,0.57-0.033c0.15,0.062,0.304,0.221,0.376,0.356c0.075,0.146-0.021,0.341-0.118,0.452
					c-0.042,0.055-0.124,0.103-0.18,0.159c-0.062,0.093-0.032,0.198-0.081,0.289c-0.028,0.064-0.099,0.099-0.127,0.164
					c-0.044,0.042-0.039,0.079,0.004,0.108c-0.046,0.031-0.08,0.06-0.111,0.101c-0.095,0.206-0.152,0.324-0.285,0.451
					c0.125-0.102,0.2-0.187,0.3-0.357c0.081-0.132,0.18-0.232,0.32-0.312c-0.103,0.148-0.103,0.305-0.238,0.42
					c-0.136,0.105-0.025-0.081-0.166,0.084c0,0,0.073-0.022,0.04,0.006c-0.097,0.111-0.185,0.281-0.325,0.361
					c-0.072,0.034-0.113,0.089-0.207,0.065c-0.095-0.034-0.064-0.086-0.096-0.119C52.518,14.937,52.425,14.842,52.424,14.831z
					 M52.468,14.473c0.013-0.001,0.014,0.01,0.014,0.01c0.011-0.014,0.011-0.014,0.009-0.025
					C52.481,14.472,52.481,14.472,52.468,14.473z M52.619,14.137c-0.017,0.051-0.038,0.079-0.038,0.079L52.619,14.137z
					 M52.732,17.769l-0.01,0.099l0.014-0.074l-0.002-0.012C52.743,17.756,52.743,17.756,52.732,17.769z"/>
			</g>
			<g clip-path="url(#SVGID_10_)">
				<path fill="#FFFFFF" d="M58.815,16.742c-0.244,0.357-0.46,0.736-0.731,1.072c-0.204,0.247-0.543,0.66-0.906,0.584
					c-0.078-0.017-0.567-0.213-0.561-0.274l0.04,0.021l-0.083-0.065c0.073,0.09-0.078-0.017-0.091-0.016
					c-0.068-0.054-0.128-0.145-0.173-0.213c-0.076-0.125-0.101-0.254-0.114-0.386c-0.013-0.13,0-0.263-0.001-0.395
					c-0.001-0.275-0.013-0.515,0.049-0.784c0.019-0.063,0.216-0.75,0.307-0.735c0.025-0.003-0.03,0.087-0.016,0.097l0.143-0.347
					c-0.023,0.025-0.033,0.05-0.057,0.064c-0.014-0.011,0.123-0.3,0.154-0.361c-0.225,0.295-0.398,0.598-0.595,0.904
					c-0.144,0.217-0.332,0.365-0.426,0.565c-0.222,0.451-0.509,0.874-0.679,1.332l-0.061-0.09c-0.2,0.282-0.57,0.003-0.716-0.188
					c-0.132-0.181-0.109-0.326-0.105-0.542c0.007-0.193-0.024-0.382,0.018-0.59c0.05-0.256,0.128-0.502,0.204-0.761
					c0.063-0.258,0.126-0.515,0.202-0.774c0.047-0.16,0.154-0.361,0.175-0.531c0.025-0.134-0.021-0.214,0.133-0.324
					c0.142-0.096,0.307-0.099,0.473-0.091c0.205,0.018,0.59,0.188,0.406,0.505c-0.078,0.114-0.217,0.247-0.306,0.375
					c-0.101,0.141-0.082,0.2-0.117,0.358c-0.016,0.097-0.108,0.189-0.148,0.29c-0.062,0.137-0.097,0.308-0.131,0.467
					c-0.016,0.097,0.004,0.167,0.001,0.264c0,0.252-0.063,0.509-0.063,0.761c0.007-0.049,0.088-0.14,0.101-0.129
					c0.014,0.011-0.104,0.226-0.092,0.224l0.641-1.088c-0.144,0.217-0.255,0.371-0.255,0.371c-0.041-0.021,1.277-1.961,1.438-2.13
					c0.333-0.354,0.8-0.383,1.031,0.16c0.261,0.577-0.354,1.028-0.614,1.481c-0.14,0.253-0.25,0.55-0.351,0.811
					c-0.073,0.162-0.227,0.524-0.226,0.787c0.007-0.18,0.125-0.406,0.163-0.53c0.076-0.259,0.194-0.472,0.377-0.669
					c-0.072,0.163-0.159,0.314-0.22,0.463l0.056-0.077c0.025-0.002-0.073,0.415-0.083,0.439c-0.037,0.147-0.071,0.306-0.068,0.462
					c-0.012,0.013,0.02,0.202,0.02,0.202l0.014,0.011c-0.001-0.011,0.085-0.031,0.11-0.045c0.183-0.077,0.355-0.26,0.494-0.392
					c0.279-0.253,0.544-0.528,0.81-0.792c0.195-0.209,0.453-0.424,0.609-0.642c0.065-0.113,0.222-0.319,0.313-0.04
					C59.385,16.091,58.947,16.538,58.815,16.742z"/>
			</g>
			<g clip-path="url(#SVGID_10_)">
				<path fill="#FFFFFF" d="M63.491,12.414c0.017,0.167-0.194,0.302-0.345,0.342c-0.163,0.051-0.355-0.04-0.506-0.012
					c-0.088,0.025-0.062,0.061-0.137,0.086c-0.113,0.039-0.252,0.03-0.366,0.033c-0.164,0.004-0.52-0.072-0.657,0.015
					c-0.025,0.012-0.049,0.037-0.074,0.074l0.036-0.073c-0.076,0.014-0.194,0.339-0.277,0.557l0.133-0.267l-0.166,0.458
					c-0.12,0.254-0.227,0.519-0.334,0.772c-0.215,0.507-0.404,1-0.593,1.519c-0.318,0.939-0.634,1.925-0.837,2.897
					c-0.033,0.168-0.23,0.865,0.012,0.956c0.038,0.023,0.3-0.126,0.287-0.114c0.062-0.062,0.137-0.123,0.198-0.196
					c-0.05,0.037-0.186,0.147-0.187,0.124c-0.015-0.072,0.296-0.318,0.344-0.378c0.123-0.123,0.234-0.256,0.345-0.378l0.711-0.865
					c0.441-0.547,0.856-1.105,1.298-1.653c0.098-0.122,0.315-0.545,0.477-0.584c0.202-0.041,0.245,0.149,0.186,0.306
					c-0.106,0.325-0.44,0.595-0.61,0.885c-0.303,0.508-0.67,0.983-1.024,1.469c-0.392,0.523-0.783,1.045-1.212,1.544
					c-0.196,0.243-0.453,0.584-0.766,0.734c-0.237,0.113-0.556-0.011-0.762-0.15c-0.231-0.138-0.364-0.351-0.419-0.588
					c-0.014-0.071-0.1-0.451-0.027-0.537l0.005,0.179l0.019-0.239c-0.024,0.048-0.028-0.106-0.029-0.131
					c-0.002-0.095,0.021-0.204,0.043-0.3c0.021-0.192,0.067-0.373,0.112-0.563c0.08-0.373,0.171-0.746,0.237-1.128
					c0.053-0.384,0.184-0.745,0.301-1.106c0.023-0.06,0.257-0.793,0.32-0.795c0.013,0-0.021,0.144-0.021,0.155
					c0.047-0.18,0.118-0.361,0.176-0.541c-0.024,0.061-0.061,0.121-0.062,0.097c-0.003-0.143,0.155-0.397,0.202-0.53l0.141-0.421
					c0.129-0.385,0.259-0.771,0.427-1.133c-0.354,0.032-0.695,0.016-1.022,0.083c-0.478,0.094-1.085,0.061-1.567,0.011
					c-0.063-0.01-0.367-0.015-0.295-0.148c0.024-0.036,0.301-0.103,0.351-0.116c0.238-0.088,0.491-0.094,0.743-0.111
					c0.492-0.059,0.973-0.046,1.464-0.117c0.125-0.014,0.342,0.016,0.454-0.034c0.112-0.039,0.11-0.122,0.158-0.23
					c0.083-0.217,0.178-0.434,0.274-0.64c0.108-0.229,0.203-0.471,0.35-0.677c0.098-0.134,0.197-0.172,0.27-0.317
					c0.144-0.326,0.312-0.651,0.545-0.932c0.245-0.316,0.686-0.374,1.08-0.311c0.19,0.031,0.458,0.133,0.376,0.375
					c-0.035,0.096-0.16,0.158-0.234,0.232c0,0.011,0.111-0.11,0.112-0.062c-0.01,0.083-0.462,0.703-0.5,0.691
					c-0.013,0,0.168-0.303,0.181-0.327c-0.463,0.68-0.849,1.417-1.209,2.154c0.038,0,0.075-0.049,0.123-0.134
					c-0.036,0.072-0.061,0.121-0.06,0.132c0.492-0.035,0.998-0.047,1.503-0.082c0.1-0.002,0.287-0.138,0.304,0.029V12.414z
					 M59.155,19.857c0.013,0.012,0.026,0.023,0.038,0.023L59.155,19.857z M62.675,10.127c-0.977,1.372-1.568,2.985-2.237,4.494
					c-0.395,0.881-0.726,1.796-0.98,2.722c-0.115,0.42-0.206,0.841-0.283,1.272l0.057-0.229c0.125-0.564,0.313-1.129,0.514-1.672
					c0.425-1.192,0.823-2.419,1.363-3.566C61.587,12.123,62.016,11.062,62.675,10.127z M60.688,14.532
					c-0.107,0.242-0.19,0.483-0.285,0.711c0.096-0.217,0.191-0.434,0.273-0.663C60.676,14.568,60.676,14.556,60.688,14.532z
					 M61.876,12.033l-0.12,0.265C61.792,12.226,61.841,12.129,61.876,12.033z M62.201,11.392l-0.29,0.557
					C62.031,11.67,62.138,11.406,62.201,11.392z"/>
			</g>
			<g clip-path="url(#SVGID_10_)">
				<path fill="#FFFFFF" d="M68.374,16.844c-0.186,0.349-0.394,0.662-0.614,0.973c-0.262,0.345-0.521,0.678-0.816,0.973
					c-0.243,0.263-0.579,0.592-0.961,0.632c-0.434,0.049-0.755-0.303-0.872-0.667c-0.262-0.719-0.003-1.447,0.264-2.115
					c0,0,0.007-0.107,0.023-0.19c-0.138,0.171-0.326,0.377-0.449,0.538c-0.165,0.219-0.292,0.439-0.468,0.646
					c-0.083,0.103-1.186,1.229-1.313,1.02c0,0,0.154-0.052,0.144-0.077c-0.157,0.087-0.361,0.101-0.535,0.044
					c0.037,0.026,0.062,0.039,0.049,0.039c-0.292,0.021-0.494-0.421-0.547-0.615c-0.081-0.339-0.033-0.708,0.049-1.038
					c0.18-0.684,0.526-1.419,0.991-1.993c0.121-0.137,0.244-0.298,0.416-0.397c0.105-0.078,0.194-0.086,0.312-0.151
					c0.198-0.145,0.37-0.267,0.647-0.253c0.619,0.032,0.832,0.713,0.932,1.173c0.324-0.353,0.896-0.813,1.331-0.253
					c0.235,0.3,0.059,0.506-0.096,0.761c-0.264,0.405-0.482,0.907-0.609,1.332c0.014-0.036,0.063-0.212,0.113-0.222
					c0.103-0.019-0.964,2.628,0.424,1.182c0.419-0.444,0.789-0.916,1.158-1.386c0.165-0.219,0.33-0.45,0.509-0.667
					c0.081-0.091,0.321-0.306,0.318-0.043C68.782,16.363,68.489,16.623,68.374,16.844z M65.22,15.794
					c0.007-0.096-0.207-0.765-0.142-0.809c0.014-0.012,0.107,0.34,0.118,0.365c-0.03-0.146-0.054-0.589-0.28-0.601
					c-0.417-0.022-0.775,0.688-0.931,0.956c-0.283,0.524-0.545,1.084-0.681,1.662c0.049-0.176,0.908-2.295,1.135-2.272
					c-0.179,0.026-0.956,1.828-1.004,1.993c-0.03,0.094-0.268,0.703-0.083,0.772c0.124,0.043,0.449-0.311,0.517-0.391
					c0.256-0.262,0.5-0.536,0.731-0.823l0.355-0.423c0.056-0.082,0.124-0.161,0.192-0.241C65.216,15.889,65.216,15.889,65.22,15.794
					z M65.263,15.712l-0.007,0.12C65.296,15.797,65.298,15.762,65.263,15.712z M65.532,16.3l-0.068,0.08
					c-0.015,0.036-0.062,0.2-0.062,0.2L65.532,16.3z"/>
			</g>
			<g clip-path="url(#SVGID_10_)">
				<path fill="#FFFFFF" d="M73.956,17.328l-1.13,0.588c-0.421,0.229-0.827,0.45-1.225,0.695c-0.196,0.105-0.403,0.208-0.576,0.328
					c-0.175,0.132-0.244,0.328-0.338,0.52c-0.643,1.297-1.245,2.66-2.191,3.781c-0.301,0.368-0.569,0.765-1.128,0.817
					c-0.647,0.052-1.084-0.493-1.229-1.033c-0.156-0.614,0.179-1.11,0.62-1.554c0.381-0.381,0.787-0.757,1.212-1.096
					c0.292-0.236,0.606-0.433,0.917-0.629c0.302-0.199,0.688-0.385,0.969-0.623c0.269-0.24,0.413-0.738,0.58-1.065l0.423-0.881
					c-0.334,0.411-0.751,0.774-1.127,1.131c-0.348,0.336-0.707,0.744-1.157,0.922c-0.204,0.079-0.388,0.101-0.562-0.007
					c-0.082-0.048-0.493-0.518-0.43-0.593c0.012,0.013,0.022,0.027,0.034,0.028l-0.024-0.087c0.006,0.122-0.101-0.171-0.108-0.197
					c-0.026-0.161-0.012-0.328,0.015-0.493c0.04-0.248,0.096-0.518,0.186-0.759c0.073-0.219,0.207-0.417,0.361-0.588
					c0.02-0.034,0.331-0.388,0.377-0.357c0.013,0.002-0.063,0.076-0.052,0.088l0.26-0.264c-0.015,0.01-0.044,0.03-0.068,0.026
					c-0.08-0.059,1.314-1.104,1.456-1.193c0.23-0.16,0.469-0.295,0.738-0.377c0.149-0.051,0.231-0.015,0.35-0.022
					c0.101,0.002,0.146-0.04,0.237-0.051c0.312-0.028,0.746,0.13,0.896,0.393c0.115,0.162,0.115,0.645-0.2,0.611
					c-0.075-0.011-0.105-0.063-0.161-0.107l0.03,0.041c0,0-0.335-0.06-0.488-0.057l0.174-0.036
					c-0.771,0.011-1.547,0.781-2.032,1.268c0.133-0.114,0.934-0.809,1.188-0.954c-0.258,0.169-1.077,0.897-1.139,0.96
					c-0.411,0.413-0.804,0.876-1.077,1.381c-0.09,0.156-0.51,1.11-0.008,0.844c0.36-0.178,0.788-0.528,1.088-0.811
					c-0.014,0.01-0.028,0.02-0.04,0.018c-0.038-0.005,0.252-0.302,0.298-0.343l0.415-0.437c0.288-0.285,0.566-0.595,0.855-0.88
					c0.122-0.116,0.324-0.352,0.484-0.39c0.547-0.14,1.116,0.376,0.723,0.828c-0.425,0.506-0.869,1.047-1.164,1.609
					c0.057,0.044,0.841-0.46,0.967-0.526c0.31-0.174,0.617-0.347,0.935-0.495c0.238-0.123,0.484-0.221,0.721-0.344
					c0.127-0.078,0.544-0.369,0.54-0.02C74.363,17.168,74.136,17.233,73.956,17.328z M69.542,19.826
					c-0.643,0.416-1.213,0.866-1.781,1.376c-0.465,0.429-1.26,1.088-1.166,1.778c0.134,1.082,1.185-0.217,1.414-0.535
					c0.46-0.635,0.826-1.319,1.203-2.002c-0.016,0.022,0.072-0.134,0.07-0.122C69.371,20.164,69.462,19.996,69.542,19.826z
					 M69.105,21.104c-0.262,0.445-0.569,0.848-0.868,1.276c0.143-0.173,0.32-0.329,0.466-0.513c0.152-0.232,0.281-0.479,0.398-0.729
					L69.105,21.104z M69.472,16.35c-0.047,0.054-0.119,0.104-0.163,0.134c-0.218,0.162-0.347,0.337-0.481,0.535
					c0.121-0.115,0.253-0.218,0.348-0.337L69.472,16.35z M69.301,16.773c-0.12,0.116-0.228,0.232-0.325,0.352l0.139-0.137
					L69.301,16.773z"/>
			</g>
			<g clip-path="url(#SVGID_10_)">
				<path fill="#FFFFFF" d="M78.171,18.058l-0.5,0.391l-0.866,0.666c-0.226,0.171-0.483,0.322-0.708,0.493
					c-0.243,0.191-0.464,0.4-0.729,0.574c-0.275,0.171-0.592,0.346-0.926,0.431c-0.235,0.058-0.435,0.026-0.642-0.081
					c-0.299-0.152-0.535-0.402-0.688-0.681c-0.043-0.083-0.09-0.156-0.08-0.251c0.006-0.073,0.015-0.156,0.034-0.238
					c0.022-0.143,0.098-0.236,0.157-0.37c0.063-0.146,0.171-0.269,0.233-0.415c0.065-0.157,0.152-0.297,0.215-0.443
					c0.047-0.137,0.061-0.293,0.132-0.425c0.048-0.087,0.146-0.164,0.208-0.26c-0.055,0.062-0.133,0.118-0.16,0.173
					c-0.06,0.084-0.107,0.172-0.165,0.245c-0.06,0.085-0.093,0.164-0.152,0.249c-0.076,0.094-0.148,0.176-0.188,0.29
					c-0.04,0.101-0.053,0.208-0.094,0.311c-0.049,0.099-0.094,0.175-0.12,0.279c-0.009,0.036-0.002,0.11-0.008,0.134
					c-0.012,0.046-0.051,0.099-0.065,0.157c-0.026,0.104-0.027,0.215-0.044,0.333c-0.116-0.369,0.004-0.686,0.151-1.021
					c0.148-0.335,0.281-0.661,0.452-0.979c0.332-0.65,0.832-1.25,1.436-1.692c0.501-0.392,1.095-0.64,1.73-0.376
					c0.235,0.102,0.479,0.266,0.589,0.5c0.117,0.26,0.036,0.535-0.113,0.771c-0.274,0.418-0.771,0.688-1.228,0.905
					c-0.191,0.092-0.396,0.182-0.606,0.245c-0.14,0.042-0.287,0.059-0.434,0.075l-0.228,0.023c-0.092,0.004-0.101-0.01-0.156,0.051
					c-0.09,0.103-0.082,0.228-0.136,0.339c-0.061,0.145-0.133,0.276-0.208,0.419c-0.132,0.266-0.319,0.604-0.319,0.911
					c-0.013,0.623,1.249-0.065,1.475-0.188c0.151-0.077,0.289-0.168,0.428-0.249c0.078-0.056,0.166-0.098,0.234-0.156
					c0,0,0.037-0.052,0.044-0.076c0.202-0.188,0.452-0.353,0.688-0.521c0.282-0.195,0.543-0.407,0.818-0.628
					c0.148-0.126,0.514-0.499,0.634-0.141l-0.004,0.012c0.011,0.014,0.011,0.014,0.013,0.003
					C78.303,17.952,78.251,18.001,78.171,18.058z M74.94,17.633c0.444-0.11,0.867-0.297,1.229-0.548l0.272-0.21
					c0.052-0.05,0.122-0.071,0.164-0.135c0.027-0.056,0.014-0.107,0.043-0.174l0.11-0.233c0.042-0.114,0.067-0.427-0.126-0.433
					c-0.091,0.004-0.204,0.09-0.268,0.137l-0.29,0.229c-0.349,0.302-0.583,0.668-0.859,0.999c0,0-0.004,0.011-0.022,0.032
					C75.104,17.399,75.034,17.519,74.94,17.633z"/>
			</g>
			<g clip-path="url(#SVGID_10_)">
				<path fill="#FFFFFF" d="M84.693,20.467c-0.186-0.042-0.278-0.012-0.47-0.043c-0.412-0.085-0.822-0.209-1.231-0.269
					c-0.329-0.055-0.644-0.247-0.973-0.303c-0.262-0.057-0.557-0.1-0.787-0.261c-0.271-0.2-0.281-0.639-0.104-0.907
					c0.129-0.184,0.244-0.065,0.425-0.012c0.677,0.233,1.375,0.384,2.035,0.689c0.356,0.155,0.703,0.333,1.025,0.54
					c0.097,0.061,0.655,0.417,0.631,0.511C85.2,20.587,84.816,20.499,84.693,20.467z M83.482,19.552
					c-0.584-0.097-1.056-0.499-1.648-0.573c0.25,0.052,0.521,0.215,0.758,0.301C82.87,19.395,83.16,19.512,83.482,19.552z"/>
			</g>
			<g clip-path="url(#SVGID_10_)">
				<defs>
					<rect id="SVGID_13_" y="4.004" width="127.559" height="120.387"/>
				</defs>
				<clipPath id="SVGID_14_">
					<use xlink:href="#SVGID_13_"  overflow="visible"/>
				</clipPath>
			</g>
			<g clip-path="url(#SVGID_10_)">
				<defs>
					<rect id="SVGID_15_" y="4.004" width="127.559" height="120.387"/>
				</defs>
				<clipPath id="SVGID_16_">
					<use xlink:href="#SVGID_15_"  overflow="visible"/>
				</clipPath>
				<g clip-path="url(#SVGID_16_)">
					<path fill="#FFFFFF" d="M4.71,33.262c3.77,0,7.626,2.426,7.626,9.261c0,4.449-1.928,7.927-4.156,8.816
						c1.713,0.525,3.941,2.184,3.941,5.096c0,3.842-2.742,5.743-6.898,5.743c-0.729,0-3.642-0.203-4.113-0.647
						c-0.085-0.082-0.128-0.203-0.128-0.364V34.636c0-0.404,0.3-0.688,0.771-0.89C2.611,33.423,3.597,33.262,4.71,33.262z
						 M2.483,35.122v15.53c3.084,0.041,5.184,0.485,6.897-2.507c2.271-3.963,2.142-13.386-4.456-13.386
						C4.111,34.758,3.296,34.879,2.483,35.122z M5.438,52.108l-2.956-0.041v8.412c0.942,0.243,1.971,0.404,2.999,0.404
						c2.871,0,5.141-1.658,5.141-4.368S8.31,52.148,5.438,52.108z M12.594,54.372c1.799,2.104,1.499,5.258,0.086,6.957
						c-1.243,1.456-3.299,2.144-5.741,2.144c-1.157,0-2.528-0.121-3.642-0.445c-0.171-0.081-0.342-0.122-0.428-0.202
						c0.814,0.122,1.585,0.162,2.356,0.162C12.636,62.987,13.751,57.446,12.594,54.372z M4.197,36.416v13.468l-0.857-0.041V35.729
						c0.514-0.082,1.071-0.163,1.585-0.163c0.813,0,1.542,0.163,2.142,0.486H6.638C5.824,36.052,4.967,36.173,4.197,36.416z
						 M4.197,53.361v6.633c-0.301-0.041-0.557-0.081-0.857-0.162v-6.957l2.057,0.041c0.9,0,1.671,0.202,2.313,0.485H7.152
						L4.197,53.361z M13.193,42.523c0-2.022-0.343-3.802-1.028-5.298c1.328,1.739,1.885,4.165,1.885,6.592
						c0,2.588-0.899,6.47-3.084,8.169c-0.343-0.283-0.686-0.526-1.072-0.769C11.866,49.52,13.193,46.203,13.193,42.523z"/>
					<path fill="#FFFFFF" d="M20.734,34.111V61.45c0,0.364-0.385,0.526-0.814,0.526c-0.385,0-0.813-0.162-0.813-0.526V34.111
						c0-0.323,0.428-0.526,0.813-0.526C20.307,33.585,20.734,33.747,20.734,34.111z M22.448,35.364v27.34
						c0,0.323-0.343,0.525-0.771,0.525c-0.429,0-0.857-0.161-0.814-0.647c0.472-0.202,0.729-0.525,0.729-1.133v-26.57
						C22.191,34.838,22.448,35.122,22.448,35.364z"/>
					<path fill="#FFFFFF" d="M30.633,62.259c-2.314,0-4.028-1.739-4.028-4.084c0-0.445,0.343-0.769,0.814-0.769
						c0.557,0,0.814,0.404,0.814,0.769c0,1.779,1.156,2.669,2.484,2.669c0.471,0,3.128,0.122,3.128-5.662v-2.022V35.203H28.49
						c-0.386,0-0.557-0.364-0.557-0.728s0.171-0.768,0.557-0.768h6.34c0.386,0,0.644,0.283,0.644,0.606v17.795
						C35.474,56.92,35.56,62.259,30.633,62.259z M28.875,58.013l0.172-0.041c0.171,0,0.385,0.081,0.385,0.323
						c0.128,1.011,0.643,1.74,1.285,2.103C29.304,60.196,28.833,58.983,28.875,58.013z M32.988,36.011v0.486h-2.913
						c-0.343,0-0.558-0.203-0.6-0.486H32.988z M37.145,56.839c-0.043,1.052-0.171,2.144-0.428,3.155
						c-0.214,0.809-0.557,1.537-1.071,2.144c-0.686,0.849-1.757,1.416-3.299,1.416c-0.729,0-1.371-0.162-1.928-0.485h0.215
						c5.783,0,5.698-5.42,5.698-10.96V35.041c0.6-0.121,0.856,0.162,0.856,0.566v18.28C37.188,54.737,37.23,55.748,37.145,56.839z"
						/>
					<path fill="#FFFFFF" d="M65.68,61.693c0.128,0.525-1.329,1.011-1.585,0.121l-1.628-7.158h-8.697l-1.756,7.239
						c-0.172,0.647-1.671,0.485-1.5-0.202l6.855-27.501c0.3-0.728,1.671-0.485,1.799-0.081L65.68,61.693z M61.781,55.465
						l0.086,0.445h-6.384l-1.714,7.077c-0.085,0.445-0.343,0.566-0.643,0.566c-0.428,0-0.899-0.243-0.985-0.647
						c0.343-0.162,0.558-0.445,0.686-0.849l1.628-6.592H61.781z M58.268,36.173L54.111,53.24h8.056L58.268,36.173z M58.782,42.321
						l-2.442,10.11h-1.157l3.042-12.537L58.782,42.321z M67.308,62.623c0.129,0.647-0.343,0.89-0.728,0.89
						c-0.429,0-0.772-0.202-1.071-0.566c0.684-0.203,1.156-0.688,1.028-1.416l-6.342-26.733c0.343-0.081,0.557,0.202,0.643,0.485
						L67.308,62.623z"/>
					<path fill="#FFFFFF" d="M80.548,39.288c-0.429,0-0.814-0.202-0.814-0.647c0-2.264-1.67-3.963-3.813-3.963
						c-2.356,0-3.685,2.022-3.685,4.206c0,2.346,1.628,4.853,4.112,7.037c2.786,2.588,5.869,5.096,5.869,9.504
						c0,4.409-2.741,6.876-6.426,6.876c-3.684,0-6.255-2.912-6.255-5.905c0-1.253,1.671-1.092,1.671-0.202
						c0,2.386,1.842,4.691,4.628,4.691c2.826,0,4.583-2.588,4.669-5.378c0.043-3.559-2.741-5.905-5.271-8.21
						c-2.569-2.305-4.669-5.217-4.669-8.533c0-3.115,2.1-5.419,5.398-5.419c3.042,0,5.398,1.82,5.398,5.298
						C81.362,39.085,80.934,39.288,80.548,39.288z M75.62,60.358c-2.698-0.445-3.427-2.75-3.556-3.64
						c0.428,0,0.771,0.121,0.857,0.566C73.093,58.457,74.207,59.711,75.62,60.358z M75.921,35.485c0.557,0,1.114,0.162,1.586,0.486
						c-2.958,0.081-4.499,3.438-2.958,6.794c-0.984-1.334-1.456-2.669-1.456-3.882C73.093,36.901,74.25,35.485,75.921,35.485z
						 M82.39,61.45c-2.014,2.427-5.526,2.508-7.584,1.619c0.301,0.04,0.645,0.04,0.986,0.04c6.642,0,8.655-6.835,6.384-11.647
						C84.704,55.06,84.232,59.226,82.39,61.45z M82.218,38.64c0-0.849-0.17-1.658-0.428-2.386c0.815,0.93,1.286,2.184,1.286,3.68
						c0,0.404-0.43,0.606-0.814,0.606c-0.472,0-0.814-0.202-0.814-0.647C81.919,39.651,82.218,39.288,82.218,38.64z"/>
					<path fill="#FFFFFF" d="M97.558,39.288c-0.428,0-0.814-0.202-0.814-0.647c0-2.264-1.671-3.963-3.813-3.963
						c-2.357,0-3.686,2.022-3.686,4.206c0,2.346,1.628,4.853,4.113,7.037c2.785,2.588,5.87,5.096,5.87,9.504
						c0,4.409-2.742,6.876-6.427,6.876s-6.254-2.912-6.254-5.905c0-1.253,1.67-1.092,1.67-0.202c0,2.386,1.842,4.691,4.627,4.691
						c2.828,0,4.585-2.588,4.671-5.378c0.042-3.559-2.742-5.905-5.271-8.21c-2.57-2.305-4.67-5.217-4.67-8.533
						c0-3.115,2.1-5.419,5.397-5.419c3.043,0,5.399,1.82,5.399,5.298C98.372,39.085,97.944,39.288,97.558,39.288z M92.63,60.358
						c-2.698-0.445-3.427-2.75-3.556-3.64c0.428,0,0.772,0.121,0.857,0.566C90.104,58.457,91.218,59.711,92.63,60.358z
						 M92.931,35.485c0.557,0,1.114,0.162,1.586,0.486c-2.957,0.081-4.499,3.438-2.957,6.794c-0.986-1.334-1.456-2.669-1.456-3.882
						C90.104,36.901,91.259,35.485,92.931,35.485z M99.4,61.45c-2.014,2.427-5.527,2.508-7.584,1.619
						c0.301,0.04,0.643,0.04,0.985,0.04c6.642,0,8.655-6.835,6.384-11.647C101.713,55.06,101.242,59.226,99.4,61.45z M99.229,38.64
						c0-0.849-0.172-1.658-0.429-2.386c0.814,0.93,1.286,2.184,1.286,3.68c0,0.404-0.429,0.606-0.813,0.606
						c-0.473,0-0.815-0.202-0.815-0.647C98.928,39.651,99.229,39.288,99.229,38.64z"/>
					<path fill="#FFFFFF" d="M106.813,34.111V61.45c0,0.364-0.386,0.526-0.814,0.526c-0.386,0-0.814-0.162-0.814-0.526V34.111
						c0-0.323,0.429-0.526,0.814-0.526S106.813,33.747,106.813,34.111z M108.526,35.364v27.34c0,0.323-0.343,0.525-0.771,0.525
						c-0.429,0-0.857-0.161-0.814-0.647c0.471-0.202,0.729-0.525,0.729-1.133v-26.57C108.27,34.838,108.526,35.122,108.526,35.364z"
						/>
					<path fill="#FFFFFF" d="M124.766,61.895h-9.255c-0.386,0-0.643-0.242-0.643-0.607V34.313c0-0.364,0.257-0.606,0.643-0.606
						h9.255c0.728,0,0.728,1.456,0,1.456h-8.27v13.427h6.555c0.729,0,0.729,1.456,0,1.456h-6.555v10.394h8.27
						C125.493,60.439,125.493,61.895,124.766,61.895z M127.035,62.421c0,0.323-0.171,0.728-0.557,0.728h-9.254
						c-0.301,0-0.558-0.162-0.6-0.445h8.312c0.814,0,1.028-0.324,1.114-1.011h0.428C126.864,61.693,127.035,62.138,127.035,62.421z
						 M126.137,34.96h0.342c0.386,0,0.557,0.445,0.557,0.728c0,0.323-0.171,0.728-0.557,0.728h-8.269V47.78h-0.856V35.971h7.626
						C125.836,35.971,126.093,35.688,126.137,34.96z M124.422,49.843h0.344c0.385,0,0.557,0.445,0.557,0.728
						c0,0.324-0.172,0.728-0.557,0.728h-6.556v8.331h-0.856v-8.776h5.913C124.079,50.854,124.337,50.571,124.422,49.843z"/>
				</g>
				<path clip-path="url(#SVGID_16_)" fill="#FFFFFF" d="M77.26,84.904c0.183-0.006,0.573-0.093,1.061-0.262
					c-0.002-0.003-0.005-0.005-0.006-0.005c4.969-1.332,3.759-5.274,3.732-5.251c-0.903-1.962-4.075-1.291-4.075-1.291l-0.093-0.821
					c0.033-0.105,0.044-0.204,0.04-0.289c0.27-0.888,0.227-2.566-4.269-3.356c-2.134-0.569-16.655-0.613-18.708,1.167
					c0.218-0.206-4.202-2.329-4.202-2.329l-1.28-0.492l0.152,0.094c-2.458-0.264-5.104-0.009-6.562,0.76
					c0,0,0.621,5.051,4.013,7.323c0,0.104-3.918,2.009-4.465,5.106c0-0.103,1.225,1.675,4.728,1.983
					c0.108,0-1.696,2.913,1.806,4.773c0,0.104,6.007,3.421,18.157,3.111c0,0,14.077-0.795,16.644-5.178
					C83.935,89.845,85.884,86.159,77.26,84.904 M53.286,77.416c0.438,0.54,1.323,0.983,1.323,0.983l0.003-0.016
					c3.372,1.526,9.097,1.601,9.097,1.601c9.302-0.038,12.1-1.398,12.1-1.398c1.135-0.311,1.681-0.69,1.927-1.032
					c-0.019,0.156-0.039,0.327-0.065,0.512l-0.013,0.088c-0.338,2.318-1.457,6.733-5.14,9.293c0,0-4.606,3.193-11.68,0.987
					C60.837,88.434,54.646,86.808,53.286,77.416 M61.536,74.339c5.206-0.659,11.27,0.115,11.27,0.115
					c2.71,0.476,3.983,1.286,4.568,1.846c0.165,0.233,0.282,0.489,0.29,0.739c-0.398,0.702-1.448,1.09-1.448,1.09
					s-1.26-1.007-5.848-1.625c0,0-7.212-0.368-9.162,0.116c0,0-3.753,0.417-5.513,1.254c-0.655-0.238-0.919-0.405-0.919-0.405
					c-1.189-0.539-0.778-1.08-0.778-1.08C55.962,74.688,61.536,74.339,61.536,74.339 M60.919,79.017
					c-1.607-0.212-2.835-0.462-3.756-0.698c0.652-0.28,3.144-1.233,7.134-1.331h0.001C59.955,77.667,60.919,79.017,60.919,79.017
					 M52.106,92.25c0,0-5.725-1.935-3.414-4.612c0,0,0.362,0.014,1.112-0.466c3.657,0.102,5.824-1.515,6.031-1.677
					c0.256,0.339,0.538,0.673,0.846,0.997c-0.377,0.186-2.09,1.181-1.252,2.61c0,0,1.382,2.175,7.657,2.813
					c0,0,8.668,1.024,12.443-2.378c0,0,2.028-1.596-0.891-3.075c0,0,1.449,1.247,1.015,2.262c0,0-0.696,2.476-11.451,2.359
					c0,0-6.949-0.289-8.239-2.107c0,0-1.364-1.044,0.729-2.472c0.929,0.975,2.099,1.862,3.572,2.568c0,0,7.462,3.172,13.443-1.7
					c0.003-0.001,0.843-0.692,1.762-2.085c0.171-0.034,0.343-0.067,0.506-0.105l0.631,0.119c0,0,0.003,0,0.005,0
					c2.039,0.521,7.058,2.032,6.254,4.074c0,0-0.307,1.104-2.213,1.857c0.097-0.041-3.171,2.058-13.306,2.9
					C67.345,94.133,58.068,94.426,52.106,92.25 M50.947,86.543c0.793-0.381,1.839-0.779,3.193-1.124
					C53.144,86.091,52.046,86.426,50.947,86.543 M77.688,79.087c2.177-0.407,3.129,0.791,3.129,0.791
					c1.085,2.898-3.941,4.302-4.813,4.522C76.732,83.079,77.42,81.31,77.688,79.087 M77.716,78.818
					c0.001-0.003,0.001-0.008,0.002-0.013h0.005C77.72,78.811,77.718,78.814,77.716,78.818 M54.303,82.82l-2.826,0.542l-2.735-1.472
					l1.969,1.472L48.009,83.8l-1.674-1.034l1.093,1.034l-3.214,0.463h3.795l-1.237,1.195l1.86-1.212l2.188-0.446l-1.313,2.202
					l2.079-2.202l2.961-0.433c0.187,0.393,0.398,0.786,0.638,1.176c-0.272,0.279-0.557,0.524-0.85,0.739
					c-1.187,0.206-3.015,0.609-4.446,1.31c-3.295-0.028-6.318-1.687-6.318-1.687c1.036-2.456,3.029-3.577,4.974-4.058
					c2.534,1.447,5.167,1.743,5.682,1.789C54.253,82.698,54.277,82.758,54.303,82.82 M54.149,75.227
					c-1.425,0.956-1.019,1.955-1.019,1.955c0.006,0.012,0.015,0.024,0.022,0.038c0,0.036,0,0.07,0,0.109l-1.803-0.584l0.195-2.435
					l-0.547,2.311l-2.209-1.041l-0.086-2.207l-0.331,2.07l-2.011-0.945l0.26-1.125l-0.548,1.145l-1.095-0.724l0.959,0.905
					l-0.959,0.541l1.301-0.432l1.915,0.955l-1.929,1.565l2.494-1.282l2.062,0.912l-2.093,1.699l2.502-1.636l1.944,0.85
					c0.054,0.94,0.223,2.271,0.68,3.723c-8.812-0.545-9.656-8.021-9.656-8.021C49.166,71.261,52.588,73.654,54.149,75.227"/>
			</g>
			<g clip-path="url(#SVGID_10_)">
				<path fill="#FFFFFF" d="M26.437,84.197c0,0.787-0.366,1.44-1.407,1.388c-0.079-0.007-0.119-0.066-0.119-0.127
					c0-0.143,0.104-0.136,0.19-0.136c0.676,0,1.018-0.45,1.018-1.081c0-0.614-0.342-1.02-0.683-1.425
					c-0.334-0.397-0.668-0.803-0.668-1.41c0-0.616,0.437-1.194,1.089-1.194c0.079,0,0.118,0.068,0.118,0.136
					c0,0.061-0.031,0.121-0.118,0.121c-0.303,0-0.771,0.329-0.771,0.922C25.085,82.493,26.437,82.839,26.437,84.197z M25.467,85.825
					c-0.199-0.008-0.246-0.029-0.262-0.091c1.495-0.044,1.559-1.567,1.24-2.324C27.033,84.318,26.866,85.825,25.467,85.825z
					 M26.119,80.445c0.056,0,0.183,0,0.183,0.135c0,0.075-0.048,0.121-0.127,0.121c-0.453,0-0.994,0.614-0.676,1.41
					c-0.588-0.834-0.024-1.492,0.358-1.492C26.016,80.619,26.095,80.551,26.119,80.445z"/>
				<path fill="#FFFFFF" d="M28.082,80.363v5.073c0,0.065-0.071,0.097-0.15,0.097c-0.072,0-0.151-0.031-0.151-0.097v-5.073
					c0-0.06,0.08-0.099,0.151-0.099C28.002,80.265,28.082,80.295,28.082,80.363z M28.4,80.596v5.072
					c0,0.061-0.064,0.097-0.144,0.097s-0.159-0.03-0.151-0.118c0.087-0.039,0.135-0.1,0.135-0.21v-4.932
					C28.353,80.497,28.4,80.551,28.4,80.596z"/>
				<path fill="#FFFFFF" d="M31.85,80.265c0.072,0,0.143,0.039,0.143,0.099v5.057c0,0.067-0.08,0.113-0.151,0.113
					c-0.056,0-0.111-0.023-0.135-0.083l-1.677-4.465v4.451c0,0.059-0.072,0.088-0.143,0.088s-0.135-0.029-0.135-0.088v-5.028
					c0-0.099,0.072-0.144,0.151-0.144c0.063,0,0.127,0.03,0.151,0.091l1.662,4.329v-4.321C31.714,80.295,31.786,80.265,31.85,80.265
					z M30.188,81.856l0.159,0.427v3.368c0,0.068-0.063,0.113-0.127,0.113c-0.071,0-0.151-0.036-0.151-0.127
					c0.08-0.037,0.119-0.097,0.119-0.201V81.856z M31.556,83.829l-1.272-3.315c0.032-0.009,0.071,0.037,0.087,0.073l1.185,3.085
					V83.829z M32.311,80.596v5.056c0,0.083-0.072,0.121-0.135,0.121c-0.08,0-0.151-0.044-0.151-0.135
					c0.096-0.037,0.127-0.104,0.127-0.218v-4.915C32.263,80.497,32.311,80.551,32.311,80.596z"/>
				<path fill="#FFFFFF" d="M36.34,82.921c0,2.049-1.017,2.62-2.098,2.62c-0.159,0-0.311-0.008-0.421-0.039
					c-0.056-0.021-0.159-0.074-0.159-0.171v-4.954c0-0.073,0.039-0.142,0.135-0.156c0.079-0.009,0.183-0.009,0.31-0.009
					C35.784,80.221,36.34,81.345,36.34,82.921z M36.03,82.892c0-1.434-0.556-2.574-2.059-2.417v4.773
					c0.127,0.015,0.238,0.022,0.318,0.022C35.593,85.263,36.03,84.121,36.03,82.892z M36.659,83.153
					c0,0.751-0.144,1.479-0.549,1.981c-0.66,0.795-1.916,0.683-2.075,0.548c0.072,0.008,0.144,0.008,0.207,0.008
					c1.471,0,2.257-0.976,2.257-2.77c0-0.689-0.103-1.252-0.317-1.695C36.531,81.721,36.659,82.403,36.659,83.153z M34.838,80.716
					c-0.095-0.015-0.19-0.023-0.294-0.023l-0.254,0.015v4.413c-0.048,0-0.104,0-0.159-0.008V80.61
					C34.393,80.603,34.632,80.634,34.838,80.716z"/>
				<path fill="#FFFFFF" d="M39.432,81.323c-0.08,0-0.151-0.038-0.151-0.12c0-0.419-0.31-0.734-0.707-0.734
					c-0.438,0-0.684,0.375-0.684,0.779c0,0.436,0.302,0.9,0.764,1.307c0.516,0.48,1.089,0.944,1.089,1.764
					c0,0.816-0.509,1.274-1.192,1.274s-1.161-0.54-1.161-1.096c0-0.233,0.311-0.202,0.311-0.037c0,0.442,0.342,0.871,0.858,0.871
					c0.525,0,0.851-0.481,0.867-0.999c0.008-0.66-0.509-1.096-0.978-1.523c-0.477-0.428-0.866-0.968-0.866-1.583
					c0-0.578,0.389-1.005,1.001-1.005c0.564,0,1.001,0.337,1.001,0.982C39.583,81.285,39.504,81.323,39.432,81.323z M38.519,85.232
					c-0.501-0.083-0.636-0.51-0.661-0.676c0.08,0,0.143,0.023,0.159,0.105C38.049,84.88,38.256,85.112,38.519,85.232z
					 M38.574,80.619c0.104,0,0.206,0.028,0.294,0.088c-0.548,0.016-0.834,0.638-0.548,1.261c-0.184-0.247-0.271-0.494-0.271-0.72
					C38.049,80.881,38.264,80.619,38.574,80.619z M39.774,85.437c-0.374,0.448-1.026,0.464-1.407,0.298
					c0.055,0.009,0.119,0.009,0.183,0.009c1.232,0,1.605-1.269,1.185-2.162C40.203,84.25,40.116,85.022,39.774,85.437z
					 M39.742,81.203c0-0.157-0.032-0.308-0.08-0.442c0.151,0.172,0.239,0.405,0.239,0.682c0,0.076-0.08,0.113-0.152,0.113
					c-0.087,0-0.15-0.037-0.15-0.119C39.686,81.391,39.742,81.323,39.742,81.203z"/>
			</g>
			<g clip-path="url(#SVGID_10_)">
				<path fill="#FFFFFF" d="M88.887,85.239c0.159,0,0.12,0.279,0.023,0.279h-2.233c-0.103,0-0.285-0.114-0.088-0.331
					c0.063-0.053,2.132-2.056,2.107-3.601c-0.008-0.549-0.295-1.097-0.875-1.097c-0.5,0-1.065,0.465-1.017,1.38
					c0.007,0.076-0.063,0.113-0.136,0.113c-0.071,0-0.144-0.037-0.15-0.135c-0.024-0.863,0.397-1.622,1.311-1.622
					c0.604,0,1.178,0.466,1.178,1.374c0,1.426-1.543,3.242-2.084,3.639H88.887z M87.821,80.641c0.12,0,0.224,0.029,0.319,0.082
					c-0.312,0.008-0.542,0.144-0.709,0.339c-0.206,0.262-0.31,0.622-0.31,0.938v0.104c0,0.082-0.048,0.12-0.127,0.12
					c-0.167,0-0.143-0.097-0.143-0.128c0.103-0.037,0.126-0.105,0.111-0.239C86.932,81.188,87.298,80.641,87.821,80.641z
					 M89.301,85.63c0,0.038-0.009,0.12-0.071,0.12h-2.211c-0.072,0-0.136-0.03-0.166-0.082h2.058c0.144,0,0.207-0.067,0.223-0.195
					h0.072C89.284,85.473,89.301,85.578,89.301,85.63z M89.166,81.601c0-0.263-0.049-0.503-0.136-0.713
					c0.199,0.256,0.294,0.607,0.294,0.946c0,1.268-1.209,2.791-1.662,3.256h-0.341C88.005,84.407,89.166,82.861,89.166,81.601z"/>
				<path fill="#FFFFFF" d="M93.06,82.906c0,1.344-0.301,2.694-1.431,2.694c-1.225,0-1.454-1.553-1.454-2.702
					c0-1.185,0.254-2.693,1.454-2.693C92.845,80.205,93.06,81.766,93.06,82.906z M91.629,80.497c-0.922,0-1.137,1.201-1.137,2.409
					c0,1.193,0.215,2.401,1.137,2.401c1.01,0,1.112-1.44,1.112-2.401C92.741,81.962,92.63,80.497,91.629,80.497z M90.81,83.14
					c0,0.42,0.024,1.192,0.263,1.748c-0.277-0.346-0.421-1.006-0.421-1.981c0-1.508,0.334-2.259,0.978-2.259
					c0.127,0,0.238,0.031,0.333,0.083c-0.095,0-0.413,0-0.69,0.323C90.834,81.578,90.81,82.628,90.81,83.14z M93.378,83.14
					c0,0.622-0.063,1.695-0.549,2.28c-0.206,0.255-0.492,0.413-0.882,0.413c-0.176,0-0.335-0.03-0.478-0.09
					c0.485,0.068,1.749-0.038,1.749-2.837c0-0.848-0.112-1.516-0.343-1.996C93.321,81.51,93.378,82.539,93.378,83.14z"/>
				<path fill="#FFFFFF" d="M94.148,81.946l1.082-1.614c0.07-0.111,0.27-0.082,0.27,0.045v5.051c0,0.067-0.072,0.105-0.144,0.105
					s-0.144-0.031-0.144-0.105v-4.6l-0.833,1.261C94.299,82.209,94.068,82.066,94.148,81.946z M95.056,81.354v0.435l-0.358,0.533
					c-0.017,0.029-0.048,0.045-0.087,0.045c-0.089,0-0.145-0.09-0.145-0.128l0.049-0.067L95.056,81.354z M95.816,80.61v5.05
					c0,0.074-0.069,0.112-0.142,0.112c-0.08,0-0.144-0.038-0.144-0.126c0.088-0.046,0.127-0.105,0.127-0.219v-4.923
					C95.762,80.49,95.816,80.551,95.816,80.61z"/>
				<path fill="#FFFFFF" d="M98.249,80.235c0.541,0,1.082,0.412,1.082,1.186c0,0.638-0.303,0.998-0.827,1.305
					c0.66,0.346,1.065,0.796,1.065,1.516c0,0.864-0.668,1.328-1.326,1.328c-0.756,0-1.336-0.555-1.336-1.328
					c0-0.712,0.429-1.17,1.057-1.516c-0.541-0.314-0.819-0.675-0.819-1.289C97.145,80.745,97.63,80.235,98.249,80.235z
					 M98.234,82.875c-0.604,0.316-1.042,0.691-1.042,1.389c0,0.639,0.485,1.052,1.057,1.052c0.574,0,1.059-0.421,1.033-1.096
					C99.259,83.566,98.838,83.191,98.234,82.875z M97.582,84.88c-0.144-0.157-0.23-0.367-0.23-0.616
					c0-0.524,0.246-0.869,0.883-1.215l0.206,0.119c-0.54,0.301-0.931,0.691-0.931,1.329C97.51,84.632,97.533,84.76,97.582,84.88z
					 M97.423,81.413c0,0.653,0.327,0.9,0.812,1.171c0.571-0.308,0.818-0.549,0.818-1.171c0-0.593-0.39-0.923-0.804-0.923
					C97.837,80.49,97.423,80.828,97.423,81.413z M97.582,81.413c0-0.442,0.294-0.772,0.667-0.772c0.112,0,0.223,0.029,0.311,0.082
					c-0.755,0.022-0.93,0.841-0.755,1.366C97.638,81.908,97.582,81.705,97.582,81.413z M99.888,84.475
					c0,0.75-0.542,1.328-1.328,1.328c-0.189,0-0.374-0.03-0.532-0.098c0.071,0.008,0.144,0.015,0.216,0.015
					c0.849,0,1.486-0.63,1.486-1.479c0-0.247-0.05-0.472-0.136-0.675C99.784,83.814,99.888,84.114,99.888,84.475z M99.49,81.421
					c0-0.21-0.04-0.398-0.111-0.571c0.183,0.218,0.27,0.511,0.27,0.804c0,0.585-0.254,0.931-0.651,1.2l-0.199-0.135
					C99.275,82.381,99.49,81.976,99.49,81.421z"/>
			</g>
		</g>
	</g>
</g>
</svg>
