<?xml version="1.0" encoding="utf-8"?>
<!-- Generator: Adobe Illustrator 16.0.0, SVG Export Plug-In . SVG Version: 6.00 Build 0)  -->
<!DOCTYPE svg PUBLIC "-//W3C//DTD SVG 1.1//EN" "http://www.w3.org/Graphics/SVG/1.1/DTD/svg11.dtd">
<svg version="1.1" xmlns="http://www.w3.org/2000/svg" xmlns:xlink="http://www.w3.org/1999/xlink" x="0px" y="0px"
	 width="170.08px" height="170.08px" viewBox="0 0 170.08 170.08" enable-background="new 0 0 170.08 170.08" xml:space="preserve">
<g id="Layer_2" display="none">
	<rect display="inline" fill="#2E3192" width="170.08" height="170.08"/>
</g>
<g id="Layer_1">
	<g>
		<g>
			<defs>
				<rect id="SVGID_1_" x="36.814" y="60.817" width="0" height="0"/>
			</defs>
			<clipPath id="SVGID_2_">
				<use xlink:href="#SVGID_1_"  overflow="visible"/>
			</clipPath>
			<g clip-path="url(#SVGID_2_)">
				<defs>
					<rect id="SVGID_3_" x="36.814" y="60.817" width="0" height="0"/>
				</defs>
				<clipPath id="SVGID_4_">
					<use xlink:href="#SVGID_3_"  overflow="visible"/>
				</clipPath>
			</g>
			<g clip-path="url(#SVGID_2_)">
				<defs>
					<rect id="SVGID_5_" x="36.814" y="60.817" width="0" height="0"/>
				</defs>
				<clipPath id="SVGID_6_">
					<use xlink:href="#SVGID_5_"  overflow="visible"/>
				</clipPath>
			</g>
			<g clip-path="url(#SVGID_2_)">
				<defs>
					<rect id="SVGID_7_" x="36.814" y="60.817" width="0" height="0"/>
				</defs>
				<clipPath id="SVGID_8_">
					<use xlink:href="#SVGID_7_"  overflow="visible"/>
				</clipPath>
				<path clip-path="url(#SVGID_8_)" fill="#FFFFFF" d="M36.814,60.817L36.814,60.817L36.814,60.817L36.814,60.817L36.814,60.817
					L36.814,60.817L36.814,60.817L36.814,60.817L36.814,60.817L36.814,60.817L36.814,60.817L36.814,60.817L36.814,60.817
					L36.814,60.817L36.814,60.817L36.814,60.817L36.814,60.817L36.814,60.817L36.814,60.817L36.814,60.817 M36.814,60.817
					L36.814,60.817L36.814,60.817L36.814,60.817L36.814,60.817L36.814,60.817L36.814,60.817L36.814,60.817L36.814,60.817
					L36.814,60.817L36.814,60.817 M36.814,60.817L36.814,60.817L36.814,60.817L36.814,60.817L36.814,60.817L36.814,60.817
					L36.814,60.817L36.814,60.817L36.814,60.817L36.814,60.817L36.814,60.817 M36.814,60.817L36.814,60.817L36.814,60.817
					L36.814,60.817L36.814,60.817 M36.814,60.817L36.814,60.817L36.814,60.817L36.814,60.817L36.814,60.817L36.814,60.817
					L36.814,60.817L36.814,60.817L36.814,60.817L36.814,60.817L36.814,60.817L36.814,60.817L36.814,60.817L36.814,60.817
					L36.814,60.817L36.814,60.817L36.814,60.817L36.814,60.817L36.814,60.817L36.814,60.817L36.814,60.817L36.814,60.817
					L36.814,60.817 M36.814,60.817L36.814,60.817L36.814,60.817 M36.814,60.817L36.814,60.817L36.814,60.817L36.814,60.817
					 M36.814,60.817L36.814,60.817L36.814,60.817L36.814,60.817 M36.814,60.817L36.814,60.817L36.814,60.817L36.814,60.817
					L36.814,60.817L36.814,60.817L36.814,60.817L36.814,60.817L36.814,60.817L36.814,60.817L36.814,60.817L36.814,60.817
					L36.814,60.817L36.814,60.817L36.814,60.817L36.814,60.817L36.814,60.817L36.814,60.817L36.814,60.817L36.814,60.817
					L36.814,60.817L36.814,60.817 M36.814,60.817L36.814,60.817L36.814,60.817L36.814,60.817L36.814,60.817L36.814,60.817
					L36.814,60.817L36.814,60.817L36.814,60.817L36.814,60.817L36.814,60.817L36.814,60.817L36.814,60.817L36.814,60.817
					L36.814,60.817L36.814,60.817L36.814,60.817L36.814,60.817L36.814,60.817L36.814,60.817L36.814,60.817L36.814,60.817
					L36.814,60.817L36.814,60.817L36.814,60.817L36.814,60.817L36.814,60.817"/>
			</g>
		</g>
	</g>
	<g>
		<g>
			<defs>
				<rect id="SVGID_9_" width="170.18" height="170.174"/>
			</defs>
			<clipPath id="SVGID_10_">
				<use xlink:href="#SVGID_9_"  overflow="visible"/>
			</clipPath>
			<g clip-path="url(#SVGID_10_)">
				<path fill="#FFFFFF" d="M20.457,123.064c-0.139-0.196-0.253-0.244-0.406-0.434c-0.313-0.427-0.591-0.891-0.925-1.291
					c-0.261-0.329-0.39-0.78-0.651-1.109c-0.197-0.275-0.437-0.562-0.515-0.915c-0.078-0.425,0.298-0.873,0.701-0.993
					c0.282-0.076,0.286,0.137,0.41,0.341c0.434,0.795,0.958,1.524,1.314,2.378c0.201,0.452,0.372,0.917,0.494,1.391
					c0.038,0.141,0.251,0.962,0.146,1.034C20.829,123.605,20.545,123.198,20.457,123.064z M20.118,121.146
					c-0.465-0.581-0.558-1.376-1.05-1.942c0.189,0.26,0.303,0.647,0.449,0.93C19.68,120.479,19.849,120.837,20.118,121.146z"/>
			</g>
			<g clip-path="url(#SVGID_10_)">
				<path fill="#FFFFFF" d="M26.569,138.554c-0.142,0.128-0.271,0.169-0.455,0.19c-0.826,0.075-1.88,0.086-2.549-0.521
					c-0.264-0.237-0.395-0.538-0.444-0.862c-0.001-0.078-0.025-1.123,0.025-1.162c0.01,0.012,0.02,0.024,0.026,0.06
					c0.005-0.045-0.001-0.079-0.011-0.092c-0.009,0.066-0.034-0.174-0.041-0.209c-0.002-0.159,0.027-0.302,0.066-0.434
					c0.057-0.264,0.089-0.509,0.11-0.767c0.002-0.103,0.238-1.226,0.394-1.207c0.022,0.004-0.024,0.1,0.02,0.105l0.076-0.318
					l-0.025,0.02c-0.058,0.004,0.552-1.651,0.607-1.813c0.104-0.281,0.194-0.633,0.385-0.88c0.028-0.041,0.075-0.059,0.117-0.029
					c0.041-0.052,0.049-0.118,0.036-0.188l0.266-0.566c-0.452,0.169-0.827,0.438-1.288,0.594c-0.667,0.253-1.292,0.536-1.917,0.817
					l-0.77,0.354c-0.193,0.089-0.447,0.305-0.666,0.333c-0.462,0.077-0.296-0.694-0.204-0.966c0.211-0.766,0.987-0.983,1.634-1.262
					c0.565-0.256,1.138-0.477,1.729-0.672c0.471-0.144,0.875-0.375,1.32-0.578c1.169-0.46,2.383-0.837,3.572-1.272
					c1.065-0.36,2.135-0.744,3.249-1.043c0.202-0.075,0.437-0.136,0.681-0.185l0.281-0.076c0.003-0.022,0.019-0.055,0.031-0.064
					c0.415-0.061,0.646,0.525,0.648,0.865c0.038,0.672-0.53,0.509-0.999,0.63c-0.165,0.047-0.233,0.14-0.413,0.219
					c-0.322,0.128-0.693,0.193-1.012,0.3c-0.459,0.133-0.908,0.279-1.37,0.436l-0.741,0.21c-0.269,0.068-0.474,0.166-0.708,0.306
					c-0.448,0.226-0.987,0.28-1.455,0.48c0.954,0.248,1.868,0.445,2.839,0.559c1.008,0.085,1.967,0.287,2.994,0.317
					c0.972,0.012,2.161,0.096,3.068-0.262c0.155-0.059,0.276-0.214,0.385,0.004c0.141,0.313-0.197,0.914-0.397,1.149l-0.025,0.02
					c-0.472,0.505-1.088,0.539-1.775,0.508c-0.483-0.029-0.947-0.032-1.45-0.085c-0.246-0.031-0.422,0.024-0.661,0.027
					c-0.238,0.005-0.512-0.065-0.744-0.107c-0.476-0.095-0.968-0.135-1.443-0.23c-0.318-0.074-0.626-0.058-0.948-0.11
					c-0.908-0.162-1.865-0.467-2.707-0.88c-0.239,0.626-0.466,1.241-0.618,1.901c0.073-0.217,0.194-0.633,0.311-0.923
					c-0.218,0.811-0.601,2.551-0.649,2.748c-0.049,0.56-0.086,1.109-0.157,1.667c-0.049,0.379-0.134,0.866-0.11,1.21l0.027-0.122
					c0.025-0.02,0.17,0.61,0.184,0.681c0.06,0.155,0.119,0.31,0.228,0.426c0.291,0.298,0.858,0.461,1.243,0.465
					C26.595,138.274,26.87,138.241,26.569,138.554z M25.97,128.602c-1.242,0.497-2.525,0.966-3.728,1.514
					c0.478-0.188,0.993-0.325,1.493-0.51c0.645-0.258,1.25-0.564,1.863-0.837c0.013-0.01,0.025-0.02,0.047-0.017L25.97,128.602z
					 M25.129,132.763c-0.058,0.186-0.084,0.385-0.12,0.573l0.1-0.417L25.129,132.763z M25.644,130.96l-0.024,0.1L25.644,130.96z
					 M25.724,130.777l-0.064,0.15C25.693,130.843,25.711,130.787,25.724,130.777z"/>
			</g>
			<g clip-path="url(#SVGID_10_)">
				<path fill="#FFFFFF" d="M33.001,139.562c-0.022-0.022-0.211-0.126-0.189-0.126c-0.156-0.069-0.123-0.059-0.303-0.039
					c-0.226,0.042-0.451,0.105-0.666,0.158c-0.089-0.001-1.092,0.174-1.135,0.062c0,0,0.202-0.02,0.203-0.042l-0.708,0.044
					c0.067,0.002,0.101,0.014,0.089,0.024c-0.26,0.12-0.853-0.036-1.144-0.085c-0.313-0.05-0.66-0.157-0.927-0.363
					c-0.243-0.205-0.441-0.501-0.548-0.816c-0.321-0.995,0.205-2.277,1.254-2.588c0.553-0.159,1.097-0.42,1.727-0.5
					c0.349-0.028,0.708-0.045,1.056,0.039c0.157,0.025,0.314,0.073,0.469,0.142c0.123,0.036,0.3,0.197,0.401,0.209
					c0.112,0.024,0.476-0.193,0.611-0.237c0.136-0.042,0.282-0.074,0.417-0.095c0.383-0.061,0.799-0.088,1.168,0.019
					c0.592,0.178,0.751,0.775,0.743,1.338c0,0,0.062,0.315-0.017,0.37l0.001-0.089l-0.047,0.133l-0.001,0.022
					c0.059-0.122,0.021,0.181,0.021,0.181c-0.037,0.145-0.105,0.279-0.187,0.401c-0.126,0.188-0.308,0.343-0.49,0.476
					c-0.466,0.362-1.021,0.656-1.553,0.931c0.388,0.285,0.8,0.551,1.189,0.815c0.1,0.059,0.234,0.083,0.21,0.217
					c-0.012,0.033-0.012,0.011-0.012,0.011C34.53,140.912,33.146,139.666,33.001,139.562z M31.928,138.522
					c-0.418-0.568-0.798-1.395-0.349-2.071c-0.169,0.008-0.598,0.113-1.106,0.273l0.169-0.031c-0.136,0.089-3.205,0.939-2.151,1.753
					l0.011,0.012C29.426,139.113,30.946,138.833,31.928,138.522z M35.026,136.584c0.132-0.571-0.79-0.496-1.183-0.445
					c-0.012-0.012-0.023-0.001-0.023-0.001l-0.033,0.011l0.011-0.012c-0.034,0.012-0.057,0.011-0.045,0.022
					c-0.136,0.02-0.27,0.018-0.462,0.071c0.023,0.001,0.349-0.073,0.327-0.028c-0.036,0.101-0.611,0.237-0.712,0.27
					c-0.249,0.108-0.487,0.229-0.703,0.393c-0.216,0.166-0.455,0.353-0.437,0.646c0.008,0.169,0.128,0.338,0.239,0.476
					c0.056,0.079,0.176,0.25,0.266,0.296c0.133,0.092,0.065,0.091,0.235,0.037c0.451-0.105,0.94-0.444,1.337-0.674
					C34.181,137.425,34.896,137.042,35.026,136.584z M33.843,136.139l-0.023-0.001C33.819,136.138,33.831,136.149,33.843,136.139z"
					/>
			</g>
			<g clip-path="url(#SVGID_10_)">
				<path fill="#FFFFFF" d="M37.345,144.523c-0.804,0.271-1.891,0.188-2.647-0.176c-0.093-0.039-0.346-0.28-0.458-0.272
					c-0.125-0.003-0.48,0.383-0.575,0.468c-0.182,0.137-0.364,0.273-0.558,0.399c-0.776,0.505-1.609,1.148-2.504,1.401
					c-0.783,0.224-1.672,0.061-1.861-0.861c-0.168-0.799,0.541-1.614,1.057-2.134c1.24-1.279,2.831-2.044,4.285-2.989
					c1.368-0.895,2.889-1.529,4.423-2.131c0.843-0.34,1.733-0.661,2.629-0.893c0.642-0.157,1.797-0.541,2.401-0.121
					c1.194,0.828-0.582,2.168-1.289,2.521c-1.351,0.657-2.862,1.111-4.338,1.405c-0.888,0.175-1.792,0.316-2.705,0.447
					c-0.279,0.031-0.57,0.073-0.86,0.094c-0.235,0.027-0.3,0.055-0.529,0.172c-0.216,0.128-0.421,0.243-0.615,0.369
					c-0.802,0.461-1.579,0.943-2.341,1.479c-0.514,0.374-1.194,0.814-1.502,1.389l-0.017-0.078l0.001,0.022
					c-0.284,1.247,1.92,0.238,2.376,0.004c0.654-0.315,1.269-0.685,1.847-1.13c0.128-0.1,0.345-0.228,0.425-0.368
					c0.102-0.164,0.106-0.412,0.207-0.577c0.17-0.315,0.441-0.627,0.74-0.851c0.312-0.213,0.738-0.243,0.65,0.27
					c-0.053,0.207-0.174,0.396-0.287,0.572c-0.092,0.13-0.359,0.34-0.405,0.489c-0.074,0.23,0.297,0.385,0.503,0.438
					c0.773,0.272,1.677,0.153,2.47,0.042c0.122-0.02,1.304-0.36,1.139,0.022l-0.011,0.012
					C38.737,144.473,37.797,144.392,37.345,144.523z M29.583,144.467c0.365-0.419,1.024-0.814,1.27-1
					c0.288-0.234,0.61-0.46,0.923-0.65c-0.195,0.104-0.389,0.23-0.583,0.356C30.642,143.492,29.971,143.899,29.583,144.467z
					 M35.453,140.963c1.496-0.194,2.983-0.501,4.402-0.971c0.408-0.129,3.55-1.418,3.209-1.945
					c-0.115-0.184-0.467-0.068-0.645-0.034c-0.689,0.138-1.346,0.408-2.003,0.657c-1.328,0.508-2.624,1.128-3.909,1.758
					c0.022-0.002-0.031,0.036-0.239,0.129l0.01-0.012c-0.01,0.012-0.033,0.014-0.043,0.025L35.453,140.963z M36.508,140.428
					l-0.119,0.064C36.432,140.467,36.498,140.439,36.508,140.428z"/>
			</g>
			<g clip-path="url(#SVGID_10_)">
				<path fill="#FFFFFF" d="M41.987,147.857c-0.779,0.333-1.869,0.337-2.652,0.035c-0.096-0.031-0.368-0.252-0.479-0.235
					c-0.125,0.007-0.449,0.419-0.537,0.513c-0.17,0.15-0.342,0.301-0.524,0.441c-0.733,0.564-1.513,1.272-2.384,1.596
					c-0.763,0.285-1.663,0.193-1.924-0.71c-0.231-0.783,0.411-1.652,0.883-2.212c1.135-1.374,2.659-2.262,4.034-3.319
					c1.292-1,2.758-1.754,4.24-2.476c0.814-0.406,1.675-0.797,2.55-1.099c0.626-0.208,1.749-0.683,2.384-0.312
					c1.256,0.73-0.408,2.207-1.084,2.615c-1.294,0.762-2.765,1.334-4.213,1.745c-0.872,0.245-1.76,0.457-2.661,0.661
					c-0.276,0.053-0.562,0.117-0.85,0.161c-0.232,0.046-0.295,0.078-0.514,0.213c-0.205,0.145-0.401,0.276-0.584,0.418
					c-0.762,0.522-1.499,1.064-2.216,1.66c-0.482,0.414-1.124,0.907-1.386,1.504l-0.023-0.077l0.003,0.022
					c-0.185,1.267,1.933,0.085,2.369-0.185c0.627-0.366,1.211-0.784,1.751-1.273c0.12-0.109,0.325-0.254,0.394-0.4
					c0.087-0.172,0.073-0.419,0.161-0.592c0.145-0.328,0.39-0.66,0.67-0.907c0.293-0.236,0.716-0.3,0.668,0.218
					c-0.036,0.21-0.143,0.408-0.24,0.593c-0.082,0.137-0.331,0.368-0.365,0.521c-0.055,0.235,0.326,0.359,0.536,0.396
					c0.792,0.21,1.684,0.02,2.464-0.154c0.12-0.029,1.271-0.463,1.137-0.068l-0.009,0.014
					C43.371,147.695,42.428,147.689,41.987,147.857z M34.247,148.418c0.33-0.447,0.956-0.894,1.186-1.099
					c0.268-0.256,0.571-0.506,0.868-0.721c-0.186,0.119-0.369,0.26-0.553,0.401C35.224,147.362,34.588,147.82,34.247,148.418z
					 M39.819,144.458c1.475-0.313,2.934-0.735,4.312-1.317c0.396-0.162,3.425-1.695,3.043-2.194
					c-0.127-0.173-0.469-0.031-0.644,0.018c-0.676,0.191-1.309,0.514-1.944,0.814c-1.283,0.612-2.527,1.333-3.756,2.063
					c0.021-0.003-0.028,0.038-0.229,0.147l0.01-0.013c-0.01,0.013-0.032,0.017-0.041,0.029L39.819,144.458z M40.829,143.841
					l-0.115,0.074C40.755,143.886,40.819,143.854,40.829,143.841z"/>
			</g>
			<g clip-path="url(#SVGID_10_)">
				<path fill="#FFFFFF" d="M45.564,149.421c-0.441,0.187-0.862,0.368-1.323,0.524c-0.5,0.188-1.204,0.545-1.74,0.35
					c-0.115-0.056-0.536-0.517-0.47-0.589l0.026,0.018c-0.072-0.122-0.043,0.067-0.125-0.157c-0.069-0.157-0.071-0.329-0.073-0.5
					c-0.018-0.296-0.092-0.59,0.009-0.864c0.03-0.075,0.314-0.573,0.421-0.503c0.026,0.016-0.043,0.066-0.03,0.074l0.196-0.214
					c-0.032,0.019-0.041,0.031-0.075,0.027c-0.045-0.048,0.821-0.831,0.899-0.894c0.288-0.211,0.55-0.496,0.92-0.483
					c0.286-0.004,0.522,0.187,0.706,0.457c0.081,0.109,0.301,0.441,0.214,0.575c-0.052,0.079-0.127,0.05-0.192,0.063
					c0.022-0.005,0.048,0.013,0.062,0.021c0.023,0.053-0.359,0.203-0.377,0.172c-0.025-0.017,0.058-0.058,0.097-0.089
					c-0.521,0.25-1.037,0.578-1.499,0.941c0.18-0.131,0.996-0.662,1.027-0.622c0.032,0.039-1.924,1.044-1.618,1.563
					c0.144,0.245,0.72,0.145,0.944,0.12c0.384-0.036,0.894-0.065,1.228-0.171c-0.045,0.009-0.07-0.008-0.111-0.034
					c-0.009-0.101,1.227-0.55,1.398-0.552c0.137-0.006,0.358,0.062,0.273,0.252C46.241,149.196,45.811,149.334,45.564,149.421z
					 M42.806,148.714l-0.095,0.089l0.078-0.063l0.009-0.014C42.828,148.709,42.828,148.709,42.806,148.714z M45.112,145.533
					c0.012-0.05,0.24-0.489,0.343-0.328c0.026-0.039,0.316-0.136,0.123-0.014c0.224-0.083,0.451-0.2,0.674-0.34l-0.315,0.137
					c0.276-0.162,0.782-0.535,0.855-0.619c0.009-0.014,0.06-0.151,0.104-0.16c-0.211-0.289,0.093-0.319,0.273-0.335
					c-0.026-0.017-0.04-0.025-0.037-0.062c-0.019-0.087,0.167-0.023,0.215-0.011c0.24,0.04,0.454,0.235,0.566,0.441
					c0.086,0.188,0.091,0.475,0.04,0.669c-0.059,0.209-0.322,0.321-0.51,0.352c-0.088,0.018-0.208-0.002-0.309,0.008
					c-0.141,0.042-0.205,0.17-0.332,0.221c-0.084,0.041-0.182,0.015-0.264,0.057c-0.08,0.005-0.105,0.045-0.091,0.111
					c-0.071-0.009-0.127-0.008-0.193,0.006c-0.272,0.127-0.43,0.196-0.667,0.212c0.207,0.002,0.353-0.018,0.599-0.104
					c0.192-0.064,0.372-0.08,0.575-0.044c-0.228,0.062-0.367,0.217-0.595,0.22c-0.221-0.01,0.046-0.102-0.231-0.054
					c0,0,0.089,0.038,0.032,0.039c-0.188,0.029-0.421,0.124-0.624,0.088c-0.097-0.024-0.185-0.006-0.252-0.106
					c-0.059-0.113,0.016-0.141,0.015-0.199C45.105,145.717,45.104,145.546,45.112,145.533z M45.469,145.215
					c0.014,0.008,0.005,0.021,0.005,0.021c0.021-0.004,0.021-0.004,0.03-0.018C45.482,145.223,45.482,145.223,45.469,145.215z
					 M45.907,145.006c-0.062,0.036-0.105,0.046-0.105,0.046L45.907,145.006z"/>
			</g>
			<g clip-path="url(#SVGID_10_)">
				<path fill="#FFFFFF" d="M50.646,151.54l-0.75,0.323l-1.295,0.545c-0.334,0.139-0.702,0.24-1.036,0.379
					c-0.365,0.159-0.708,0.348-1.092,0.477c-0.398,0.121-0.845,0.233-1.279,0.225c-0.305-0.008-0.533-0.12-0.743-0.33
					c-0.305-0.301-0.497-0.701-0.575-1.111c-0.022-0.122-0.051-0.23-0.003-0.35c0.034-0.09,0.075-0.194,0.129-0.291
					c0.081-0.174,0.207-0.267,0.328-0.417c0.13-0.164,0.306-0.282,0.437-0.446c0.136-0.178,0.293-0.326,0.424-0.49
					c0.107-0.158,0.182-0.354,0.317-0.496c0.09-0.095,0.236-0.158,0.347-0.259c-0.088,0.06-0.204,0.103-0.257,0.164
					c-0.104,0.087-0.194,0.183-0.291,0.256c-0.104,0.087-0.172,0.175-0.276,0.263c-0.126,0.093-0.244,0.172-0.336,0.303
					c-0.085,0.116-0.141,0.248-0.226,0.364c-0.098,0.109-0.18,0.19-0.25,0.314c-0.023,0.041-0.043,0.141-0.059,0.168
					c-0.031,0.056-0.098,0.108-0.137,0.178c-0.07,0.124-0.113,0.265-0.178,0.41c-0.001-0.512,0.26-0.876,0.563-1.251
					c0.305-0.375,0.586-0.745,0.91-1.09c0.643-0.714,1.471-1.304,2.363-1.655c0.75-0.323,1.559-0.431,2.227,0.131
					c0.245,0.212,0.479,0.509,0.525,0.845c0.044,0.373-0.157,0.696-0.426,0.945c-0.485,0.438-1.185,0.607-1.817,0.723
					c-0.265,0.051-0.544,0.093-0.823,0.1c-0.186,0.005-0.368-0.026-0.551-0.057l-0.283-0.051c-0.112-0.027-0.118-0.049-0.207,0.011
					c-0.146,0.099-0.184,0.261-0.29,0.383c-0.129,0.164-0.265,0.307-0.408,0.463c-0.257,0.292-0.611,0.658-0.724,1.05
					c-0.248,0.791,1.531,0.357,1.849,0.282c0.208-0.046,0.411-0.114,0.606-0.167c0.117-0.044,0.239-0.066,0.341-0.117
					c0,0,0.066-0.055,0.082-0.082c0.315-0.168,0.678-0.292,1.025-0.423c0.413-0.149,0.807-0.328,1.221-0.513
					c0.227-0.108,0.807-0.455,0.816,0.043l-0.008,0.014c0.007,0.021,0.007,0.021,0.015,0.008
					C50.842,151.45,50.762,151.496,50.646,151.54z M46.905,149.857c0.577,0.016,1.157-0.074,1.688-0.268l0.406-0.171
					c0.081-0.045,0.173-0.048,0.248-0.114c0.053-0.062,0.058-0.133,0.118-0.207l0.22-0.26c0.092-0.13,0.24-0.521,0.009-0.597
					c-0.112-0.027-0.279,0.042-0.374,0.08l-0.437,0.19c-0.533,0.264-0.951,0.647-1.409,0.972c0,0-0.008,0.015-0.037,0.034
					C47.189,149.617,47.062,149.745,46.905,149.857z"/>
			</g>
			<g clip-path="url(#SVGID_10_)">
				<path fill="#FFFFFF" d="M58.979,155.367c-0.233-0.057-0.352-0.017-0.591-0.059c-0.517-0.115-1.032-0.279-1.547-0.359
					c-0.413-0.075-0.809-0.33-1.222-0.405c-0.329-0.076-0.698-0.134-0.99-0.35c-0.339-0.267-0.352-0.852-0.128-1.208
					c0.162-0.242,0.305-0.085,0.534-0.015c0.849,0.313,1.726,0.515,2.555,0.922c0.448,0.207,0.885,0.444,1.289,0.72
					c0.123,0.081,0.823,0.557,0.792,0.682C59.614,155.528,59.133,155.41,58.979,155.367z M57.457,154.148
					c-0.732-0.131-1.326-0.666-2.07-0.768c0.313,0.07,0.656,0.288,0.952,0.402C56.688,153.936,57.053,154.094,57.457,154.148z"/>
			</g>
			<g clip-path="url(#SVGID_10_)">
				<path fill="#FFFFFF" d="M78.04,151.825c-0.292,0.004-0.659-0.105-0.942-0.067c-0.017-0.003-0.082,0.08-0.132,0.086
					c-0.068,0.018-0.151,0.018-0.215,0.02c-0.212,0.004-0.421-0.007-0.614-0.016l-1.158-0.047c-0.271-0.025-0.705-0.197-0.903,0.053
					c-0.044,0.057-0.05,0.152-0.081,0.227c-0.102,0.174-0.261,0.318-0.391,0.47l-0.839,1.058c-0.409,0.482-0.735,1.031-1.102,1.538
					c-0.208,0.298-0.463,0.585-0.629,0.907c-0.118,0.251-0.22,0.506-0.387,0.763c-0.773,1.136-1.638,2.237-2.372,3.413
					c-0.53,0.831-1.612,2.584-2.849,2.21c-0.687-0.208-1.16-0.811-1.356-1.501c-0.151-0.519-0.203-1.277-0.107-1.809
					c0.022-0.108,0.047-0.299,0.141-0.359c0.248-0.176,0.418,0.25,0.494,0.428c0.262,0.607,0.456,1.313,0.896,1.844
					c0.209,0.239,0.268,0.268,0.507,0.058c0.49-0.4,0.89-0.998,1.201-1.55c0.787-1.344,1.646-2.657,2.506-3.97
					c0.843-1.315,1.66-2.654,2.635-3.895c-0.274-0.009-0.544-0.032-0.817-0.058c-0.208-0.011-0.364,0.037-0.575,0.041
					c-0.347,0.025-0.704-0.05-1.057-0.075c-0.397-0.034-0.796-0.069-1.163-0.26c-0.349-0.188-0.845-0.843-0.242-1.009
					c0.19-0.057,0.461-0.033,0.62-0.016c0.772,0.032,1.532,0.046,2.288,0.155c0.317,0.034,0.589,0.059,0.897,0.059
					c0.165-0.015,0.327-0.013,0.486,0.004c0.142,0.014,0.401,0.101,0.541,0.049c0.228-0.081,0.28-0.33,0.415-0.432
					c0.251-0.19,0.711-0.063,0.959,0.071c0.261,0.152,0.296,0.289,0.446,0.5c0.074,0.112-0.06,0.052,0.071,0.128
					c0.089,0.035,0.22,0.03,0.302,0.031c0.186,0.039,0.375,0.063,0.565,0.086c0.752,0.125,1.502,0.267,2.239,0.47
					c0.074,0.032,0.163,0.066,0.242,0.083c0.034-0.009,0.07-0.099,0.144-0.067c0.073,0.032,0.111,0.089,0.11,0.17
					C78.788,151.901,78.218,151.83,78.04,151.825z M73.662,151.962c-0.449,0.44-1.119,1.08-1.468,1.591
					c-0.414,0.579-1.465,2.257-1.941,2.984c0.435-0.606,1.562-2.188,1.883-2.559C72.658,153.342,73.107,152.592,73.662,151.962z"/>
			</g>
			<g clip-path="url(#SVGID_10_)">
				<path fill="#FFFFFF" d="M79.64,158.904c0.064-0.01-0.455,0.83-0.527,0.902c-0.277,0.354-0.569,0.707-0.86,1.044
					c-0.531,0.647-1.042,1.408-1.704,1.931c-0.242,0.182-0.411,0.275-0.71,0.229c-0.363-0.054-0.583-0.237-0.795-0.498
					c-0.042-0.053-0.43-0.461-0.373-0.566l0.081,0.152c-0.04-0.084-0.063-0.167-0.085-0.265l-0.006,0.063
					c-0.052,0.043-0.12-0.539-0.113-0.602c0.009-0.239,0.082-0.471,0.154-0.703c0.15-0.368,0.301-0.735,0.436-1.104
					c0.152-0.385,0.396-0.742,0.625-1.102c0.039-0.06,0.403-0.645,0.467-0.638c-0.001,0.016-0.08,0.151-0.066,0.169l0.293-0.513
					l-0.053,0.043l0.575-1.058c-0.635,0.412-1.161,1.012-1.678,1.533c-0.25,0.245-0.489,0.555-0.781,0.748
					c-0.103,0.069-0.129,0.019-0.218,0.104c-0.071,0.073-0.13,0.179-0.188,0.268c-0.426,0.563-0.94,1.053-1.381,1.597l-0.338,0.476
					c-0.04,0.076-0.044,0.124-0.116,0.195c-0.229,0.201-0.583,0.083-0.734-0.156c-0.125-0.173-0.119-0.396-0.099-0.586
					c0.009-0.701,0.245-1.427,0.443-2.093c0.424-1.457,0.943-2.904,1.583-4.29c0.561-1.235,1.329-2.32,2.071-3.457
					c0.002-0.016,0.117-0.339,0.2-0.378c-0.017,0.014-0.142,0.288-0.142,0.288l0.228-0.344c0,0-0.016-0.001-0.03-0.019
					c0.03-0.284,0.422-0.675,0.604-0.895c0.26-0.341,0.533-0.663,0.822-0.984c0.508-0.569,1.005-1.204,1.653-1.601
					c0.34-0.203,0.743-0.384,1.15-0.31c0.205,0.021,0.402,0.122,0.531,0.279c0.056,0.069,0.29,0.589,0.188,0.643
					c0,0-0.053-0.245-0.07-0.247c0.068,0.263,0.054,0.549,0.012,0.8c0.019-0.03,0.021-0.046,0.037-0.044
					c0.078,0.008-0.422,1.425-0.466,1.548c-0.216,0.536-0.493,1.051-0.785,1.547c-0.653,1.05-1.424,2.167-2.329,3.03
					c-0.177,0.157-0.395,0.263-0.552,0.389c-0.176,0.157-0.309,0.368-0.488,0.541c-0.459,0.43-0.948,0.826-1.45,1.189
					c-0.296,0.225-0.404,0.356-0.567,0.691c-0.146,0.32-0.275,0.642-0.42,0.946c-0.271,0.609-0.527,1.222-0.769,1.852
					c0.312-0.383,0.637-0.748,0.979-1.111c-0.229,0.216-0.391,0.374-0.391,0.374c-0.029-0.019,2.216-2.243,2.445-2.442
					c0.527-0.456,1.509-1.455,2.115-0.529c0.345,0.531-0.017,1.084-0.304,1.533c-0.502,0.826-1.114,1.784-1.459,2.643
					c0.017-0.015,0.122-0.243,0.166-0.207c0.084,0.104-0.277,0.817-0.324,0.956c-0.028,0.109-0.19,0.604-0.073,0.695
					c0.19,0.164,0.598-0.225,0.754-0.336c0.626-0.493,1.212-1.055,1.797-1.601c0.214-0.217,0.43-0.449,0.675-0.648
					c0.052-0.041,0.179-0.188,0.258-0.181C79.57,158.801,79.736,158.897,79.64,158.904z M74.481,155.393
					c-0.025,0.077-0.114,0.323-0.083,0.327c-0.045-0.021,0.76-1.613,0.84-1.765c0.161-0.318,0.38-0.583,0.527-0.919
					c0.165-0.351,0.356-0.649,0.565-0.963c0.251-0.421,2.583-3.93,2.466-4.022c-0.031-0.019-1.85,2.713-2.026,3.015
					c-0.385,0.63-0.862,1.219-1.188,1.888c-0.37,0.791-0.85,1.556-1.081,2.395L74.481,155.393z M74.481,155.393
					c0,0,0.017-0.014,0.019-0.029C74.499,155.379,74.483,155.377,74.481,155.393z M79.261,148.035
					c-0.663,0.842-1.255,1.77-1.844,2.666c-0.534,0.823-1.117,1.672-1.588,2.501c0.056-0.074,0.111-0.147,0.144-0.161
					c0,0-0.429,0.897-0.486,0.987l-0.604,1.198c1.264-1.081,2.384-2.321,3.338-3.658c-0.371,0.488-0.758,0.975-1.155,1.412
					l-0.723,0.818l-0.315,0.255l0.142-0.13c0.178-0.172,0.339-0.347,0.502-0.521c0.308-0.352,0.618-0.718,0.913-1.086
					c0.607-0.768,1.169-1.555,1.641-2.4c0.237-0.438,0.477-0.892,0.655-1.369c0.088-0.229,0.363-0.872,0.161-1.085
					c-0.201-0.212-0.577,0.323-0.723,0.5c0.018-0.015-0.001,0.016-0.021,0.046l0.002-0.016c-0.002,0.016-0.018,0.014-0.018,0.014
					l-0.001,0.016C79.277,148.037,79.261,148.035,79.261,148.035z M75.833,154.225c-0.052,0.043-0.09,0.103-0.125,0.131
					C75.745,154.312,75.781,154.268,75.833,154.225z M79.296,148.008l-0.016-0.002l-0.001,0.016L79.296,148.008z"/>
			</g>
			<g clip-path="url(#SVGID_10_)">
				<defs>
					<rect id="SVGID_11_" width="170.18" height="170.174"/>
				</defs>
				<clipPath id="SVGID_12_">
					<use xlink:href="#SVGID_11_"  overflow="visible"/>
				</clipPath>
				<g clip-path="url(#SVGID_12_)">
					<path fill="#FFFFFF" d="M84.702,159.15l-0.505,0.642l-0.878,1.096c-0.228,0.281-0.502,0.546-0.73,0.828
						c-0.245,0.313-0.457,0.644-0.733,0.939c-0.292,0.297-0.631,0.608-1.017,0.808c-0.272,0.138-0.526,0.149-0.811,0.064
						c-0.411-0.119-0.771-0.38-1.035-0.703c-0.078-0.097-0.155-0.178-0.169-0.305c-0.014-0.096-0.027-0.207-0.025-0.318
						c-0.012-0.191,0.054-0.333,0.089-0.522c0.036-0.206,0.135-0.395,0.17-0.601c0.036-0.223,0.104-0.427,0.139-0.633
						c0.019-0.19-0.008-0.397,0.043-0.587c0.034-0.127,0.131-0.252,0.181-0.394c-0.049,0.094-0.13,0.188-0.147,0.267
						c-0.05,0.127-0.084,0.253-0.134,0.363c-0.05,0.126-0.068,0.237-0.118,0.363c-0.066,0.142-0.132,0.268-0.15,0.426
						c-0.02,0.143-0.005,0.286-0.025,0.429c-0.034,0.143-0.068,0.253-0.071,0.396c-0.001,0.048,0.03,0.144,0.029,0.176
						c-0.001,0.063-0.035,0.143-0.036,0.222c-0.003,0.143,0.027,0.286,0.04,0.445c-0.246-0.449-0.189-0.893-0.102-1.368
						c0.088-0.475,0.16-0.935,0.28-1.393c0.225-0.934,0.669-1.846,1.287-2.581c0.504-0.643,1.165-1.123,2.019-0.947
						c0.317,0.069,0.664,0.219,0.865,0.492c0.217,0.307,0.194,0.688,0.077,1.034c-0.219,0.615-0.752,1.098-1.252,1.502
						c-0.209,0.171-0.435,0.341-0.676,0.479c-0.161,0.093-0.336,0.153-0.512,0.213l-0.272,0.091
						c-0.112,0.029-0.127,0.014-0.177,0.107c-0.082,0.157-0.037,0.317-0.072,0.476c-0.035,0.206-0.087,0.395-0.139,0.601
						c-0.086,0.38-0.222,0.87-0.135,1.269c0.16,0.813,1.517-0.416,1.759-0.635c0.162-0.14,0.308-0.296,0.454-0.437
						c0.081-0.094,0.178-0.171,0.244-0.266c0,0,0.033-0.078,0.033-0.109c0.196-0.298,0.456-0.579,0.7-0.86
						c0.292-0.329,0.553-0.674,0.83-1.034c0.147-0.203,0.491-0.785,0.737-0.352l0,0.017c0.016,0.016,0.016,0.016,0.017,0
						C84.833,158.978,84.783,159.057,84.702,159.15z M80.612,159.455c0.514-0.261,0.981-0.617,1.355-1.039l0.276-0.345
						c0.049-0.078,0.129-0.124,0.163-0.219c0.018-0.079-0.013-0.144,0.005-0.238l0.069-0.332c0.019-0.159-0.037-0.573-0.276-0.53
						c-0.112,0.029-0.226,0.171-0.291,0.249l-0.292,0.376c-0.343,0.486-0.528,1.022-0.776,1.526c0,0,0,0.016-0.017,0.047
						C80.747,159.107,80.695,159.282,80.612,159.455z"/>
				</g>
				<g clip-path="url(#SVGID_12_)">
					<path fill="#FFFFFF" d="M89.846,158.763l-0.458,0.676l-0.798,1.156c-0.206,0.298-0.462,0.58-0.669,0.878
						c-0.222,0.329-0.409,0.675-0.663,0.99c-0.27,0.316-0.586,0.651-0.956,0.877c-0.262,0.157-0.515,0.187-0.804,0.122
						c-0.418-0.089-0.797-0.323-1.083-0.626c-0.084-0.092-0.168-0.166-0.191-0.292c-0.021-0.095-0.042-0.205-0.048-0.316
						c-0.026-0.189,0.03-0.334,0.051-0.526c0.021-0.209,0.106-0.404,0.127-0.612c0.02-0.223,0.072-0.434,0.093-0.641
						c0.006-0.19-0.037-0.396,0-0.589c0.025-0.128,0.114-0.26,0.154-0.406c-0.043,0.099-0.117,0.198-0.129,0.278
						c-0.041,0.129-0.065,0.257-0.107,0.371c-0.041,0.129-0.05,0.241-0.091,0.371c-0.056,0.145-0.113,0.276-0.121,0.436
						c-0.008,0.144,0.015,0.286,0.007,0.428c-0.024,0.146-0.05,0.259-0.042,0.401c0.003,0.048,0.04,0.141,0.041,0.173
						c0.003,0.063-0.024,0.144-0.02,0.224c0.007,0.143,0.046,0.283,0.071,0.441c-0.277-0.431-0.253-0.877-0.199-1.357
						c0.054-0.48,0.093-0.943,0.18-1.409c0.157-0.947,0.536-1.89,1.099-2.668c0.458-0.676,1.082-1.202,1.947-1.088
						c0.321,0.047,0.677,0.17,0.897,0.43c0.238,0.29,0.242,0.67,0.149,1.025c-0.174,0.63-0.67,1.149-1.141,1.588
						c-0.196,0.186-0.409,0.371-0.64,0.527c-0.153,0.102-0.325,0.176-0.496,0.248l-0.265,0.109c-0.109,0.038-0.126,0.022-0.168,0.12
						c-0.071,0.164-0.015,0.319-0.039,0.479c-0.021,0.208-0.058,0.401-0.094,0.609c-0.06,0.385-0.161,0.884-0.044,1.275
						c0.217,0.799,1.484-0.524,1.71-0.759c0.15-0.15,0.285-0.317,0.421-0.468c0.073-0.1,0.165-0.184,0.224-0.282
						c0,0,0.027-0.081,0.025-0.113c0.175-0.312,0.413-0.609,0.636-0.908c0.268-0.348,0.503-0.711,0.754-1.089
						c0.132-0.214,0.434-0.818,0.71-0.404l0.001,0.016c0.017,0.016,0.017,0.016,0.016-0.001
						C89.963,158.582,89.92,158.663,89.846,158.763z M85.789,159.359c0.493-0.298,0.934-0.687,1.275-1.134l0.252-0.363
						c0.043-0.082,0.12-0.134,0.146-0.231c0.012-0.079-0.023-0.141-0.013-0.237l0.046-0.336c0.008-0.16-0.078-0.569-0.313-0.509
						c-0.108,0.038-0.213,0.187-0.271,0.27l-0.266,0.396c-0.308,0.509-0.453,1.059-0.664,1.579c0,0,0.001,0.016-0.013,0.047
						C85.897,159.004,85.859,159.18,85.789,159.359z"/>
				</g>
			</g>
			<g clip-path="url(#SVGID_10_)">
				<path fill="#FFFFFF" d="M98.942,157.324c-0.227,0.08-0.305,0.176-0.528,0.27c-0.499,0.18-1.022,0.318-1.499,0.528
					c-0.389,0.158-0.859,0.155-1.248,0.314c-0.318,0.112-0.66,0.263-1.022,0.238c-0.43-0.044-0.754-0.529-0.757-0.95
					c0.006-0.293,0.211-0.236,0.442-0.299c0.884-0.194,1.73-0.494,2.65-0.597c0.488-0.067,0.983-0.102,1.473-0.086
					c0.146,0.003,0.994,0.027,1.034,0.149C99.565,157.119,99.096,157.278,98.942,157.324z M97.005,157.114
					c-0.688,0.285-1.477,0.151-2.158,0.466c0.303-0.109,0.707-0.109,1.019-0.172C96.242,157.349,96.635,157.286,97.005,157.114z"/>
			</g>
			<g clip-path="url(#SVGID_10_)">
				<path fill="#FFFFFF" d="M118.54,156.503c0.159,0.208-0.124,0.796-0.213,0.991c-0.159,0.312-0.39,0.583-0.664,0.787
					c-0.566,0.452-1.148,0.425-1.783,0.076c-1.317-0.73-1.73-2.092-1.907-3.467c0,0-0.111-0.299-0.072-0.367
					c0.007,0.014,0.049,0.152,0.059,0.217l-0.04-0.295c0.007,0.015-0.008,0.021-0.022,0.027c-0.119-0.156-0.095-0.581-0.105-0.768
					l0.006-0.867c0.009-0.505-0.007-0.982-0.035-1.489c-0.047-0.551,0.021-1.116,0.045-1.662c0.014-0.091,0.018-0.925,0.082-0.935
					c0,0,0.018,0.199,0.038,0.209c-0.005-0.293-0.023-0.578-0.05-0.878l-0.014,0.248c-0.096-0.185,0.032-0.811-0.306-0.751
					c-0.273,0.049-0.475,0.584-0.572,0.799c-0.399,0.882-0.608,1.802-0.805,2.751c-0.098,0.457-0.165,0.901-0.34,1.34
					c-0.114,0.257-0.093,0.628-0.153,0.931c-0.08,0.537-0.131,1.059-0.203,1.575c-0.044,0.381-0.166,0.78-0.139,1.166
					c0.03,0.471,0.027,0.905-0.607,0.677c-0.619-0.234-0.858-0.79-0.98-1.395c-0.389-1.786-0.205-3.769,0.026-5.563
					c0.101-0.77,0.126-1.594,0.086-2.371c-0.007-0.136,0.016-0.404-0.12-0.398c-0.171,0.005-0.401,0.433-0.473,0.55
					c-0.457,0.785-0.679,1.676-0.906,2.552c-0.223,0.892-0.388,1.793-0.547,2.709c-0.176,0.956-0.316,1.916-0.456,2.876
					c-0.062,0.46-0.159,0.917-0.136,1.373c-0.003,0.435,0.029,0.87,0.047,1.313c0.012,0.271,0.096,0.666,0.038,0.934
					c-0.077,0.345-0.462,0.493-0.798,0.396c-0.294-0.08-0.472-0.332-0.576-0.616c-0.302-0.821-0.323-1.833-0.331-2.694
					c-0.007-0.861,0.013-1.7-0.03-2.563c-0.099-1.757,0.09-3.568-0.165-5.324l0.063,0.145l-0.146-0.577
					c-0.092-0.376-0.257-0.719-0.65-0.429c-0.283,0.226-0.445,0.573-0.559,0.914c-0.286,0.781-0.372,1.666-0.327,2.493
					c0.005,0.171,0.062,0.423,0.085,0.518c0.035,0.123,0.123,0.206,0.064,0.352c-0.112,0.222-0.352,0.187-0.537,0.076
					c-0.385-0.249-0.594-0.816-0.662-1.255c-0.048-0.394,0.094-0.748,0.101-1.131c0-0.122-0.064-0.232-0.027-0.387l0.058-0.267
					c0.086-0.244,0.177-0.475,0.283-0.71c0.216-0.422,0.492-0.784,0.859-1.097c0.404-0.347,0.902-0.596,1.437-0.359
					c0.34,0.147,0.666,0.543,0.877,0.833c0.297,0.409,0.396,1.041,0.446,1.52c0.051,0.479,0.108,0.974,0.145,1.461
					c0.045,0.464,0.055,0.928,0.084,1.398c0.021,0.372,0.095,0.703,0.131,1.068c0.25-1.509,0.539-3.087,1.07-4.543
					c0.262-0.718,0.686-2.906,1.909-2.274c0.56,0.295,0.986,0.924,1,1.559c0.009,0.584-0.167,1.179-0.179,1.755
					c-0.01,1.543-0.135,3.101,0.047,4.648c0.137-1.131,0.286-2.269,0.529-3.393c-0.059,0.268-0.146,0.547-0.184,0.822
					c0.088-0.521,0.17-0.973,0.197-1.07c0.209-0.92,0.453-1.838,0.859-2.704c0.212-0.473,0.515-1.052,1.025-1.272
					c0.592-0.271,1.204,0.105,1.539,0.601c0.779,1.168,0.427,2.721,0.376,4.006c0.003-0.07,0.028-0.133,0.058-0.146
					c0.015-0.006,0.043,1.104,0.037,1.211c0.001,0.483,0.016,0.962,0.011,1.431c0.021,0.891,0.047,1.796,0.211,2.66
					c0.075,0.416,0.191,1.128,0.716,1.179c0.502,0.043,1.143-0.319,1.488-0.641C117.978,156.884,118.396,156.288,118.54,156.503z
					 M105.734,153.992c-0.02-0.77-0.02-1.531,0.018-2.29c0.038-0.795-0.039-1.575-0.158-2.336c0.027,0.265,0.025,0.542,0.025,0.784
					c0.003,0.569,0.063,1.148,0.066,1.719C105.68,152.58,105.704,153.279,105.734,153.992z M111.029,153.598
					c0,0,0.139-0.804,0.254-1.579C111.229,152.456,111.08,153.594,111.029,153.598z M111.294,151.962l-0.011,0.057
					C111.291,151.998,111.3,151.977,111.294,151.962z M111.32,151.863l-0.006-0.015l-0.021,0.113L111.32,151.863z M111.961,149.253
					l0.002-0.034l0.008-0.022c0.007,0.016-0.008,0.022-0.008,0.022l0.008-0.022l0.017-0.04l0.009-0.021l0.01-0.057l-0.016,0.041
					c-0.009,0.021-0.034,0.084-0.037,0.155l-0.007-0.015l-0.011,0.057L111.961,149.253z M111.99,149.119l-0.009,0.021
					C111.996,149.135,111.99,149.119,111.99,149.119z M112.006,149.078l0.295-0.802
					C112.188,148.534,112.094,148.799,112.006,149.078z M114.152,155.107c-0.043-0.501-0.042-1.02-0.034-1.525
					c0.021-0.597,0.06-1.307-0.063-1.875c0.006-0.106-0.013-0.15-0.063-0.146c-0.071,0.238,0.04,0.657,0.047,0.914
					c0.003,0.326,0.005,0.654-0.013,0.974C114,154.031,114.09,154.563,114.152,155.107z M114.192,155.521
					c-0.019,0.077-0.007,0.106,0.044,0.103C114.24,155.553,114.228,155.523,114.192,155.521z"/>
			</g>
			<g clip-path="url(#SVGID_10_)">
				<path fill="#FFFFFF" d="M122.135,147.02l-0.086,0.813l-0.163,1.395c-0.044,0.359-0.137,0.73-0.18,1.09
					c-0.041,0.396-0.046,0.787-0.122,1.186c-0.09,0.406-0.213,0.85-0.433,1.223c-0.157,0.262-0.368,0.406-0.653,0.484
					c-0.412,0.118-0.855,0.089-1.25-0.045c-0.118-0.041-0.227-0.067-0.306-0.168c-0.063-0.074-0.134-0.161-0.191-0.257
					c-0.111-0.155-0.13-0.31-0.201-0.49c-0.079-0.192-0.096-0.406-0.175-0.599c-0.087-0.207-0.139-0.418-0.219-0.609
					c-0.084-0.173-0.218-0.333-0.275-0.521c-0.037-0.125-0.021-0.282-0.055-0.43c0.009,0.106-0.01,0.229,0.018,0.305
					c0.023,0.133,0.063,0.259,0.079,0.379c0.024,0.133,0.067,0.236,0.093,0.37c0.019,0.154,0.029,0.298,0.098,0.441
					c0.061,0.132,0.147,0.245,0.207,0.376c0.047,0.139,0.077,0.251,0.15,0.373c0.025,0.041,0.101,0.105,0.117,0.133
					c0.032,0.055,0.047,0.139,0.088,0.208c0.073,0.122,0.174,0.228,0.27,0.356c-0.447-0.25-0.635-0.656-0.813-1.106
					c-0.178-0.449-0.359-0.876-0.502-1.328c-0.306-0.91-0.412-1.921-0.279-2.871c0.087-0.813,0.392-1.569,1.209-1.876
					c0.305-0.108,0.678-0.166,0.994-0.04c0.346,0.144,0.528,0.479,0.613,0.835c0.142,0.637-0.054,1.33-0.263,1.938
					c-0.087,0.256-0.188,0.52-0.319,0.766c-0.087,0.163-0.204,0.309-0.321,0.452l-0.183,0.222c-0.078,0.084-0.101,0.078-0.092,0.184
					c0.014,0.178,0.136,0.289,0.19,0.442c0.079,0.193,0.137,0.382,0.202,0.582c0.128,0.368,0.272,0.856,0.559,1.147
					c0.567,0.604,1.064-1.158,1.154-1.473c0.063-0.203,0.104-0.414,0.152-0.609c0.02-0.123,0.061-0.239,0.065-0.354
					c0,0-0.014-0.084-0.03-0.111c0.009-0.357,0.079-0.732,0.137-1.101c0.072-0.434,0.11-0.863,0.154-1.316
					c0.017-0.25,0-0.926,0.438-0.689l0.009,0.014c0.022,0.007,0.022,0.007,0.014-0.008
					C122.154,146.805,122.154,146.897,122.135,147.02z M118.832,149.449c0.296-0.493,0.503-1.044,0.596-1.6l0.051-0.438
					c0.001-0.093,0.044-0.175,0.022-0.273c-0.027-0.075-0.087-0.114-0.123-0.204l-0.117-0.318c-0.068-0.145-0.335-0.465-0.515-0.302
					c-0.079,0.085-0.102,0.265-0.114,0.364l-0.049,0.476c-0.032,0.594,0.096,1.146,0.153,1.704c0,0,0.008,0.014,0.011,0.049
					C118.761,149.084,118.81,149.259,118.832,149.449z"/>
			</g>
			<g clip-path="url(#SVGID_10_)">
				<path fill="#FFFFFF" d="M127.461,143.728c0.042,0.439,0.002,0.9-0.049,1.347c-0.086,0.669-0.154,1.716-0.732,2.191
					c-0.265,0.23-0.663,0.301-1.003,0.154c-0.624-0.295-0.786-1.117-0.943-1.69c-0.047,0.642-0.082,1.273-0.107,1.917
					c-0.007,0.183-0.272,1.88-0.521,1.806c-0.01-0.013,0.068-0.148,0.047-0.152c-0.073,0.171-0.169,0.337-0.311,0.438
					c0.021,0.004,0.048-0.015,0.073-0.033c0.091,0.072-0.385,0.199-0.441,0.202c-0.235-0.028-0.448-0.188-0.617-0.341
					c-0.361-0.365-0.594-0.825-0.778-1.299c-0.193-0.487-0.378-0.961-0.485-1.49c-0.058-0.271,0.022-0.484-0.018-0.73
					c-0.09-0.425-0.206-0.967-0.09-1.402c0.084-0.373,0.523-0.633,0.886-0.619s0.299,0.196,0.324,0.45
					c-0.001-0.057,0.006-0.101,0.022-0.132c0.026-0.019,0.171,0.836,0.098,0.87c0,0-0.055-0.157-0.071-0.263
					c0.046,0.418,0.113,0.838,0.194,1.249c-0.002-0.058,0.015-0.089,0.04-0.107c-0.035,0.006,0.364,1.539,0.4,1.671
					c0.087,0.23,0.264,0.964,0.527,0.598c0.3-0.373,0.29-1.148,0.327-1.586c0.06-0.57,0.048-1.13,0.04-1.711
					c-0.022-0.63-0.198-1.581,0.59-1.874c0.7-0.25,0.707,0.685,0.787,1.177c0.007-0.045,0.005-0.102,0.027-0.099
					c0.143,0.034,0.237,0.71,0.291,0.866c0.099,0.301,0.2,0.659,0.382,0.938c0.21,0.319,0.235,0.163,0.33-0.14
					c0.188-0.663,0.233-1.361,0.319-2.03c0.007-0.045,0.108-1.154,0.323-0.938C127.447,143.111,127.445,143.543,127.461,143.728z
					 M123.122,147.027c0.109,0.449,0.21,1.161,0.557,1.479C123.569,148.408,123.305,147.66,123.122,147.027z M124.748,145.642
					c-0.02,0.054-0.005,0.102,0.032,0.153C124.766,145.747,124.75,145.698,124.748,145.642z M125.287,143.59
					c0.104,0.416,0.014,1.106,0.349,1.355c0.01,0.013,0.019,0.025,0.015,0.047c0.004-0.021,0.008-0.044-0.002-0.057
					c-0.008-0.093-0.069-0.205-0.1-0.302C125.445,144.299,125.389,143.949,125.287,143.59z"/>
			</g>
			<g clip-path="url(#SVGID_10_)">
				<path fill="#FFFFFF" d="M132.893,138.444l-0.039,0.098c-0.034,0.01-0.059,0.03-0.049,0.065c0.066,0.004,0.088,0.028,0.096,0.085
					c0.014,0.305-0.207,0.583-0.226,0.874c-0.01,0.157,0.021,0.216,0.009,0.395c-0.004,0.067-0.063,0.12-0.079,0.176
					c-0.043,0.144-0.08,0.365-0.077,0.513c0.006,0.416-0.012,0.877,0.049,1.331c0.096,0.805,0.196,2.916-1.141,2.695
					c-0.746-0.127-0.304-0.706-0.274-1.154c0.022-0.358-0.021-0.721,0.014-1.091c0.016-0.077-0.02-0.575-0.036-0.666l-0.018-0.092
					c0.002,0.146-0.094-0.107-0.104-0.119c-0.06-0.116-0.071-0.297-0.106-0.435c-0.053-0.228-0.117-0.469-0.25-0.669
					c-0.094-0.13-0.289-0.4-0.477-0.301c-0.048,0.042-0.341,0.575-0.341,0.575c-0.021-0.001,0.018-0.101-0.015-0.113
					c-0.031,0.133-0.049,0.232-0.058,0.367c0.002-0.021,0.014-0.032,0.025-0.043c-0.053,0.132,0.073,1.839,0.098,1.987
					c0.067,0.364,0.201,0.733,0.2,1.094c-0.015,0.055-0.028,0.087-0.063,0.097c-0.017,0.078,0.014,0.136,0.078,0.185
					c0.036,0.138,0.072,0.275,0.121,0.402c0.08,0.309,0.316,0.674,0.365,0.969c0.066,0.364-0.271,0.534-0.6,0.569
					c-0.17,0.022-0.349-0.011-0.502-0.066c0,0-0.229-0.115-0.217-0.126c-0.066-0.027-0.122-0.042-0.186-0.091
					c0.074,0.061,0.116,0.108,0.105,0.097c-0.288,0.104-0.926-0.836-1.05-1.001c-0.508-0.675-0.935-1.4-1.325-2.156
					c-0.684-1.26-1.238-2.611-1.714-3.97c-0.408-1.187-0.826-2.384-1.086-3.616c-0.169-0.697-0.292-1.414-0.324-2.125
					c-0.019-0.599-0.012-1.408,0.5-1.837c1.008-0.802,2.204,0.559,2.659,1.364c0,0,0.231,0.239,0.214,0.34
					c0.002-0.022-0.174-0.271-0.174-0.271l0.181,0.351c0.001-0.023,0.013-0.034,0.035-0.031c0.183,0.134,0.278,0.58,0.345,0.774
					c0.083,0.287,0.155,0.562,0.204,0.858c0.114,0.491,0.183,1.002,0.285,1.503c0.11,0.559,0.12,1.122,0.096,1.672
					c0.004,0.125-0.046,1.415-0.182,1.43c0,0,0.015-0.225,0.004-0.236c-0.04,0.268-0.069,0.548-0.12,0.825
					c0.026-0.065,0.041-0.121,0.041-0.121c0.058,0.33-0.291,0.679-0.222,0.998c0.076,0.399,0.429,0.872,0.631,1.224
					c0.413,0.758,0.86,1.506,1.331,2.234l-0.028-0.08l0.12,0.232c-0.145-0.549-0.209-1.128-0.241-1.692
					c-0.003,0.235-0.01,0.517,0.006,0.799c-0.065-0.555-0.098-1.12-0.084-1.683c0.02-0.65,0.015-1.451,0.291-2.074
					c0.104-0.218,0.229-0.413,0.46-0.511c0.591-0.267,1.081,0.171,1.44,0.531c-0.031-0.036-0.063-0.071-0.07-0.128
					c0.015-0.056,0.581,0.589,0.622,0.659c0.146-0.509,0.288-0.995,0.379-1.518c0.049-0.234-0.021-0.744,0.302-0.667l0.012-0.011
					l0.011,0.012C132.922,138.188,132.88,138.309,132.893,138.444z M125.438,139.395c-0.413-1.095-0.779-2.233-1.008-3.406
					c-0.153-0.775-0.307-1.528-0.381-2.31c-0.054-0.566-0.093-1.188,0.198-1.697c-0.303,0.52-0.313,1.206-0.269,1.738
					c0.05,0.802,0.193,1.542,0.381,2.309C124.634,137.182,125.013,138.311,125.438,139.395z M124.7,131.941
					c0.015-0.055,0.077-0.152,0.11-0.139c-0.056-0.015-0.059,0.92-0.053,1.167l-0.096-0.423c0.035,0.667,0.209,1.297,0.395,1.917
					c-0.009-0.058-0.005-0.102,0.008-0.136c-0.021,0.168,0.882,2.59,0.956,2.819c0.345,0.945,0.724,1.881,1.139,2.786
					c0.159-0.902,0.272-1.807,0.23-2.721c-0.033-0.711-0.096-1.48-0.143-2.158c-0.023-0.339-0.264-0.805-0.4-1.13
					c-0.164-0.426-0.385-0.846-0.665-1.213c-0.177-0.224-1.011-1.269-1.393-0.934C124.741,131.82,124.705,131.875,124.7,131.941z
					 M125.535,135.946c0.228,0.667,0.478,1.336,0.727,2.005L125.535,135.946z M126.905,139.501l-0.129-0.267l0.275,0.624l0.01,0.012
					c-0.001,0.022,0.01,0.035,0.021,0.047c0.02,0.023,0.02,0.047,0.029,0.059l0.009,0.033l0.021,0.024
					C127.161,139.911,126.966,139.617,126.905,139.501z M127.122,139.987l-0.002,0.021l0.021,0.024
					C127.131,140.021,127.132,139.999,127.122,139.987z M129.345,142.009c0,0,0.012-0.011,0.001-0.022L129.345,142.009z
					 M129.383,143.52l0.116,0.639C129.434,143.962,129.402,143.734,129.383,143.52z M130.77,140.312
					c0.253,0.455,0.408,1.186,0.429,1.4c0.049,0.465,0.087,0.917,0.114,1.38c0.002,0.315,0.04,0.6-0.031,0.831
					c0.151-0.429,0.146-1.037,0.107-1.489C131.286,141.74,131.158,140.921,130.77,140.312z"/>
			</g>
			<g clip-path="url(#SVGID_10_)">
				<path fill="#FFFFFF" d="M136.362,134.43l0.131,0.807l0.211,1.388c0.054,0.358,0.063,0.74,0.116,1.099
					c0.064,0.392,0.163,0.771,0.195,1.175c0.021,0.415,0.02,0.876-0.095,1.295c-0.083,0.294-0.247,0.488-0.502,0.641
					c-0.366,0.222-0.802,0.31-1.218,0.286c-0.123-0.009-0.235-0.006-0.339-0.082c-0.08-0.055-0.171-0.12-0.252-0.197
					c-0.148-0.12-0.207-0.265-0.323-0.419c-0.129-0.166-0.2-0.366-0.328-0.532c-0.138-0.176-0.243-0.365-0.371-0.53
					c-0.127-0.144-0.298-0.264-0.402-0.429c-0.07-0.111-0.096-0.268-0.168-0.401c0.037,0.101,0.051,0.224,0.098,0.29
					c0.059,0.122,0.129,0.232,0.176,0.345c0.06,0.122,0.129,0.21,0.188,0.333c0.059,0.144,0.107,0.278,0.211,0.398
					c0.092,0.111,0.207,0.198,0.298,0.309c0.083,0.122,0.141,0.222,0.244,0.32c0.034,0.033,0.125,0.075,0.148,0.098
					c0.046,0.044,0.081,0.121,0.139,0.177c0.104,0.099,0.229,0.174,0.354,0.272c-0.497-0.123-0.786-0.466-1.076-0.852
					c-0.289-0.387-0.578-0.751-0.834-1.149c-0.535-0.797-0.905-1.743-1.029-2.696c-0.13-0.806-0.036-1.616,0.672-2.127
					c0.266-0.186,0.609-0.34,0.947-0.302c0.372,0.047,0.637,0.322,0.813,0.644c0.305,0.577,0.299,1.297,0.258,1.938
					c-0.016,0.27-0.044,0.551-0.104,0.822c-0.041,0.18-0.115,0.351-0.189,0.521l-0.118,0.26c-0.054,0.104-0.077,0.104-0.041,0.204
					c0.061,0.167,0.208,0.242,0.301,0.375c0.128,0.165,0.232,0.332,0.349,0.509c0.221,0.32,0.489,0.753,0.843,0.958
					c0.706,0.434,0.721-1.398,0.725-1.725c0.006-0.213-0.011-0.426-0.015-0.628c-0.015-0.124-0.006-0.247-0.031-0.359
					c0,0-0.035-0.078-0.059-0.1c-0.086-0.347-0.117-0.728-0.159-1.098c-0.044-0.438-0.122-0.862-0.199-1.31
					c-0.051-0.246-0.245-0.894,0.241-0.781l0.011,0.011c0.022,0,0.022,0,0.011-0.012
					C136.324,134.218,136.349,134.307,136.362,134.43z M133.818,137.646c0.155-0.555,0.21-1.14,0.152-1.7l-0.066-0.437
					c-0.024-0.09-0.004-0.18-0.052-0.269c-0.046-0.066-0.113-0.088-0.172-0.165l-0.197-0.275c-0.104-0.122-0.446-0.361-0.576-0.156
					c-0.054,0.104-0.028,0.281-0.014,0.382l0.078,0.471c0.125,0.582,0.396,1.081,0.599,1.604c0,0,0.011,0.011,0.023,0.044
					C133.653,137.313,133.747,137.467,133.818,137.646z"/>
			</g>
			<g clip-path="url(#SVGID_10_)">
				<path fill="#FFFFFF" d="M140.029,129.895c0.21,0.295,0.325,0.656,0.45,1.004c0.289,0.853,0.655,1.685,0.914,2.573
					c0.277,0.965,0.537,1.978,0.628,2.996c0.063,0.852-0.122,1.807-1.124,1.952c-0.901,0.125-1.763-0.579-2.385-1.148
					c-0.647-0.611-1.162-1.339-1.695-2.041c-0.015-0.033-0.319-0.262-0.354-0.395c0.014,0.033,0.1,0.104,0.163,0.176
					c-0.065-0.095-0.132-0.19-0.188-0.297l-0.03,0.036c-0.276-0.163-0.517-0.647-0.689-0.912c-0.213-0.317-0.428-0.657-0.63-0.986
					c-0.379-0.617-0.733-1.235-1.122-1.841c-0.398-0.592-0.701-1.25-0.992-1.898c-0.144-0.301-0.277-0.615-0.4-0.941
					c-0.031-0.087-0.339-0.79-0.275-0.841l0.128,0.269l-0.354-0.946l0.002,0.022c-0.048-0.142-0.162-0.379-0.186-0.501l-0.149-0.594
					c-0.069-0.344-0.193-0.794-0.048-1.147c0.27-0.682,1.197-0.662,1.737-0.344l0.022-0.002l0.062,0.051
					c0.811,0.538,1.334,1.705,1.702,2.56c0.233,0.519,0.542,1.12,0.61,1.689c0.063,0.399,0.219,0.711,0.36,1.114
					c0.367,1.081,0.705,2.197,0.942,3.314c0.062,0.276,0.102,0.452,0.272,0.695c0.175,0.265,0.357,0.517,0.554,0.78
					c0.186,0.274,0.38,0.536,0.577,0.8c0.09,0.115,0.344,0.507,0.379,0.515c0.117,0.157,0.258,0.313,0.395,0.446l-0.288-0.4
					c0.148,0.019,0.438,0.419,0.538,0.521c0.164,0.175,0.351,0.348,0.548,0.51c0.233,0.19,0.762,0.623,1.063,0.355
					c0.391-0.378,0.126-1.333,0.038-1.754c-0.19-0.997-0.524-1.967-0.848-2.929c-0.163-0.503-0.337-0.993-0.522-1.493
					c-0.11-0.316-0.328-0.679-0.372-1.002C139.398,129.338,139.873,129.686,140.029,129.895z M133.093,128.492
					c0.003,0.022,0.027,0.043,0.039,0.053c-0.271-0.673-0.477-1.374-0.782-2.055c0.12,0.304,0.137,0.687,0.271,1
					C132.767,127.836,132.912,128.16,133.093,128.492z M136.204,131.713c-0.72-2.106-1.412-4.396-2.608-6.297
					c0.42,0.692,0.734,1.462,1.045,2.188c0.167,0.424,0.343,0.834,0.499,1.271c0.095,0.261,0.196,0.714,0.333,0.948
					c-0.239-0.359-0.367-0.957-0.521-1.37l-0.537-1.301c-0.35-0.777-0.713-1.813-1.381-2.4l-0.013-0.01
					c-0.632-0.558-0.347,0.599-0.282,0.795c0.272,0.797,0.674,1.535,1.063,2.264C134.524,129.15,135.414,130.472,136.204,131.713z
					 M137.031,134.994c-0.04,0.049,0.167,0.322,0.42,0.59l-0.012-0.01c0.359,0.438,0.774,0.858,1.197,1.244l-0.363-0.357l0.037,0.03
					c-0.087-0.07-0.141-0.155-0.217-0.238c-0.309-0.376-0.766-0.77-0.988-1.198c0,0-0.014-0.011-0.027-0.043
					C137.076,134.989,137.039,134.959,137.031,134.994z"/>
			</g>
			<g clip-path="url(#SVGID_10_)">
				<path fill="#FFFFFF" d="M142.966,125.269c0.453,0.237,0.341,1.125,0.346,1.535c0.012,0.568,0.011,1.128-0.057,1.7
					c-0.021,0.141-0.077,0.333-0.071,0.492c0.018,0.225,0.022,0.189,0.25,0.309c0.263,0.123,0.516,0.26,0.764,0.432
					c0.374,0.241,0.712,0.533,0.975,0.908c0.592,0.874,0.679,1.863,0.029,2.746c-0.564,0.787-1.571,1.346-2.315,0.579
					c0.017,0.03,0.212,0.224,0.189,0.228c-0.116,0.056-0.339-0.234-0.386-0.307c-0.375-0.492-0.463-1.172-0.492-1.771
					c-0.017-0.34-0.031-0.679-0.021-1c0.014-0.242,0.128-0.743-0.037-0.896c-0.155-0.166-0.664-0.268-0.896-0.352
					c-0.283-0.119-0.609-0.209-0.888-0.364c-0.179-0.104-0.247-0.229-0.431-0.299c-0.254-0.079-0.496-0.15-0.727-0.291
					s-0.452-0.294-0.607-0.517c-0.24-0.322-0.479-1.512,0.092-1.639c-0.065-0.045,0.301-0.042,0.389-0.001
					c0.052,0.036,0.498,0.423,0.431,0.492c0,0-0.099-0.107-0.182-0.184c0.138,0.192,0.234,0.414,0.422,0.563
					c0.152,0.145,0.374,0.24,0.549,0.323c-0.026-0.019-0.052-0.036-0.048-0.071c-0.009,0.013,0.77,0.34,1.4,0.603
					c-0.416-0.153-0.915-0.325-1.199-0.444c0.646,0.293,1.298,0.552,1.95,0.811c-0.004-0.022-0.021-0.054-0.096-0.086
					c0.048,0.015,0.083,0.02,0.097,0.029c0.11-0.774,0.207-1.5,0.239-2.271c0.006-0.343-0.083-0.772-0.028-1.102
					c0.038-0.167,0.137-0.253,0.348-0.165L142.966,125.269z M141.84,128.565c0.17,0.061,0.318,0.125,0.419,0.175
					C142.162,128.713,142.001,128.64,141.84,128.565z M144.171,133.063l0.11-0.466c0.021-0.004,0.02,0.168,0.032,0.177
					c0.017-0.22-0.01-0.432-0.072-0.648l0.008,0.102c-0.032-0.177-0.383-0.787-0.427-0.837c-0.249-0.309-0.563-0.525-0.885-0.729
					c0.007,0.044-0.006,0.093-0.011,0.127l-0.016-0.146l-0.017,0.221c0.027-0.097,0.052,0.287,0.051,0.344l-0.012,0.572
					c0.003,0.389-0.001,0.812,0.124,1.188c0.09,0.236,0.39,0.946,0.729,0.68C143.978,133.509,144.084,133.272,144.171,133.063z
					 M143.66,129.48c0.025,0.018,0.052,0.036,0.074,0.031C143.721,129.504,143.686,129.498,143.66,129.48z M145.101,131.137
					c0.272,0.75,0.125,1.633-0.279,2.3c0.231-0.362,0.392-0.733,0.483-1.172C145.383,131.816,145.288,131.479,145.101,131.137z"/>
			</g>
			<g clip-path="url(#SVGID_10_)">
				<path fill="#FFFFFF" d="M147.457,117.392c-0.076,0.228-0.048,0.349-0.11,0.583c-0.161,0.505-0.372,1.004-0.497,1.508
					c-0.112,0.406-0.402,0.776-0.514,1.183c-0.105,0.319-0.196,0.683-0.436,0.953c-0.298,0.313-0.881,0.274-1.216,0.021
					c-0.228-0.185-0.058-0.313,0.034-0.533c0.387-0.819,0.666-1.673,1.146-2.463c0.246-0.428,0.521-0.842,0.833-1.219
					c0.091-0.114,0.628-0.771,0.749-0.728C147.676,116.773,147.515,117.242,147.457,117.392z M146.107,118.797
					c-0.196,0.719-0.782,1.262-0.95,1.994c0.098-0.307,0.345-0.627,0.485-0.912C145.827,119.545,146.017,119.195,146.107,118.797z"
					/>
			</g>
			<g clip-path="url(#SVGID_10_)">
				<path fill="#FFFFFF" d="M57.712,21.066c-0.226,0.118-0.291,0.233-0.511,0.369c-0.493,0.271-1.019,0.501-1.484,0.8
					c-0.382,0.231-0.876,0.305-1.258,0.537c-0.314,0.169-0.649,0.383-1.032,0.416c-0.458,0.026-0.878-0.432-0.951-0.872
					c-0.042-0.308,0.182-0.283,0.414-0.387c0.896-0.349,1.735-0.801,2.682-1.062c0.502-0.149,1.017-0.267,1.531-0.331
					c0.154-0.021,1.047-0.135,1.109-0.014C58.332,20.747,57.864,20.993,57.712,21.066z M55.645,21.163
					c-0.675,0.411-1.524,0.401-2.187,0.844c0.299-0.165,0.724-0.23,1.04-0.347C54.883,21.535,55.285,21.404,55.645,21.163z"/>
			</g>
			<g clip-path="url(#SVGID_10_)">
				<path fill="#FFFFFF" d="M65.41,16.43c0.3,1.076,0.264,2.188,0.348,3.223c0.006-0.053,0.011-0.106,0.038-0.146
					c0.059-0.047,0.083,0.31,0.087,0.326c0.251-0.917,0.668-1.782,0.92-2.7c0.384-1.343,1.044-2.607,1.634-3.873
					c0.514-1.06,1.032-2.103,1.682-3.088c0.285-0.441,0.653-0.813,0.961-1.226c0.082-0.104,0.021-0.143,0.159-0.223
					c0.246-0.139,0.65,0.136,0.779,0.333c0.342,0.548-0.736,0.987-0.964,1.295c-0.107,0.144-0.095,0.279-0.199,0.439
					c-0.1,0.178-0.256,0.332-0.373,0.513c-0.275,0.403-0.571,0.795-0.806,1.226c-0.819,1.488-1.495,2.996-2.123,4.564
					c-0.134,0.339-0.334,0.693-0.412,1.055c-0.047,0.183-0.063,0.429-0.123,0.63c-0.311,0.964-0.657,1.92-0.928,2.91
					c-0.182,0.678-0.11,1.491-0.405,2.124c-0.176,0.383-1.547,0.988-1.679,0.292c-0.049-0.23,0.114-0.593,0.15-0.826
					c0.058-0.53,0.031-1.06,0.004-1.588c-0.037-0.494-0.098-1.015-0.065-1.505c0.014-0.175,0.042-0.286,0.023-0.453
					c0,0-0.098-0.376-0.069-0.4c0.004,0.017,0.023,0.029,0.027,0.046c-0.007-0.033,0.003-0.069-0.008-0.119
					c-0.018,0.158-0.108-0.185-0.112-0.201c-0.049-0.146-0.048-0.3-0.08-0.45c-0.041-0.353-0.079-0.69-0.187-1.03
					c-0.055-0.178-0.497-1.671-0.339-1.739c0.029-0.024,0.041,0.111,0.074,0.104c-0.048-0.145-0.083-0.31-0.115-0.458
					c-0.01,0.036-0.002,0.069-0.015,0.089c0.005-0.054-0.556-1.78-0.6-1.909c-0.088-0.326-0.221-0.625-0.338-0.928
					c-0.068-0.158-0.14-0.332-0.192-0.493c-0.045-0.128-0.023-0.272-0.045-0.371c-0.024-0.115-0.125-0.18-0.124-0.336
					c-0.007-0.275,0.26-0.557,0.426-0.748c0.225-0.238,0.508-0.524,0.835-0.611c0.256-0.09,0.285,0.043,0.373,0.214
					c-0.004-0.018,0.006-0.053,0.015-0.09c0.046-0.027,0.327,0.638,0.265,0.668c-0.029,0.023-0.06-0.039-0.09-0.102
					c0.203,0.544,0.393,1.107,0.546,1.661c-0.116-0.459-0.217-0.851-0.217-0.851s0.154,0.554,0.342,1.272l0.039,0.182l-0.003-0.017
					l0.007,0.033l-0.004-0.017l0.007,0.033l-0.003-0.017c0.007,0.032,0.023,0.028,0.03,0.062c-0.004-0.016-0.023-0.029-0.027-0.045
					c0.007,0.033,0.01,0.049,0.034,0.078c0.021,0.099,0.042,0.198,0.081,0.294c0,0-0.017,0.003-0.021-0.014l0.277,1.045
					c-0.003-0.016-0.027-0.045-0.031-0.062c0.003,0.017,0.027,0.046,0.031,0.062L65.41,16.43z M64.37,18.571
					c-0.103-0.722-0.282-1.476-0.455-2.199c0.325,1.432,0.514,2.875,0.625,4.354c0.041,0.595,0.05,1.198,0.059,1.799
					c-0.001,0.156-0.019,0.315-0.026,0.438c0.051-0.323,0.083-0.657,0.091-1.021c0.016-1.126-0.148-2.213-0.284-3.324L64.37,18.571z
					"/>
			</g>
			<g clip-path="url(#SVGID_10_)">
				<path fill="#FFFFFF" d="M73.04,18.072c-0.219,0.46-0.425,0.901-0.68,1.35c-0.265,0.501-0.572,1.281-1.135,1.504
					c-0.131,0.038-0.79-0.033-0.788-0.136l0.033-0.005c-0.144-0.046,0.013,0.084-0.21-0.036c-0.166-0.078-0.288-0.211-0.411-0.348
					c-0.222-0.222-0.488-0.403-0.6-0.693c-0.03-0.082-0.155-0.676-0.021-0.696c0.033-0.005,0.013,0.083,0.029,0.08l0.004-0.308
					c-0.011,0.037-0.009,0.053-0.04,0.074c-0.069-0.005,0.067-1.238,0.085-1.344c0.08-0.37,0.085-0.78,0.388-1.033
					c0.225-0.204,0.546-0.219,0.883-0.135c0.141,0.03,0.55,0.139,0.575,0.306c0.016,0.1-0.065,0.129-0.107,0.188
					c0.014-0.021,0.047-0.025,0.063-0.028c0.056,0.026-0.141,0.415-0.177,0.403c-0.033,0.005,0.003-0.087,0.013-0.139
					c-0.237,0.566-0.416,1.191-0.526,1.805c0.05-0.229,0.324-1.228,0.376-1.219c0.053,0.009-0.792,2.188-0.183,2.383
					c0.288,0.094,0.674-0.392,0.834-0.571c0.278-0.299,0.664-0.681,0.854-1.001c-0.029,0.038-0.062,0.043-0.112,0.051
					c-0.079-0.073,0.586-1.301,0.721-1.424c0.104-0.102,0.327-0.204,0.394,0.008C73.418,17.417,73.174,17.829,73.04,18.072z
					 M69.94,15.301c-0.024-0.047-0.153-0.557,0.043-0.502c-0.008-0.049,0.154-0.33,0.087-0.098c0.119-0.223,0.217-0.477,0.295-0.746
					l-0.154,0.333c0.104-0.325,0.244-0.978,0.243-1.096c-0.003-0.017-0.06-0.162-0.031-0.2c-0.371-0.081-0.151-0.319-0.019-0.458
					c-0.033,0.005-0.05,0.008-0.071-0.023c-0.077-0.057,0.115-0.138,0.163-0.162c0.218-0.135,0.526-0.132,0.76-0.048
					c0.201,0.088,0.406,0.313,0.503,0.503c0.1,0.207-0.029,0.482-0.158,0.639c-0.057,0.077-0.166,0.145-0.239,0.224
					c-0.082,0.132-0.042,0.281-0.108,0.41c-0.038,0.09-0.132,0.14-0.169,0.23c-0.059,0.06-0.051,0.111,0.006,0.153
					c-0.062,0.043-0.106,0.084-0.149,0.143c-0.126,0.291-0.203,0.458-0.38,0.638c0.166-0.145,0.267-0.264,0.401-0.505
					c0.108-0.187,0.24-0.327,0.427-0.44c-0.138,0.209-0.139,0.431-0.319,0.595c-0.182,0.148-0.034-0.114-0.22,0.119
					c0,0,0.098-0.032,0.052,0.009c-0.129,0.156-0.246,0.396-0.434,0.511c-0.095,0.047-0.151,0.125-0.276,0.092
					c-0.127-0.048-0.087-0.122-0.128-0.168C70.065,15.452,69.942,15.318,69.94,15.301z M70,14.797
					c0.017-0.003,0.019,0.015,0.019,0.015c0.014-0.02,0.014-0.02,0.012-0.037C70.016,14.794,70.016,14.794,70,14.797z M70.2,14.322
					c-0.023,0.071-0.051,0.111-0.051,0.111L70.2,14.322z M70.352,19.455l-0.013,0.139l0.018-0.104l-0.002-0.018
					C70.366,19.437,70.366,19.437,70.352,19.455z"/>
			</g>
			<g clip-path="url(#SVGID_10_)">
				<path fill="#FFFFFF" d="M78.466,18.004c-0.325,0.504-0.613,1.04-0.975,1.515c-0.272,0.349-0.725,0.933-1.209,0.826
					c-0.104-0.023-0.756-0.301-0.748-0.387l0.053,0.029l-0.11-0.091c0.097,0.127-0.104-0.024-0.121-0.022
					c-0.091-0.076-0.171-0.206-0.231-0.301c-0.102-0.176-0.135-0.359-0.153-0.546c-0.018-0.185-0.001-0.372-0.002-0.559
					c-0.002-0.389-0.017-0.728,0.066-1.107c0.025-0.088,0.289-1.061,0.41-1.04c0.033-0.003-0.04,0.123-0.021,0.138l0.191-0.492
					c-0.03,0.036-0.043,0.072-0.076,0.092c-0.018-0.015,0.164-0.423,0.206-0.511c-0.299,0.417-0.53,0.846-0.794,1.277
					c-0.191,0.307-0.443,0.517-0.568,0.799c-0.296,0.638-0.68,1.234-0.906,1.882l-0.081-0.127c-0.267,0.398-0.761,0.004-0.956-0.267
					c-0.177-0.255-0.146-0.461-0.14-0.766c0.008-0.272-0.034-0.54,0.023-0.833c0.067-0.362,0.171-0.71,0.271-1.076
					c0.084-0.364,0.168-0.729,0.27-1.094c0.063-0.227,0.206-0.511,0.234-0.751c0.033-0.189-0.028-0.302,0.177-0.457
					c0.19-0.136,0.41-0.14,0.631-0.128c0.274,0.025,0.787,0.266,0.542,0.713c-0.104,0.162-0.289,0.349-0.408,0.53
					c-0.134,0.199-0.109,0.282-0.156,0.506c-0.021,0.138-0.144,0.268-0.198,0.409c-0.083,0.194-0.128,0.436-0.175,0.661
					c-0.021,0.137,0.005,0.237,0.001,0.373c0,0.356-0.084,0.72-0.085,1.076c0.01-0.069,0.117-0.198,0.135-0.182
					c0.018,0.015-0.14,0.319-0.123,0.317l0.854-1.539c-0.191,0.306-0.34,0.524-0.34,0.524c-0.054-0.029,1.704-2.771,1.918-3.011
					c0.443-0.5,1.067-0.542,1.376,0.227c0.348,0.815-0.473,1.451-0.819,2.094c-0.186,0.357-0.333,0.777-0.468,1.146
					c-0.097,0.229-0.303,0.741-0.302,1.113c0.01-0.254,0.167-0.574,0.218-0.749c0.101-0.366,0.259-0.667,0.503-0.946
					c-0.097,0.23-0.212,0.444-0.294,0.655l0.074-0.109c0.034-0.003-0.097,0.586-0.111,0.621c-0.048,0.208-0.095,0.433-0.091,0.653
					c-0.016,0.019,0.027,0.285,0.027,0.285l0.018,0.015c-0.001-0.017,0.115-0.044,0.146-0.064c0.244-0.108,0.474-0.367,0.659-0.554
					c0.373-0.357,0.726-0.746,1.08-1.119c0.261-0.295,0.604-0.599,0.813-0.907c0.086-0.16,0.296-0.452,0.418-0.056
					C79.227,17.084,78.643,17.715,78.466,18.004z"/>
			</g>
			<g clip-path="url(#SVGID_10_)">
				<path fill="#FFFFFF" d="M84.706,11.886c0.022,0.235-0.26,0.428-0.461,0.483c-0.217,0.072-0.474-0.056-0.674-0.018
					c-0.118,0.037-0.083,0.087-0.183,0.123c-0.15,0.054-0.336,0.042-0.488,0.046c-0.219,0.005-0.694-0.102-0.876,0.021
					c-0.033,0.018-0.066,0.052-0.099,0.104l0.048-0.103c-0.101,0.019-0.258,0.479-0.369,0.786l0.177-0.376l-0.221,0.646
					c-0.16,0.358-0.303,0.733-0.446,1.091c-0.287,0.716-0.54,1.414-0.792,2.146c-0.424,1.327-0.846,2.721-1.116,4.095
					c-0.045,0.237-0.308,1.223,0.016,1.35c0.051,0.033,0.4-0.179,0.384-0.161c0.083-0.087,0.182-0.173,0.264-0.277
					c-0.066,0.052-0.248,0.208-0.249,0.175c-0.02-0.101,0.395-0.449,0.459-0.535c0.165-0.173,0.312-0.362,0.46-0.535l0.948-1.222
					c0.588-0.773,1.143-1.563,1.732-2.337c0.131-0.172,0.42-0.77,0.637-0.825c0.269-0.058,0.326,0.211,0.247,0.433
					c-0.141,0.459-0.587,0.842-0.813,1.251c-0.404,0.718-0.895,1.389-1.366,2.076c-0.522,0.739-1.044,1.477-1.618,2.182
					c-0.261,0.344-0.604,0.826-1.021,1.038c-0.316,0.16-0.742-0.016-1.017-0.212c-0.308-0.195-0.484-0.495-0.56-0.831
					c-0.019-0.101-0.133-0.638-0.035-0.758l0.006,0.254l0.025-0.339c-0.032,0.068-0.037-0.15-0.038-0.185
					c-0.003-0.135,0.027-0.288,0.057-0.424c0.027-0.271,0.089-0.526,0.149-0.797c0.106-0.526,0.228-1.053,0.316-1.594
					c0.072-0.542,0.245-1.053,0.401-1.563c0.032-0.085,0.344-1.122,0.428-1.124c0.017,0-0.029,0.203-0.028,0.219
					c0.062-0.254,0.157-0.51,0.235-0.764c-0.032,0.085-0.08,0.171-0.081,0.137c-0.005-0.202,0.206-0.562,0.269-0.749l0.188-0.596
					c0.172-0.544,0.345-1.089,0.569-1.602c-0.472,0.045-0.927,0.022-1.364,0.118c-0.637,0.134-1.448,0.086-2.091,0.016
					c-0.084-0.015-0.489-0.021-0.393-0.209c0.033-0.051,0.402-0.146,0.469-0.164c0.317-0.125,0.654-0.133,0.991-0.158
					c0.656-0.083,1.297-0.065,1.953-0.165c0.168-0.021,0.456,0.022,0.606-0.049c0.15-0.054,0.147-0.172,0.211-0.326
					c0.111-0.307,0.238-0.613,0.366-0.904c0.144-0.324,0.271-0.665,0.467-0.957c0.13-0.188,0.264-0.243,0.36-0.447
					c0.192-0.461,0.416-0.921,0.727-1.317c0.327-0.447,0.915-0.528,1.44-0.439c0.254,0.044,0.612,0.188,0.502,0.528
					c-0.047,0.136-0.214,0.224-0.313,0.328c0,0.017,0.148-0.156,0.149-0.087c-0.014,0.117-0.616,0.993-0.667,0.978
					c-0.017,0,0.226-0.428,0.241-0.462c-0.617,0.961-1.132,2.003-1.613,3.044c0.051-0.001,0.1-0.07,0.164-0.189
					c-0.048,0.103-0.08,0.171-0.08,0.188c0.656-0.05,1.331-0.066,2.004-0.116c0.135-0.003,0.383-0.195,0.406,0.041L84.706,11.886z
					 M78.92,22.406c0.018,0.016,0.035,0.033,0.051,0.033L78.92,22.406z M83.616,8.655c-1.303,1.938-2.091,4.219-2.985,6.351
					c-0.527,1.245-0.968,2.539-1.308,3.847c-0.154,0.594-0.275,1.188-0.378,1.798l0.076-0.323c0.167-0.797,0.417-1.596,0.686-2.363
					c0.567-1.686,1.098-3.419,1.818-5.041C82.166,11.475,82.737,9.975,83.616,8.655z M80.966,14.879
					c-0.144,0.341-0.254,0.682-0.381,1.005c0.127-0.306,0.255-0.613,0.365-0.936C80.95,14.931,80.949,14.914,80.966,14.879z
					 M82.55,11.347l-0.16,0.375C82.439,11.62,82.503,11.483,82.55,11.347z M82.984,10.441l-0.386,0.786
					C82.757,10.836,82.9,10.461,82.984,10.441z"/>
			</g>
			<g clip-path="url(#SVGID_10_)">
				<path fill="#FFFFFF" d="M91.22,18.147c-0.247,0.493-0.524,0.935-0.819,1.375c-0.349,0.488-0.695,0.958-1.089,1.376
					c-0.325,0.371-0.772,0.836-1.283,0.893c-0.578,0.069-1.006-0.428-1.163-0.943c-0.35-1.017-0.004-2.045,0.352-2.989
					c0,0,0.009-0.151,0.032-0.269c-0.184,0.243-0.436,0.533-0.6,0.761c-0.221,0.309-0.39,0.621-0.625,0.912
					c-0.11,0.146-1.583,1.737-1.752,1.44c0,0,0.207-0.073,0.192-0.108c-0.209,0.124-0.481,0.143-0.713,0.062
					c0.049,0.037,0.082,0.056,0.065,0.055c-0.391,0.029-0.66-0.595-0.729-0.869c-0.108-0.479-0.044-1,0.064-1.467
					c0.24-0.967,0.703-2.006,1.322-2.817c0.163-0.193,0.327-0.421,0.555-0.561c0.141-0.111,0.259-0.121,0.416-0.213
					c0.265-0.206,0.493-0.378,0.865-0.358c0.825,0.045,1.109,1.008,1.242,1.658c0.433-0.5,1.195-1.15,1.776-0.358
					c0.313,0.423,0.078,0.714-0.128,1.075c-0.352,0.572-0.645,1.283-0.813,1.882c0.02-0.05,0.084-0.3,0.152-0.313
					c0.137-0.026-1.286,3.715,0.565,1.671c0.559-0.628,1.052-1.294,1.545-1.96c0.22-0.309,0.44-0.635,0.678-0.943
					c0.108-0.129,0.429-0.432,0.425-0.061C91.765,17.467,91.373,17.834,91.22,18.147z M87.013,16.663
					c0.008-0.135-0.277-1.08-0.19-1.142c0.019-0.016,0.144,0.48,0.158,0.516c-0.04-0.205-0.072-0.833-0.375-0.849
					c-0.556-0.031-1.034,0.973-1.241,1.351c-0.378,0.74-0.727,1.532-0.907,2.35c0.065-0.25,1.211-3.245,1.513-3.212
					c-0.238,0.038-1.275,2.583-1.339,2.816c-0.041,0.132-0.357,0.994-0.11,1.092c0.165,0.06,0.599-0.44,0.689-0.553
					c0.342-0.37,0.667-0.757,0.976-1.163l0.473-0.599c0.074-0.114,0.165-0.228,0.256-0.341
					C87.006,16.798,87.006,16.798,87.013,16.663z M87.069,16.547l-0.01,0.169C87.113,16.668,87.116,16.618,87.069,16.547z
					 M87.429,17.379l-0.091,0.113c-0.02,0.05-0.083,0.283-0.083,0.283L87.429,17.379z"/>
			</g>
			<g clip-path="url(#SVGID_10_)">
				<path fill="#FFFFFF" d="M98.666,18.831l-1.508,0.831c-0.561,0.324-1.103,0.635-1.632,0.982c-0.262,0.148-0.539,0.294-0.77,0.464
					c-0.233,0.187-0.326,0.462-0.451,0.734c-0.856,1.833-1.66,3.76-2.923,5.344c-0.402,0.52-0.76,1.08-1.505,1.155
					c-0.863,0.075-1.446-0.696-1.639-1.459c-0.209-0.868,0.237-1.569,0.827-2.196c0.508-0.538,1.049-1.07,1.615-1.548
					c0.392-0.333,0.81-0.612,1.226-0.89c0.401-0.28,0.918-0.544,1.292-0.88c0.358-0.338,0.551-1.043,0.773-1.505l0.564-1.246
					c-0.446,0.582-1.002,1.094-1.504,1.599c-0.464,0.476-0.943,1.053-1.544,1.303c-0.272,0.112-0.517,0.144-0.749-0.011
					c-0.109-0.067-0.657-0.731-0.572-0.837c0.015,0.019,0.028,0.039,0.045,0.041l-0.032-0.124c0.008,0.172-0.134-0.242-0.146-0.278
					c-0.034-0.227-0.016-0.463,0.02-0.696c0.053-0.351,0.128-0.731,0.248-1.072c0.098-0.31,0.276-0.59,0.482-0.832
					c0.024-0.048,0.441-0.548,0.503-0.504c0.017,0.002-0.084,0.106-0.069,0.125l0.347-0.374c-0.021,0.015-0.059,0.042-0.092,0.038
					c-0.106-0.084,1.754-1.562,1.943-1.686c0.307-0.227,0.625-0.417,0.984-0.534c0.199-0.073,0.31-0.022,0.466-0.032
					c0.135,0.003,0.196-0.056,0.317-0.071c0.415-0.04,0.995,0.184,1.194,0.556c0.153,0.228,0.153,0.911-0.268,0.864
					c-0.099-0.015-0.14-0.089-0.215-0.152l0.041,0.058c0,0-0.446-0.085-0.651-0.081l0.23-0.051c-1.026,0.016-2.062,1.105-2.71,1.792
					c0.178-0.161,1.246-1.143,1.585-1.348c-0.344,0.238-1.437,1.268-1.519,1.357c-0.549,0.583-1.073,1.238-1.438,1.951
					c-0.119,0.221-0.68,1.569-0.01,1.193c0.481-0.252,1.051-0.746,1.451-1.146c-0.019,0.015-0.038,0.028-0.054,0.026
					c-0.051-0.008,0.337-0.427,0.397-0.486l0.554-0.616c0.385-0.403,0.757-0.841,1.143-1.244c0.161-0.164,0.433-0.498,0.645-0.551
					c0.729-0.197,1.49,0.532,0.966,1.17c-0.567,0.716-1.16,1.48-1.554,2.274c0.076,0.063,1.122-0.65,1.29-0.744
					c0.412-0.245,0.823-0.49,1.247-0.699c0.317-0.174,0.645-0.312,0.961-0.486c0.17-0.111,0.726-0.521,0.72-0.028
					C99.211,18.606,98.907,18.697,98.666,18.831z M92.777,22.361c-0.857,0.588-1.617,1.224-2.375,1.945
					c-0.62,0.607-1.682,1.539-1.556,2.513c0.178,1.529,1.58-0.307,1.887-0.755c0.613-0.897,1.101-1.865,1.604-2.83
					c-0.021,0.031,0.097-0.19,0.094-0.173C92.551,22.84,92.672,22.602,92.777,22.361z M92.196,24.168
					c-0.351,0.629-0.761,1.199-1.158,1.805c0.189-0.245,0.428-0.464,0.621-0.725c0.203-0.328,0.375-0.677,0.53-1.029L92.196,24.168z
					 M92.684,17.449c-0.063,0.076-0.158,0.147-0.217,0.189c-0.29,0.229-0.463,0.476-0.643,0.756
					c0.162-0.163,0.338-0.308,0.465-0.476L92.684,17.449z M92.457,18.046c-0.161,0.164-0.306,0.33-0.434,0.498l0.184-0.194
					L92.457,18.046z"/>
			</g>
			<g clip-path="url(#SVGID_10_)">
				<path fill="#FFFFFF" d="M104.291,19.863l-0.667,0.553l-1.157,0.94c-0.301,0.242-0.645,0.456-0.944,0.697
					c-0.324,0.27-0.618,0.565-0.972,0.811c-0.368,0.243-0.79,0.49-1.235,0.61c-0.313,0.083-0.579,0.037-0.855-0.114
					c-0.399-0.216-0.715-0.568-0.917-0.962c-0.058-0.118-0.12-0.22-0.107-0.355c0.008-0.102,0.019-0.221,0.046-0.336
					c0.03-0.201,0.131-0.333,0.21-0.522c0.083-0.206,0.228-0.38,0.311-0.585c0.087-0.222,0.205-0.42,0.287-0.626
					c0.063-0.193,0.08-0.414,0.177-0.6c0.063-0.124,0.192-0.232,0.276-0.368c-0.072,0.087-0.178,0.166-0.213,0.244
					c-0.081,0.12-0.145,0.243-0.222,0.347c-0.079,0.12-0.123,0.231-0.203,0.351c-0.101,0.132-0.197,0.248-0.252,0.409
					c-0.053,0.144-0.069,0.295-0.122,0.439c-0.067,0.14-0.127,0.247-0.162,0.395c-0.012,0.049-0.002,0.156-0.01,0.188
					c-0.016,0.066-0.068,0.14-0.088,0.222c-0.034,0.147-0.036,0.303-0.059,0.472c-0.154-0.522,0.004-0.97,0.202-1.443
					s0.376-0.935,0.604-1.384c0.442-0.919,1.11-1.767,1.915-2.392c0.668-0.554,1.461-0.904,2.309-0.531
					c0.313,0.144,0.64,0.376,0.786,0.706c0.156,0.367,0.048,0.757-0.152,1.091c-0.365,0.59-1.027,0.972-1.637,1.279
					c-0.256,0.131-0.528,0.257-0.809,0.347c-0.188,0.06-0.384,0.083-0.58,0.106l-0.303,0.033c-0.122,0.005-0.135-0.015-0.208,0.072
					c-0.119,0.145-0.109,0.321-0.182,0.478c-0.082,0.206-0.178,0.391-0.277,0.593c-0.176,0.375-0.426,0.854-0.426,1.287
					c-0.017,0.88,1.667-0.092,1.968-0.265c0.2-0.108,0.386-0.238,0.569-0.351c0.104-0.079,0.223-0.138,0.313-0.221
					c0,0,0.051-0.074,0.059-0.107c0.271-0.266,0.604-0.499,0.92-0.736c0.376-0.275,0.724-0.575,1.091-0.888
					c0.199-0.178,0.687-0.705,0.845-0.2l-0.004,0.017c0.014,0.021,0.014,0.021,0.018,0.004
					C104.466,19.713,104.396,19.783,104.291,19.863z M99.98,19.262c0.592-0.155,1.157-0.42,1.639-0.775l0.363-0.296
					c0.069-0.07,0.163-0.101,0.22-0.191c0.035-0.079,0.019-0.151,0.058-0.246l0.146-0.33c0.056-0.161,0.09-0.603-0.168-0.612
					c-0.121,0.006-0.271,0.126-0.356,0.193l-0.388,0.325c-0.465,0.427-0.777,0.944-1.147,1.411c0,0-0.004,0.016-0.028,0.045
					C100.197,18.932,100.106,19.101,99.98,19.262z"/>
			</g>
			<g clip-path="url(#SVGID_10_)">
				<path fill="#FFFFFF" d="M112.992,23.268c-0.248-0.06-0.373-0.018-0.627-0.061c-0.549-0.121-1.097-0.296-1.643-0.38
					c-0.439-0.079-0.858-0.349-1.298-0.428c-0.35-0.08-0.742-0.141-1.051-0.369c-0.361-0.283-0.375-0.904-0.139-1.283
					c0.173-0.259,0.325-0.092,0.566-0.017c0.903,0.33,1.833,0.543,2.715,0.974c0.476,0.22,0.938,0.471,1.369,0.763
					c0.129,0.086,0.874,0.59,0.841,0.722C113.668,23.438,113.156,23.313,112.992,23.268z M111.376,21.976
					c-0.778-0.138-1.408-0.706-2.198-0.811c0.332,0.073,0.695,0.304,1.01,0.425C110.56,21.751,110.946,21.918,111.376,21.976z"/>
			</g>
			<g clip-path="url(#SVGID_10_)">
				<defs>
					<rect id="SVGID_13_" width="170.18" height="170.174"/>
				</defs>
				<clipPath id="SVGID_14_">
					<use xlink:href="#SVGID_13_"  overflow="visible"/>
				</clipPath>
			</g>
			<g clip-path="url(#SVGID_10_)">
				<defs>
					<rect id="SVGID_15_" width="170.18" height="170.174"/>
				</defs>
				<clipPath id="SVGID_16_">
					<use xlink:href="#SVGID_15_"  overflow="visible"/>
				</clipPath>
				<g clip-path="url(#SVGID_16_)">
					<path fill="#FFFFFF" d="M6.284,41.351c5.03,0,10.175,3.43,10.175,13.089c0,6.288-2.572,11.203-5.545,12.461
						c2.287,0.743,5.259,3.086,5.259,7.202c0,5.43-3.658,8.116-9.203,8.116c-0.972,0-4.858-0.286-5.487-0.915
						c-0.114-0.114-0.171-0.286-0.171-0.514V43.294c0-0.572,0.4-0.972,1.029-1.258C3.483,41.579,4.798,41.351,6.284,41.351z
						 M3.312,43.98v21.949c4.116,0.057,6.917,0.686,9.203-3.544c3.029-5.602,2.858-18.92-5.944-18.92
						C5.484,43.465,4.398,43.637,3.312,43.98z M7.256,67.987L3.312,67.93v11.889c1.257,0.343,2.629,0.571,4.001,0.571
						c3.83,0,6.859-2.343,6.859-6.173S11.086,68.044,7.256,67.987z M16.802,71.188c2.4,2.973,2,7.431,0.114,9.832
						c-1.658,2.058-4.401,3.029-7.659,3.029c-1.543,0-3.373-0.171-4.859-0.628c-0.229-0.114-0.457-0.171-0.571-0.286
						c1.086,0.172,2.115,0.229,3.144,0.229C16.859,83.363,18.345,75.532,16.802,71.188z M5.599,45.809v19.034l-1.144-0.057V44.837
						c0.686-0.115,1.429-0.229,2.115-0.229c1.086,0,2.058,0.229,2.858,0.686H8.856C7.771,45.294,6.627,45.466,5.599,45.809z
						 M5.599,69.759v9.374c-0.4-0.057-0.743-0.114-1.144-0.229v-9.832l2.744,0.057c1.201,0,2.229,0.286,3.087,0.686H9.542
						L5.599,69.759z M17.602,54.44c0-2.858-0.458-5.373-1.372-7.488c1.772,2.458,2.515,5.887,2.515,9.317
						c0,3.658-1.2,9.146-4.115,11.546c-0.458-0.4-0.915-0.743-1.429-1.086C15.83,64.329,17.602,59.642,17.602,54.44z"/>
					<path fill="#FFFFFF" d="M27.663,42.551v38.64c0,0.515-0.514,0.743-1.086,0.743c-0.514,0-1.086-0.229-1.086-0.743v-38.64
						c0-0.457,0.572-0.743,1.086-0.743C27.091,41.808,27.663,42.036,27.663,42.551z M29.949,44.323v38.64
						c0,0.458-0.458,0.743-1.029,0.743c-0.572,0-1.144-0.229-1.086-0.915c0.629-0.286,0.972-0.743,0.972-1.601V43.637
						C29.606,43.58,29.949,43.98,29.949,44.323z"/>
					<path fill="#FFFFFF" d="M40.868,82.334c-3.087,0-5.373-2.458-5.373-5.773c0-0.628,0.457-1.086,1.086-1.086
						c0.743,0,1.086,0.572,1.086,1.086c0,2.515,1.543,3.772,3.315,3.772c0.628,0,4.172,0.172,4.172-8.002v-2.858V44.094H38.01
						c-0.515,0-0.743-0.515-0.743-1.029c0-0.515,0.229-1.086,0.743-1.086h8.459c0.514,0,0.857,0.4,0.857,0.857v25.15
						C47.327,74.789,47.441,82.334,40.868,82.334z M38.524,76.332l0.229-0.057c0.229,0,0.515,0.114,0.515,0.457
						c0.171,1.429,0.857,2.458,1.715,2.973C39.096,79.418,38.467,77.704,38.524,76.332z M44.011,45.237v0.686h-3.887
						c-0.458,0-0.743-0.286-0.8-0.686H44.011z M49.556,74.674c-0.057,1.486-0.229,3.03-0.571,4.458
						c-0.286,1.143-0.743,2.172-1.429,3.029c-0.915,1.201-2.344,2.001-4.401,2.001c-0.972,0-1.829-0.229-2.572-0.686h0.286
						c7.716,0,7.602-7.66,7.602-15.49V43.865c0.8-0.171,1.143,0.229,1.143,0.8v25.836C49.613,71.702,49.67,73.131,49.556,74.674z"/>
					<path fill="#FFFFFF" d="M87.625,81.534c0.172,0.743-1.772,1.429-2.115,0.171l-2.172-10.117H71.735l-2.344,10.231
						c-0.229,0.915-2.229,0.686-2-0.286l9.146-38.869c0.4-1.029,2.229-0.686,2.401-0.114L87.625,81.534z M82.424,72.731l0.114,0.629
						h-8.517l-2.286,10.003c-0.114,0.628-0.458,0.8-0.857,0.8c-0.572,0-1.2-0.343-1.315-0.915c0.458-0.229,0.743-0.629,0.915-1.201
						l2.172-9.317H82.424z M77.736,45.466l-5.544,24.122h10.746L77.736,45.466z M78.422,54.154l-3.258,14.29h-1.543l4.058-17.719
						L78.422,54.154z M89.797,82.848c0.172,0.915-0.457,1.257-0.972,1.257c-0.571,0-1.028-0.286-1.429-0.8
						c0.914-0.286,1.543-0.972,1.372-2.001l-8.46-37.782c0.458-0.114,0.743,0.286,0.857,0.686L89.797,82.848z"/>
					<path fill="#FFFFFF" d="M107.461,49.867c-0.571,0-1.086-0.286-1.086-0.915c0-3.201-2.229-5.602-5.087-5.602
						c-3.144,0-4.916,2.858-4.916,5.944c0,3.315,2.172,6.859,5.487,9.946c3.716,3.658,7.831,7.202,7.831,13.433
						s-3.658,9.717-8.574,9.717c-4.915,0-8.345-4.116-8.345-8.345c0-1.772,2.229-1.543,2.229-0.286c0,3.373,2.458,6.63,6.174,6.63
						c3.772,0,6.116-3.658,6.23-7.602c0.057-5.03-3.658-8.345-7.031-11.604c-3.429-3.258-6.229-7.374-6.229-12.061
						c0-4.401,2.801-7.659,7.201-7.659c4.059,0,7.202,2.572,7.202,7.488C108.547,49.582,107.976,49.867,107.461,49.867z
						 M100.888,79.647c-3.601-0.629-4.572-3.887-4.744-5.145c0.571,0,1.029,0.171,1.144,0.8
						C97.516,76.961,99.002,78.733,100.888,79.647z M101.288,44.494c0.743,0,1.486,0.229,2.115,0.686
						c-3.944,0.114-6.002,4.858-3.944,9.603c-1.314-1.886-1.943-3.772-1.943-5.487C97.516,46.495,99.059,44.494,101.288,44.494z
						 M109.919,81.19c-2.687,3.43-7.373,3.544-10.117,2.287c0.4,0.057,0.857,0.057,1.314,0.057c8.86,0,11.547-9.66,8.517-16.462
						C113.006,72.159,112.377,78.047,109.919,81.19z M109.69,48.953c0-1.2-0.229-2.343-0.571-3.373
						c1.086,1.315,1.715,3.087,1.715,5.202c0,0.572-0.572,0.857-1.086,0.857c-0.629,0-1.087-0.286-1.087-0.915
						C109.29,50.382,109.69,49.867,109.69,48.953z"/>
					<path fill="#FFFFFF" d="M130.154,49.867c-0.571,0-1.086-0.286-1.086-0.915c0-3.201-2.229-5.602-5.087-5.602
						c-3.144,0-4.916,2.858-4.916,5.944c0,3.315,2.172,6.859,5.487,9.946c3.716,3.658,7.831,7.202,7.831,13.433
						s-3.658,9.717-8.574,9.717c-4.915,0-8.345-4.116-8.345-8.345c0-1.772,2.229-1.543,2.229-0.286c0,3.373,2.458,6.63,6.174,6.63
						c3.772,0,6.116-3.658,6.23-7.602c0.057-5.03-3.658-8.345-7.031-11.604c-3.429-3.258-6.229-7.374-6.229-12.061
						c0-4.401,2.801-7.659,7.201-7.659c4.059,0,7.202,2.572,7.202,7.488C131.24,49.582,130.669,49.867,130.154,49.867z
						 M123.581,79.647c-3.601-0.629-4.572-3.887-4.744-5.145c0.571,0,1.029,0.171,1.144,0.8
						C120.209,76.961,121.695,78.733,123.581,79.647z M123.981,44.494c0.743,0,1.486,0.229,2.115,0.686
						c-3.944,0.114-6.002,4.858-3.944,9.603c-1.314-1.886-1.943-3.772-1.943-5.487C120.209,46.495,121.752,44.494,123.981,44.494z
						 M132.612,81.19c-2.687,3.43-7.373,3.544-10.117,2.287c0.4,0.057,0.857,0.057,1.314,0.057c8.86,0,11.547-9.66,8.517-16.462
						C135.699,72.159,135.07,78.047,132.612,81.19z M132.384,48.953c0-1.2-0.229-2.343-0.571-3.373
						c1.086,1.315,1.715,3.087,1.715,5.202c0,0.572-0.572,0.857-1.086,0.857c-0.629,0-1.087-0.286-1.087-0.915
						C131.983,50.382,132.384,49.867,132.384,48.953z"/>
					<path fill="#FFFFFF" d="M142.502,42.551v38.64c0,0.515-0.515,0.743-1.086,0.743c-0.515,0-1.086-0.229-1.086-0.743v-38.64
						c0-0.457,0.571-0.743,1.086-0.743S142.502,42.036,142.502,42.551z M144.788,44.323v38.64c0,0.458-0.457,0.743-1.028,0.743
						s-1.144-0.229-1.086-0.915c0.629-0.286,0.972-0.743,0.972-1.601V43.637C144.445,43.58,144.788,43.98,144.788,44.323z"/>
					<path fill="#FFFFFF" d="M166.453,81.819h-12.347c-0.515,0-0.857-0.343-0.857-0.857V42.836c0-0.514,0.343-0.857,0.857-0.857
						h12.347c0.972,0,0.972,2.058,0,2.058h-11.032v18.977h8.745c0.972,0,0.972,2.058,0,2.058h-8.745v14.69h11.032
						C167.425,79.762,167.425,81.819,166.453,81.819z M169.482,82.563c0,0.457-0.229,1.029-0.743,1.029h-12.347
						c-0.4,0-0.743-0.229-0.8-0.629h11.089c1.086,0,1.372-0.457,1.486-1.429h0.571C169.254,81.534,169.482,82.162,169.482,82.563z
						 M168.282,43.751h0.457c0.515,0,0.743,0.629,0.743,1.029c0,0.457-0.229,1.029-0.743,1.029h-11.032v16.062h-1.143V45.18h10.174
						C167.882,45.18,168.225,44.78,168.282,43.751z M165.995,64.786h0.458c0.514,0,0.743,0.629,0.743,1.029
						c0,0.458-0.229,1.029-0.743,1.029h-8.746v11.774h-1.143V66.215h7.888C165.538,66.215,165.881,65.814,165.995,64.786z"/>
				</g>
				<path clip-path="url(#SVGID_16_)" fill="#FFFFFF" d="M103.074,114.366c0.243-0.008,0.765-0.131,1.415-0.37
					c-0.002-0.004-0.006-0.006-0.008-0.006c6.628-1.884,5.015-7.454,4.979-7.421c-1.205-2.773-5.437-1.826-5.437-1.826l-0.124-1.16
					c0.045-0.148,0.06-0.288,0.054-0.409c0.359-1.255,0.302-3.628-5.695-4.744c-2.847-0.803-22.22-0.866-24.958,1.65
					c0.291-0.29-5.605-3.292-5.605-3.292l-1.708-0.694l0.203,0.131c-3.279-0.372-6.809-0.012-8.754,1.074
					c0,0,0.828,7.139,5.353,10.351c0,0.146-5.227,2.838-5.956,7.217c0-0.146,1.634,2.367,6.307,2.803
					c0.144,0-2.263,4.119,2.41,6.747c0,0.146,8.014,4.834,24.224,4.396c0,0,18.78-1.122,22.205-7.317
					C111.979,121.35,114.58,116.14,103.074,114.366 M71.091,103.784c0.584,0.763,1.766,1.388,1.766,1.388l0.003-0.021
					c4.499,2.156,12.136,2.262,12.136,2.262c12.409-0.054,16.144-1.976,16.144-1.976c1.513-0.439,2.24-0.977,2.568-1.46
					c-0.023,0.22-0.051,0.463-0.087,0.724l-0.016,0.125c-0.452,3.275-1.943,9.516-6.857,13.134c0,0-6.146,4.513-15.583,1.396
					C81.165,119.355,72.906,117.057,71.091,103.784 M82.096,99.434c6.945-0.932,15.036,0.163,15.036,0.163
					c3.614,0.672,5.315,1.819,6.096,2.609c0.22,0.33,0.376,0.691,0.386,1.045c-0.531,0.991-1.932,1.539-1.932,1.539
					s-1.681-1.422-7.803-2.296c0,0-9.62-0.52-12.222,0.164c0,0-5.007,0.59-7.355,1.772c-0.874-0.337-1.226-0.572-1.226-0.572
					c-1.586-0.763-1.039-1.527-1.039-1.527C74.661,99.929,82.096,99.434,82.096,99.434 M81.274,106.046
					c-2.144-0.301-3.783-0.653-5.011-0.986c0.87-0.397,4.194-1.743,9.518-1.882h0.002C79.987,104.138,81.274,106.046,81.274,106.046
					 M69.517,124.749c0,0-7.638-2.734-4.555-6.52c0,0,0.482,0.02,1.484-0.658c4.878,0.144,7.769-2.142,8.045-2.37
					c0.343,0.479,0.718,0.951,1.129,1.41c-0.504,0.262-2.788,1.669-1.671,3.688c0,0,1.844,3.075,10.214,3.977
					c0,0,11.565,1.447,16.601-3.361c0,0,2.707-2.256-1.188-4.346c0,0,1.934,1.762,1.354,3.197c0,0-0.93,3.497-15.279,3.333
					c0,0-9.27-0.409-10.991-2.979c0,0-1.82-1.475,0.973-3.494c1.239,1.38,2.8,2.634,4.765,3.632c0,0,9.957,4.482,17.935-2.403
					c0.004-0.002,1.125-0.979,2.35-2.948c0.229-0.048,0.458-0.095,0.676-0.147l0.841,0.168c0,0,0.004,0,0.006,0
					c2.721,0.737,9.416,2.873,8.344,5.759c0,0-0.409,1.559-2.952,2.624c0.129-0.057-4.229,2.909-17.752,4.1
					C89.846,127.409,77.47,127.823,69.517,124.749 M67.97,116.683c1.059-0.538,2.454-1.102,4.261-1.59
					C70.9,116.043,69.437,116.517,67.97,116.683 M103.646,106.145c2.904-0.574,4.174,1.118,4.174,1.118
					c1.447,4.098-5.26,6.079-6.42,6.391C102.37,111.786,103.287,109.287,103.646,106.145 M103.683,105.766
					c0.002-0.005,0.002-0.013,0.004-0.019h0.006C103.688,105.753,103.687,105.76,103.683,105.766 M72.448,111.42l-3.771,0.768
					l-3.649-2.079l2.627,2.079l-3.604,0.618l-2.234-1.462l1.459,1.462l-4.289,0.653h5.064l-1.65,1.69l2.481-1.714l2.919-0.63
					l-1.751,3.112l2.774-3.112l3.951-0.61c0.249,0.555,0.531,1.109,0.851,1.66c-0.364,0.395-0.742,0.741-1.134,1.045
					c-1.583,0.292-4.022,0.861-5.932,1.853c-4.397-0.042-8.429-2.385-8.429-2.385c1.382-3.471,4.042-5.056,6.635-5.735
					c3.381,2.046,6.894,2.464,7.581,2.528C72.381,111.248,72.413,111.333,72.448,111.42 M72.242,100.688
					c-1.901,1.353-1.359,2.764-1.359,2.764c0.008,0.018,0.02,0.036,0.029,0.055c0.001,0.052,0.001,0.1,0.001,0.154l-2.406-0.825
					l0.261-3.44l-0.73,3.266l-2.947-1.473l-0.114-3.118l-0.441,2.927l-2.684-1.337l0.348-1.59l-0.731,1.616l-1.46-1.022l1.279,1.28
					l-1.279,0.765l1.735-0.61l2.555,1.351l-2.574,2.212l3.327-1.813l2.75,1.29l-2.792,2.4l3.339-2.312l2.593,1.201
					c0.072,1.33,0.297,3.21,0.908,5.262c-11.755-0.77-12.883-11.338-12.883-11.338C65.594,95.083,70.16,98.467,72.242,100.688"/>
			</g>
			<g clip-path="url(#SVGID_10_)">
				<path fill="#FFFFFF" d="M35.27,113.367c0,1.113-0.488,2.036-1.877,1.962c-0.106-0.011-0.159-0.096-0.159-0.181
					c0-0.201,0.138-0.19,0.254-0.19c0.901,0,1.357-0.637,1.357-1.527c0-0.87-0.456-1.442-0.912-2.015
					c-0.446-0.563-0.891-1.135-0.891-1.994c0-0.869,0.583-1.687,1.453-1.687c0.106,0,0.159,0.096,0.159,0.191
					c0,0.085-0.042,0.17-0.159,0.17c-0.403,0-1.029,0.466-1.029,1.304C33.467,110.96,35.27,111.447,35.27,113.367z M33.976,115.668
					c-0.265-0.011-0.329-0.042-0.35-0.127c1.994-0.063,2.079-2.217,1.654-3.287C36.065,113.537,35.843,115.668,33.976,115.668z
					 M34.846,108.064c0.074,0,0.244,0,0.244,0.191c0,0.105-0.063,0.169-0.17,0.169c-0.604,0-1.325,0.87-0.901,1.994
					c-0.785-1.178-0.032-2.11,0.478-2.11C34.708,108.309,34.814,108.213,34.846,108.064z"/>
				<path fill="#FFFFFF" d="M37.465,107.948v7.169c0,0.095-0.095,0.138-0.202,0.138c-0.095,0-0.201-0.043-0.201-0.138v-7.169
					c0-0.085,0.106-0.139,0.201-0.139C37.359,107.81,37.465,107.853,37.465,107.948z M37.889,108.276v7.169
					c0,0.085-0.085,0.138-0.191,0.138s-0.212-0.042-0.202-0.169c0.117-0.054,0.18-0.139,0.18-0.297v-6.968
					C37.826,108.139,37.889,108.213,37.889,108.276z"/>
				<path fill="#FFFFFF" d="M42.492,107.81c0.095,0,0.19,0.054,0.19,0.139v7.147c0,0.096-0.106,0.159-0.201,0.159
					c-0.074,0-0.148-0.032-0.18-0.117l-2.238-6.31v6.289c0,0.084-0.096,0.127-0.191,0.127s-0.18-0.043-0.18-0.127v-7.105
					c0-0.138,0.095-0.202,0.201-0.202c0.085,0,0.17,0.043,0.202,0.128l2.216,6.119v-6.108
					C42.311,107.853,42.407,107.81,42.492,107.81z M40.275,110.059l0.212,0.604v4.761c0,0.096-0.085,0.159-0.17,0.159
					c-0.095,0-0.201-0.053-0.201-0.18c0.106-0.054,0.159-0.138,0.159-0.286V110.059z M42.099,112.848l-1.697-4.688
					c0.042-0.011,0.095,0.053,0.117,0.105l1.58,4.359V112.848z M43.106,108.276v7.147c0,0.117-0.095,0.17-0.18,0.17
					c-0.106,0-0.202-0.063-0.202-0.19c0.127-0.054,0.17-0.148,0.17-0.308v-6.946C43.043,108.139,43.106,108.213,43.106,108.276z"/>
				<path fill="#FFFFFF" d="M48.483,111.564c0,2.895-1.357,3.701-2.8,3.701c-0.212,0-0.414-0.011-0.562-0.054
					c-0.074-0.031-0.212-0.105-0.212-0.243v-7c0-0.105,0.053-0.201,0.18-0.223c0.106-0.011,0.244-0.011,0.414-0.011
					C47.741,107.746,48.483,109.337,48.483,111.564z M48.069,111.521c0-2.025-0.742-3.638-2.747-3.414v6.744
					c0.169,0.021,0.318,0.032,0.424,0.032C47.486,114.873,48.069,113.261,48.069,111.521z M48.907,111.893
					c0,1.061-0.191,2.09-0.732,2.8c-0.88,1.124-2.556,0.965-2.768,0.774c0.095,0.011,0.191,0.011,0.275,0.011
					c1.962,0,3.012-1.379,3.012-3.913c0-0.976-0.138-1.771-0.424-2.397C48.737,109.867,48.907,110.832,48.907,111.893z
					 M46.479,108.446c-0.127-0.021-0.254-0.032-0.392-0.032l-0.339,0.021v6.235c-0.064,0-0.138,0-0.212-0.01v-6.363
					C45.885,108.287,46.203,108.33,46.479,108.446z"/>
				<path fill="#FFFFFF" d="M52.607,109.306c-0.106,0-0.201-0.054-0.201-0.17c0-0.594-0.414-1.039-0.944-1.039
					c-0.583,0-0.912,0.53-0.912,1.103c0,0.615,0.403,1.272,1.018,1.846c0.689,0.679,1.453,1.336,1.453,2.492
					c0,1.155-0.679,1.803-1.591,1.803c-0.912,0-1.548-0.764-1.548-1.549c0-0.329,0.414-0.286,0.414-0.053
					c0,0.626,0.456,1.23,1.145,1.23c0.7,0,1.135-0.679,1.156-1.411c0.011-0.933-0.679-1.548-1.304-2.152
					c-0.636-0.604-1.156-1.368-1.156-2.238c0-0.816,0.52-1.421,1.336-1.421c0.753,0,1.336,0.478,1.336,1.39
					C52.809,109.252,52.703,109.306,52.607,109.306z M51.388,114.83c-0.668-0.116-0.849-0.721-0.88-0.954
					c0.106,0,0.191,0.032,0.212,0.148C50.762,114.332,51.038,114.661,51.388,114.83z M51.462,108.309
					c0.138,0,0.275,0.042,0.392,0.127c-0.731,0.021-1.113,0.901-0.731,1.782c-0.244-0.351-0.361-0.7-0.361-1.019
					C50.762,108.68,51.049,108.309,51.462,108.309z M53.063,115.117c-0.499,0.636-1.368,0.657-1.877,0.424
					c0.074,0.011,0.159,0.011,0.244,0.011c1.644,0,2.143-1.792,1.581-3.055C53.636,113.441,53.52,114.533,53.063,115.117z
					 M53.021,109.136c0-0.223-0.042-0.435-0.106-0.626c0.202,0.244,0.318,0.573,0.318,0.965c0,0.106-0.106,0.159-0.202,0.159
					c-0.117,0-0.202-0.053-0.202-0.169C52.947,109.4,53.021,109.306,53.021,109.136z"/>
			</g>
			<g clip-path="url(#SVGID_10_)">
				<path fill="#FFFFFF" d="M118.587,114.841c0.212,0,0.159,0.393,0.031,0.393h-2.979c-0.138,0-0.382-0.159-0.117-0.467
					c0.085-0.074,2.843-2.905,2.811-5.09c-0.011-0.774-0.393-1.549-1.167-1.549c-0.668,0-1.421,0.657-1.357,1.951
					c0.011,0.106-0.084,0.159-0.18,0.159s-0.191-0.053-0.201-0.19c-0.032-1.22,0.53-2.291,1.749-2.291c0.807,0,1.57,0.657,1.57,1.94
					c0,2.016-2.058,4.582-2.779,5.144H118.587z M117.165,108.34c0.159,0,0.298,0.043,0.425,0.117
					c-0.414,0.011-0.722,0.201-0.944,0.478c-0.275,0.371-0.413,0.88-0.413,1.325v0.148c0,0.116-0.063,0.17-0.17,0.17
					c-0.223,0-0.19-0.138-0.19-0.181c0.138-0.053,0.169-0.148,0.148-0.339C115.978,109.114,116.466,108.34,117.165,108.34z
					 M119.138,115.393c0,0.053-0.011,0.17-0.095,0.17h-2.948c-0.096,0-0.181-0.043-0.223-0.117h2.746
					c0.191,0,0.276-0.096,0.297-0.275h0.096C119.117,115.17,119.138,115.318,119.138,115.393z M118.958,109.697
					c0-0.371-0.063-0.71-0.181-1.007c0.266,0.36,0.393,0.858,0.393,1.336c0,1.792-1.612,3.945-2.217,4.603h-0.456
					C117.409,113.664,118.958,111.479,118.958,109.697z"/>
				<path fill="#FFFFFF" d="M124.153,111.543c0,1.898-0.402,3.807-1.908,3.807c-1.634,0-1.941-2.194-1.941-3.817
					c0-1.676,0.34-3.807,1.941-3.807C123.867,107.726,124.153,109.931,124.153,111.543z M122.245,108.139
					c-1.23,0-1.517,1.697-1.517,3.404c0,1.687,0.286,3.394,1.517,3.394c1.347,0,1.484-2.036,1.484-3.394
					C123.729,110.207,123.581,108.139,122.245,108.139z M121.152,111.872c0,0.594,0.032,1.686,0.35,2.471
					c-0.371-0.488-0.562-1.421-0.562-2.8c0-2.132,0.445-3.192,1.305-3.192c0.169,0,0.317,0.043,0.445,0.117
					c-0.128,0-0.552,0-0.923,0.456C121.185,109.666,121.152,111.15,121.152,111.872z M124.578,111.872
					c0,0.88-0.085,2.396-0.732,3.224c-0.275,0.36-0.657,0.583-1.177,0.583c-0.233,0-0.445-0.042-0.637-0.127
					c0.647,0.096,2.333-0.054,2.333-4.009c0-1.198-0.148-2.143-0.456-2.821C124.504,109.57,124.578,111.023,124.578,111.872z"/>
				<path fill="#FFFFFF" d="M125.606,110.186l1.442-2.28c0.095-0.159,0.36-0.116,0.36,0.063v7.138c0,0.095-0.096,0.148-0.191,0.148
					c-0.095,0-0.19-0.043-0.19-0.148v-6.501l-1.113,1.781C125.808,110.557,125.5,110.355,125.606,110.186z M126.815,109.348v0.615
					l-0.478,0.753c-0.021,0.042-0.063,0.063-0.116,0.063c-0.117,0-0.191-0.127-0.191-0.181l0.063-0.095L126.815,109.348z
					 M127.833,108.298v7.137c0,0.106-0.095,0.159-0.19,0.159c-0.106,0-0.191-0.053-0.191-0.18c0.117-0.064,0.17-0.148,0.17-0.308
					v-6.957C127.759,108.128,127.833,108.213,127.833,108.298z"/>
				<path fill="#FFFFFF" d="M131.078,107.768c0.721,0,1.442,0.583,1.442,1.676c0,0.901-0.403,1.41-1.104,1.845
					c0.881,0.488,1.421,1.124,1.421,2.143c0,1.22-0.891,1.877-1.771,1.877c-1.008,0-1.781-0.785-1.781-1.877
					c0-1.008,0.572-1.654,1.41-2.143c-0.722-0.445-1.093-0.954-1.093-1.823C129.604,108.488,130.251,107.768,131.078,107.768z
					 M131.057,111.5c-0.806,0.446-1.39,0.977-1.39,1.962c0,0.902,0.647,1.485,1.411,1.485s1.41-0.594,1.378-1.549
					C132.425,112.477,131.862,111.946,131.057,111.5z M130.188,114.332c-0.191-0.223-0.308-0.52-0.308-0.87
					c0-0.742,0.328-1.229,1.177-1.718l0.275,0.17c-0.721,0.424-1.24,0.976-1.24,1.877
					C130.092,113.982,130.123,114.162,130.188,114.332z M129.975,109.433c0,0.923,0.436,1.272,1.082,1.654
					c0.764-0.435,1.093-0.774,1.093-1.654c0-0.838-0.521-1.305-1.071-1.305C130.526,108.128,129.975,108.605,129.975,109.433z
					 M130.188,109.433c0-0.626,0.392-1.093,0.891-1.093c0.148,0,0.297,0.043,0.413,0.117c-1.007,0.031-1.24,1.188-1.007,1.93
					C130.262,110.133,130.188,109.846,130.188,109.433z M133.263,113.76c0,1.06-0.722,1.877-1.771,1.877
					c-0.254,0-0.498-0.043-0.71-0.139c0.095,0.011,0.19,0.021,0.286,0.021c1.135,0,1.983-0.891,1.983-2.089
					c0-0.35-0.064-0.668-0.181-0.954C133.125,112.826,133.263,113.25,133.263,113.76z M132.732,109.443
					c0-0.297-0.053-0.563-0.148-0.807c0.244,0.308,0.36,0.722,0.36,1.135c0,0.827-0.339,1.315-0.869,1.697l-0.266-0.191
					C132.446,110.801,132.732,110.228,132.732,109.443z"/>
			</g>
		</g>
	</g>
</g>
</svg>
